<svg width="279" height="35" viewBox="0 0 279 35" fill="none" xmlns="http://www.w3.org/2000/svg">
<g clip-path="url(#clip0_663_36)">
<path fill-rule="evenodd" clip-rule="evenodd" d="M0 27.9274L27.9274 0L55.8547 27.9274L48.8012 35L27.9274 14.1262L7.07264 35L0 27.9274Z" fill="#D8002C"/>
<path d="M203.233 34.8471H205.393V31.9033L208.356 27.0672H205.948L204.342 29.8962L202.736 27.0672H200.29L203.252 31.9416V34.8471H203.233ZM192.261 34.8471H194.402V30.5844L197.728 34.8471H199.62V27.0672H197.48V31.177L194.287 27.0672H192.28V34.8471H192.261ZM186.259 31.7695L187.138 29.5522L187.998 31.7695H186.259ZM182.818 34.8471H185.093L185.647 33.4517H188.648L189.222 34.8471H191.535L188.228 27.0098H186.144L182.818 34.8471ZM178.88 30.9285V28.864H179.894C180.677 28.864 181.136 29.2272 181.136 29.8771V29.8962C181.136 30.5079 180.677 30.9093 179.894 30.9093H178.88V30.9285ZM176.74 34.8471H178.9V32.6297H179.97C181.901 32.6297 183.315 31.6548 183.315 29.8389V29.8198C183.315 28.0994 182.054 27.0863 180.085 27.0863H176.759V34.8471H176.74ZM167.086 34.8471H169.189V30.3932L171.158 33.4134H171.196L173.184 30.3741V34.8471H175.325V27.0672H173.05L171.196 30.0683L169.342 27.0672H167.067V34.8471H167.086ZM161.791 33.0503C160.606 33.0503 159.803 32.0754 159.803 30.9476V30.9285C159.803 29.8007 160.587 28.8449 161.772 28.8449C162.957 28.8449 163.779 29.8198 163.779 30.9476V30.9667C163.76 32.0945 162.977 33.0503 161.791 33.0503ZM161.772 35C164.181 35 165.978 33.1841 165.978 30.9476V30.9285C165.978 28.692 164.2 26.9143 161.791 26.9143C159.383 26.9143 157.586 28.7302 157.586 30.9667V30.9858C157.586 33.2032 159.364 35 161.772 35ZM153.725 35C155.445 35 156.439 34.2545 157.166 33.2414L155.541 32.0945C155.082 32.6679 154.604 33.0311 153.782 33.0311C152.693 33.0311 151.928 32.1136 151.928 30.9476V30.9285C151.928 29.8007 152.693 28.864 153.782 28.864C154.528 28.864 155.044 29.2272 155.483 29.7815L157.108 28.5199C156.42 27.5642 155.407 26.8951 153.801 26.8951C151.45 26.8951 149.711 28.6729 149.711 30.9476V30.9667C149.711 33.2987 151.488 35 153.725 35ZM139.484 34.8471H145.792V33.012H141.606V31.7695H145.333V30.0683H141.606V28.8831H145.735V27.0481H139.484V34.8471ZM134.055 34.8471H136.215V28.9596H138.547V27.0672H131.723V28.9596H134.055V34.8471ZM127.155 31.7695L128.034 29.5522L128.894 31.7695H127.155ZM123.695 34.8471H125.969L126.524 33.4517H129.525L130.098 34.8471H132.411L129.104 27.0098H127.021L123.695 34.8471ZM119.891 34.8471H122.051V28.9596H124.383V27.0672H117.559V28.9596H119.891V34.8471ZM114.022 34.9809C115.915 34.9809 117.157 34.0442 117.157 32.4386V32.4194C117.157 30.9667 116.049 30.3932 114.252 29.9918C113.181 29.7433 112.914 29.5904 112.914 29.2272V29.2081C112.914 28.9214 113.162 28.7111 113.697 28.7111C114.386 28.7111 115.169 28.9787 115.877 29.4757L116.947 27.9465C116.106 27.2774 115.074 26.9143 113.755 26.9143C111.882 26.9143 110.754 27.9656 110.754 29.3992V29.4184C110.754 31.024 112.034 31.4828 113.678 31.8651C114.73 32.1136 114.997 32.2856 114.997 32.6106V32.6297C114.997 32.9547 114.691 33.1649 114.118 33.1649C113.22 33.1649 112.359 32.84 111.595 32.2283L110.391 33.6619C111.327 34.5412 112.646 34.9809 114.022 34.9809ZM103.547 34.8471H109.855V33.012H105.669V31.7695H109.397V30.0683H105.669V28.8831H109.798V27.0481H103.547V34.8471V34.8471ZM93.6265 34.8471H99.5522V32.9547H95.7865V27.0672H93.6265V34.8471ZM87.6434 31.7695L88.5227 29.5522L89.3829 31.7695H87.6434ZM84.1836 34.8471H86.4583L87.0126 33.4517H90.0137L90.5872 34.8471H92.9001L89.5932 27.0098H87.5096L84.1836 34.8471ZM77.3976 34.8471H83.7057V33.012H79.5194V31.7695H83.2469V30.0683H79.5194V28.8831H83.6483V27.0481H77.3976V34.8471ZM71.5675 30.7947V28.9214H72.982C73.7084 28.9214 74.148 29.2272 74.148 29.8389V29.858C74.148 30.4315 73.7275 30.7755 73.0011 30.7755H71.5675V30.7947ZM69.4075 34.8471H71.5675V32.4959H72.485H72.5041L74.0716 34.8471H76.5566L74.7024 32.1327C75.6773 31.7313 76.3081 30.9285 76.3081 29.7433V29.7242C76.3081 28.9596 76.0787 28.367 75.6199 27.9083C75.1038 27.373 74.2819 27.0672 73.0967 27.0672H69.4266V34.8471H69.4075Z" fill="black"/>
<path d="M270.672 14.0688V10.2648H272.545C273.979 10.2648 274.839 10.9147 274.839 12.1572V12.1955C274.839 13.3233 273.979 14.0688 272.564 14.0688H270.672V14.0688ZM266.696 21.2943H270.672V17.1845H272.641C276.215 17.1845 278.815 15.4068 278.815 12.0043V11.9661C278.815 8.79296 276.483 6.91966 272.851 6.91966H266.696V21.2943ZM257.597 21.5619C261.688 21.5619 264.325 19.5357 264.325 14.8907V6.91966H260.292V15.0054C260.292 17.0125 259.241 17.9683 257.635 17.9683C256.029 17.9683 254.997 16.9743 254.997 14.9098V6.91966H250.945V14.9863C250.964 19.4784 253.525 21.5619 257.597 21.5619ZM241.349 17.9874C239.17 17.9874 237.679 16.1906 237.679 14.107V14.0688C237.679 12.0043 239.132 10.2266 241.311 10.2266C243.509 10.2266 245 12.0234 245 14.107V14.1452C245 16.2288 243.547 17.9874 241.349 17.9874ZM241.311 21.5811C245.745 21.5811 249.072 18.2359 249.072 14.107V14.0688C249.072 9.93987 245.784 6.63293 241.349 6.63293C236.914 6.63293 233.588 9.9781 233.588 14.107V14.1452C233.588 18.2741 236.876 21.5811 241.311 21.5811ZM223.304 13.8203V10.3795H225.904C227.242 10.3795 228.064 10.953 228.064 12.0808V12.119C228.064 13.1703 227.28 13.8203 225.923 13.8203H223.304V13.8203ZM219.328 21.2943H223.304V16.936H225.005H225.044L227.93 21.2943H232.518L229.096 16.2861C230.874 15.5215 232.059 14.0688 232.059 11.8705V11.8323C232.059 10.4178 231.619 9.30907 230.778 8.48711C229.823 7.49312 228.293 6.91966 226.095 6.91966H219.309V21.2943H219.328ZM210.879 21.5811C213.479 21.5811 215.601 20.6253 217.111 19.3637V12.9027H210.497V15.8082H213.326V17.5477C212.733 17.93 211.988 18.1403 211.032 18.1403C208.758 18.1403 207.133 16.4773 207.133 14.1643V14.1261C207.133 11.9279 208.738 10.1884 210.803 10.1884C212.217 10.1884 213.25 10.6854 214.263 11.5456L216.595 8.73561C215.085 7.41666 213.288 6.63293 210.765 6.63293C206.311 6.63293 203.023 9.92076 203.023 14.107V14.1452C203.061 18.5035 206.406 21.5811 210.879 21.5811ZM187.826 21.2943H191.802V10.4178H196.122V6.91966H183.506V10.4178H187.807V21.2943H187.826ZM176.988 21.5428C180.486 21.5428 182.799 19.8033 182.799 16.8596V16.8214C182.799 14.1261 180.754 13.0748 177.447 12.3484C175.459 11.8896 174.962 11.6029 174.962 10.953V10.9147C174.962 10.3986 175.44 9.99722 176.395 9.99722C177.676 9.99722 179.11 10.4942 180.41 11.4117L182.398 8.6018C180.83 7.35931 178.938 6.69028 176.491 6.69028C173.05 6.69028 170.928 8.62092 170.928 11.2779V11.3162C170.928 14.279 173.28 15.1392 176.338 15.8274C178.288 16.2861 178.766 16.6111 178.766 17.2037V17.2419C178.766 17.8536 178.192 18.2359 177.122 18.2359C175.459 18.2359 173.872 17.6433 172.458 16.5155L170.24 19.1534C172.018 20.74 174.446 21.5428 176.988 21.5428ZM157.662 21.2943H169.323V17.9109H161.6V15.6362H168.501V12.4822H161.6V10.3222H169.208V6.91966H157.662V21.2943V21.2943ZM146.729 21.3899H150.418L156.248 6.91966H151.871L148.602 16.0185L145.333 6.91966H140.879L146.729 21.3899ZM125.95 21.2943H129.888V13.4188L136.024 21.2943H139.522V6.91966H135.584V14.5275L129.678 6.93878H125.969V21.2943H125.95ZM119.317 21.2943H123.312V6.91966H119.317V21.2943ZM101.827 17.758V10.456H103.452C105.841 10.456 107.409 11.794 107.409 14.0879V14.1261C107.409 16.4391 105.822 17.758 103.452 17.758H101.827ZM97.8509 21.2943H103.318C108.498 21.2943 111.499 18.2168 111.499 14.0688V14.0305C111.499 9.88253 108.517 6.91966 103.394 6.91966H97.8509V21.2943ZM84.1644 21.2943H95.8247V17.9109H88.1021V15.6362H95.0027V12.4822H88.1021V10.3222H95.71V6.91966H84.1644V21.2943ZM73.3834 13.8203V10.3795H75.9831C77.3211 10.3795 78.1431 10.953 78.1431 12.0808V12.119C78.1431 13.1703 77.3594 13.8203 76.0022 13.8203H73.3834V13.8203ZM69.4074 21.2943H73.3834V16.936H75.0846H75.1229L78.0093 21.2943H82.5969L79.1753 16.2861C80.953 15.5215 82.1382 14.0688 82.1382 11.8705V11.8323C82.1382 10.4178 81.6985 9.30907 80.8574 8.48711C79.9017 7.49312 78.3725 6.91966 76.1742 6.91966H69.3883V21.2943H69.4074Z" fill="black"/>
</g>
<defs>
<clipPath id="clip0_663_36">
<rect width="278.834" height="35" fill="white"/>
</clipPath>
</defs>
</svg>
