<svg width="856" height="542" viewBox="0 0 856 542" fill="none" xmlns="http://www.w3.org/2000/svg">
    <g clip-path="url(#clip0_887_274)">
        <path d="M65.2082 502.87C57.2982 496.41 49.0482 490.23 41.7182 483.13C38.2357 479.886 35.2082 476.186 32.7182 472.13C31.44 470.044 30.4097 467.815 29.6482 465.49C29.0082 463.59 28.3782 460.64 31.1482 460.35C32.2048 460.285 33.2642 460.424 34.2682 460.76C34.4909 460.821 34.7288 460.791 34.9295 460.677C35.1302 460.562 35.2772 460.373 35.3382 460.15C35.3992 459.927 35.3692 459.689 35.2548 459.489C35.1404 459.288 34.9509 459.141 34.7282 459.08C31.4382 458.28 26.7282 458.51 27.2282 463.08C27.8582 468.27 31.2282 473.58 34.3782 477.57C42.4682 487.96 53.8982 495.75 63.9982 504.01C64.8682 504.7 66.0782 503.49 65.2082 502.79V502.87Z" fill="#E8E8E8"/>
        <path d="M35.0187 459.4C31.6305 455.417 29.0949 450.782 27.5687 445.78C26.8787 443.53 26.5687 441.22 25.8987 439.02C25.4387 437.64 24.5687 436.37 25.8387 435.16C26.5125 434.682 27.2101 434.238 27.9287 433.83C29.9287 432.5 30.9887 430.94 28.5587 429.27C27.1787 428.34 25.4487 428.17 23.9387 427.42C21.9714 426.263 20.3408 424.612 19.2087 422.63C16.7887 418.7 15.4587 414.08 14.0087 409.75C12.2787 404.62 10.6087 399.36 9.10869 394.17C6.10869 383.663 3.60536 373.06 1.59869 362.36C1.42869 362.7 1.19869 363.05 1.02869 363.36C11.8787 359.78 22.6687 368.96 30.4087 375.48C38.3723 382.221 45.557 389.832 51.8287 398.17C64.8287 415.49 73.8287 435.46 79.5387 456.3C82.948 469.078 85.2466 482.126 86.4087 495.3C86.5187 496.4 88.2587 496.4 88.1387 495.3C83.9287 449.87 67.1387 403.85 31.3287 373.89C23.1387 367.08 12.0487 357.89 0.618689 361.65C0.415043 361.715 0.242831 361.853 0.135607 362.038C0.0283835 362.223 -0.00616677 362.441 0.038691 362.65C2.17885 374.113 4.89563 385.461 8.17869 396.65C9.73869 401.9 11.3587 407.1 13.1787 412.23C14.5787 416.49 15.9287 420.9 18.4487 424.49C19.3885 425.908 20.5657 427.153 21.9287 428.17C23.6087 429.38 25.5687 429.5 27.2487 430.54C29.4387 431.87 26.2487 432.9 25.1087 433.71C24.6448 433.987 24.2418 434.354 23.9238 434.791C23.6059 435.227 23.3796 435.724 23.2587 436.25C23.0287 437.98 24.5287 440.01 24.9387 441.62C25.4296 444.108 26.098 446.558 26.9387 448.95C28.6203 453.211 30.9846 457.169 33.9387 460.67C34.5187 461.48 35.7287 460.27 35.0387 459.4H35.0187Z" fill="#E8E8E8"/>
        <path d="M10.3071 371.65C34.4647 398.969 53.1772 430.654 65.4371 465C68.8211 474.506 71.6919 484.186 74.0371 494C74.0981 494.223 74.2451 494.412 74.4458 494.527C74.6464 494.641 74.8843 494.671 75.1071 494.61C75.3299 494.549 75.5193 494.402 75.6337 494.201C75.7481 494.001 75.7781 493.763 75.7171 493.54C67.1428 457.862 51.8169 424.155 30.5671 394.24C24.6732 385.934 18.3305 377.955 11.5671 370.34C11.3953 370.19 11.1727 370.11 10.9444 370.118C10.7162 370.125 10.4993 370.219 10.3378 370.381C10.1763 370.542 10.0823 370.759 10.0747 370.987C10.0671 371.216 10.1467 371.438 10.2971 371.61L10.3071 371.65Z" fill="#E8E8E8"/>
        <path d="M14.2403 409.64C17.0155 410.346 19.736 411.251 22.3803 412.35C23.3803 412.76 23.8803 411.08 22.8403 410.68C20.1976 409.577 17.4768 408.671 14.7003 407.97C14.4871 407.932 14.2676 407.976 14.0846 408.092C13.9017 408.207 13.7684 408.387 13.7109 408.596C13.6534 408.804 13.6758 409.027 13.7737 409.22C13.8716 409.413 14.038 409.563 14.2403 409.64Z" fill="#E8E8E8"/>
        <path d="M34.5605 447.97C38.3105 447.86 41.4305 449.82 44.4905 451.67C47.2605 453.34 49.9705 455.02 52.6305 456.86C58.1105 460.67 63.0805 465.18 66.3705 471.06C66.8905 472.06 68.3705 471.18 67.8705 470.2C64.4005 464.08 59.2105 459.35 53.4905 455.42C50.4905 453.34 47.3205 451.42 44.1405 449.53C41.1405 447.74 38.0805 446.24 34.5005 446.3C33.5005 446.24 33.5005 447.97 34.5605 447.97Z" fill="#E8E8E8"/>
        <path d="M57.5305 437.58C55.97 428.27 56.0309 418.76 57.7105 409.47C57.8805 408.37 56.2105 407.91 56.0305 409C54.3041 418.585 54.2466 428.396 55.8605 438C56.0305 439.1 57.7105 438.64 57.5305 437.54V437.58Z" fill="#E8E8E8"/>
        <path d="M54.5883 398.04C55.7172 386.56 58.2978 375.27 62.2683 364.44C65.6683 355.37 70.7483 346.44 79.4683 341.63C79.0083 341.4 78.5983 341.11 78.1383 340.88C79.0683 356.93 88.4783 371.19 88.8783 387.3C89.0737 387.016 89.2875 386.746 89.5183 386.49L82.9283 388.22C82.783 388.26 82.6504 388.336 82.5437 388.443C82.4369 388.549 82.3596 388.681 82.3193 388.826C82.279 388.971 82.277 389.125 82.3137 389.271C82.3503 389.417 82.4243 389.551 82.5283 389.66C85.1883 392.2 85.7083 395.78 85.8183 399.31C85.8783 401.15 86.8183 410.1 84.7183 410.68C84.5941 410.72 84.4803 410.787 84.3847 410.876C84.289 410.965 84.2138 411.074 84.1644 411.195C84.1149 411.315 84.0923 411.446 84.0981 411.576C84.104 411.706 84.1382 411.834 84.1983 411.95C90.6083 422.22 87.6683 434.41 85.8783 445.49C84.0403 456.87 83.7879 468.45 85.1283 479.9C85.2383 480.99 86.9783 480.99 86.8583 479.9C85.49 467.157 85.975 454.284 88.2983 441.68C90.0883 431.4 91.5383 420.38 85.7583 411.02C85.5883 411.43 85.4183 411.89 85.2383 412.29C86.7983 411.89 87.3183 410.68 87.5483 409.18C87.8032 406.32 87.8233 403.443 87.6083 400.58C87.5483 396.19 87.0883 391.63 83.7383 388.45C83.6316 388.94 83.4981 389.424 83.3383 389.9L89.9183 388.16C90.0923 388.105 90.246 388 90.3599 387.857C90.4739 387.715 90.5429 387.542 90.5583 387.36C90.1483 371.19 80.7983 356.99 79.8183 340.94C79.8115 340.787 79.7659 340.639 79.686 340.509C79.606 340.379 79.4943 340.271 79.3613 340.196C79.2282 340.121 79.0783 340.081 78.9256 340.08C78.7728 340.079 78.6224 340.117 78.4883 340.19C69.8883 344.98 64.6883 353.47 61.1083 362.42C56.6823 373.886 53.8655 385.911 52.7383 398.15C52.7383 399.15 54.4683 399.15 54.5883 398.04Z" fill="#E8E8E8"/>
        <path d="M75.5506 349.54C69.3615 372.939 66.199 397.036 66.1406 421.24C66.1636 421.453 66.2646 421.651 66.4243 421.794C66.584 421.938 66.791 422.017 67.0056 422.017C67.2202 422.017 67.4273 421.938 67.5869 421.794C67.7466 421.651 67.8476 421.453 67.8706 421.24C67.9191 397.195 71.0411 373.254 77.1606 350C77.2015 349.891 77.2194 349.775 77.2132 349.66C77.207 349.544 77.1769 349.43 77.1247 349.327C77.0725 349.223 76.9994 349.131 76.91 349.057C76.8206 348.983 76.7168 348.928 76.6052 348.897C76.4936 348.865 76.3766 348.856 76.2615 348.872C76.1465 348.887 76.036 348.927 75.9369 348.987C75.8378 349.048 75.7523 349.128 75.6858 349.223C75.6194 349.318 75.5733 349.426 75.5506 349.54Z" fill="#E8E8E8"/>
        <path d="M753.348 314.96C757.063 326.841 759.806 339.004 761.548 351.33C762.418 357.57 763.048 363.92 763.338 370.21C763.458 371.83 763.508 373.5 763.568 375.12C763.628 376.12 763.338 377.71 763.688 378.64C764.038 379.57 765.248 380.08 765.938 380.64C767.148 381.64 768.358 382.64 769.518 383.58C769.578 383.12 769.628 382.66 769.688 382.2C768.163 383.154 766.406 383.673 764.608 383.7C764.424 383.707 764.247 383.772 764.101 383.885C763.956 383.998 763.85 384.153 763.798 384.33C762.967 386.852 762.835 389.552 763.414 392.143C763.993 394.735 765.263 397.121 767.088 399.05C767.318 398.54 767.498 398.05 767.728 397.55C761.728 397.32 761.608 404.25 762.188 408.55C762.962 414.521 764.175 420.427 765.818 426.22C769.168 437.53 774.818 448.22 783.948 456.01C784.818 456.7 786.028 455.49 785.158 454.79C777.428 448.26 772.228 439.49 768.928 429.96C767.385 425.47 766.153 420.879 765.238 416.22C764.488 412.35 760.738 399.07 767.778 399.31C767.952 399.308 768.122 399.256 768.266 399.158C768.411 399.061 768.524 398.923 768.591 398.763C768.658 398.602 768.676 398.425 768.644 398.254C768.611 398.083 768.529 397.925 768.408 397.8C766.809 396.089 765.702 393.978 765.204 391.689C764.705 389.401 764.835 387.021 765.578 384.8C765.298 385.03 765.008 385.2 764.778 385.43C766.886 385.463 768.956 384.86 770.718 383.7C770.831 383.629 770.927 383.533 770.999 383.42C771.071 383.307 771.117 383.18 771.134 383.047C771.152 382.915 771.139 382.78 771.098 382.652C771.057 382.525 770.989 382.408 770.898 382.31C768.758 380.58 765.818 379.08 765.468 376.19C765.118 373.13 765.238 369.96 765.008 366.9C764.598 361.18 764.008 355.47 763.158 349.75C761.418 337.802 758.743 326.009 755.158 314.48C754.748 313.38 753.078 313.85 753.418 314.94L753.348 314.96Z" fill="#E8E8E8"/>
        <path d="M756.177 317.56C753.817 314.44 758.257 312.13 760.857 312.77C763.457 313.41 765.587 315.54 767.377 317.39C770.599 320.789 773.338 324.615 775.517 328.76C780.134 337.269 784.167 346.083 787.587 355.14C794.684 373.57 799.585 392.773 802.187 412.35C803.643 423.414 804.378 434.561 804.387 445.72C804.41 445.933 804.511 446.131 804.671 446.274C804.83 446.418 805.037 446.497 805.252 446.497C805.467 446.497 805.674 446.418 805.833 446.274C805.993 446.131 806.094 445.933 806.117 445.72C806.115 422.519 802.949 399.426 796.707 377.08C793.648 366.224 789.886 355.578 785.447 345.21C781.347 335.63 776.927 325.35 769.927 317.49C767.097 314.32 762.307 309.41 757.577 311.08C754.687 312.08 752.787 315.76 754.747 318.42C755.377 319.28 756.887 318.47 756.187 317.55L756.177 317.56Z" fill="#E8E8E8"/>
        <path d="M797.749 381.01C800.689 371.13 804.099 361.49 807.969 352.01C809.969 347.1 812.119 342.19 814.429 337.4C815.529 335.15 816.629 332.84 817.779 330.59C818.529 329.15 820.779 322.8 823.149 323.37C823.286 323.4 823.429 323.395 823.564 323.355C823.699 323.316 823.823 323.243 823.922 323.143C824.022 323.044 824.095 322.921 824.134 322.786C824.174 322.65 824.179 322.508 824.149 322.37C823.569 318.79 827.609 315.73 829.749 313.37C831.649 311.29 833.499 309.21 835.409 307.13C839.329 302.86 843.199 298.59 847.129 294.26C846.639 294.151 846.155 294.018 845.679 293.86C851.679 308.58 850.069 324.68 846.609 339.81C844.819 347.54 842.559 355.22 840.609 362.96C839.279 368.33 837.839 376.47 831.259 377.62C831.051 377.679 830.874 377.816 830.766 378.002C830.658 378.189 830.626 378.411 830.679 378.62C832.349 385.49 827.739 391.84 824.679 397.62C821.789 403.05 819.129 408.62 816.679 414.37C811.97 425.487 808.184 436.972 805.359 448.71C805.296 448.933 805.325 449.171 805.439 449.373C805.552 449.574 805.741 449.723 805.964 449.785C806.186 449.847 806.425 449.819 806.627 449.705C806.828 449.592 806.976 449.403 807.039 449.18C810.138 436.199 814.447 423.537 819.909 411.36C822.509 405.59 825.399 399.93 828.459 394.36C831.229 389.36 833.769 384.03 832.379 378.2C832.209 378.54 831.979 378.89 831.799 379.2C837.399 378.2 839.799 372.56 841.269 367.59C843.639 359.28 845.779 350.73 847.799 342.31C851.659 326.31 853.739 309 847.389 293.31C847.347 293.166 847.269 293.036 847.162 292.931C847.056 292.826 846.924 292.75 846.78 292.71C846.636 292.67 846.484 292.667 846.338 292.702C846.193 292.737 846.059 292.809 845.949 292.91C841.039 298.28 836.129 303.7 831.229 309.07C828.919 311.61 826.439 314.07 824.299 316.75C823.593 317.544 823.067 318.482 822.758 319.499C822.449 320.516 822.364 321.587 822.509 322.64L823.509 321.64C819.349 320.64 817.329 327.41 815.949 330.13C813.179 335.61 810.579 341.13 808.209 346.75C803.495 357.743 799.428 369.002 796.029 380.47C795.952 380.677 795.96 380.906 796.052 381.106C796.144 381.307 796.312 381.463 796.519 381.54C796.726 381.617 796.955 381.608 797.155 381.517C797.356 381.425 797.512 381.257 797.589 381.05L797.749 381.01Z" fill="#E8E8E8"/>
        <path d="M842.928 309.13C824.928 342.73 806.558 377.37 802.228 415.76C802.118 416.86 803.848 416.86 803.968 415.76C808.298 377.66 826.598 343.25 844.428 310C844.521 309.803 844.537 309.578 844.472 309.369C844.408 309.161 844.267 308.984 844.078 308.875C843.889 308.765 843.666 308.731 843.453 308.778C843.24 308.825 843.052 308.951 842.928 309.13Z" fill="#E8E8E8"/>
        <path d="M767.791 332.22C781.809 369.388 790.195 408.443 792.671 448.09C792.731 449.18 794.461 449.18 794.401 448.09C791.938 408.286 783.531 369.075 769.461 331.76C769.061 330.76 767.381 331.18 767.791 332.22Z" fill="#E8E8E8"/>
        <path d="M38.3088 313.63C91.2794 304.175 145.84 309.756 195.799 329.74C212.939 336.61 229.399 344.87 246.199 352.49C309.715 381.246 377.28 400.053 446.519 408.25C485.726 412.915 525.266 414.153 564.689 411.95C565.789 411.89 565.789 410.16 564.689 410.22C493.91 414.164 422.949 407.014 354.379 389.03C320.014 380.004 286.408 368.301 253.869 354.03C237.019 346.64 220.559 338.32 203.649 331.11C187.515 324.206 170.804 318.738 153.709 314.77C115.665 306.091 76.2641 305.149 37.8488 312C36.7488 312.11 37.2088 313.79 38.3088 313.61V313.63Z" fill="#E8E8E8"/>
        <path d="M352.357 387.76C385.207 389.43 416.897 377.6 447.787 368.13C480.121 358.257 512.544 348.653 545.057 339.32C577.387 330.03 609.717 320.27 642.567 312.83C675.417 305.39 708.667 301.92 742.207 300.93C779.557 299.78 816.907 301.45 854.207 303.19C855.307 303.24 855.307 301.51 854.207 301.45C788.337 298.45 721.597 295.51 656.477 308.15C623.477 314.56 591.127 324.37 558.797 333.55C526.297 342.843 493.854 352.37 461.467 362.13C443.517 367.55 425.617 373.44 407.547 378.41C389.477 383.38 371.067 386.95 352.297 386.03C351.297 385.97 351.297 387.7 352.357 387.76Z" fill="#E8E8E8"/>
        <path d="M212.189 328.49C234.999 335.07 258.669 330.49 281.409 326.12C305.747 321.335 330.409 318.383 355.189 317.29C404.379 315.49 453.269 322.49 502.289 324.49C529.419 325.58 556.669 324.95 583.449 320.49C584.549 320.32 584.089 318.65 582.989 318.82C534.789 326.82 485.829 322.05 437.459 318.42C413.269 316.57 389.019 315.01 364.719 315.42C340.594 315.83 316.539 318.147 292.779 322.35C266.459 326.97 239.089 334.59 212.599 326.91C211.599 326.57 211.099 328.24 212.189 328.53V328.49Z" fill="#E8E8E8"/>
        <path d="M314.37 439.77C321.772 436.681 329.742 435.188 337.76 435.39C345.2 435.62 351.9 438.04 359.12 439.54C364.48 440.7 369.85 440.7 374.18 436.89C375.86 435.44 377.3 433.94 379.72 434.69C381.51 435.21 383.02 436.43 384.72 437.18C386.592 438.119 388.72 438.421 390.78 438.04C395.78 437.04 399.5 432.96 403.83 430.6C411.16 426.67 418.2 431.92 425.36 433.83C440.26 437.83 456.19 436.6 471.43 436.43C490.19 436.25 509.01 436.37 527.66 434.06C528.76 433.94 528.76 432.21 527.66 432.33C510.92 434.33 494 434.46 477.15 434.64C461.1 434.81 444.15 436.31 428.31 432.73C424.656 431.89 421.082 430.733 417.63 429.27C414.57 428 411.39 426.79 408.04 427.27C402.79 427.96 398.86 432.12 394.42 434.66C392.11 435.98 389.57 436.91 386.91 436.16C384.03 435.29 381.66 432.75 378.48 432.64C375.48 432.58 374.04 435 371.85 436.56C368.79 438.7 364.92 438.76 361.34 438.18C353.72 436.97 346.62 434.02 338.82 433.68C330.298 433.292 321.797 434.801 313.93 438.1C312.93 438.5 313.36 440.18 314.39 439.77H314.37Z" fill="#E8E8E8"/>
        <path d="M351.207 388.28C352.207 388.45 353.207 388.68 354.267 388.86C354.49 388.921 354.728 388.891 354.929 388.777C355.129 388.662 355.276 388.473 355.337 388.25C355.398 388.027 355.368 387.789 355.254 387.589C355.14 387.388 354.95 387.241 354.727 387.18C354.087 386.95 353.457 386.72 352.727 386.49C351.797 386.14 351.167 387.64 352.027 388.05C357.318 390.819 362.894 393.006 368.657 394.57C368.871 394.607 369.09 394.564 369.273 394.448C369.456 394.333 369.589 394.153 369.647 393.944C369.704 393.735 369.682 393.513 369.584 393.32C369.486 393.127 369.32 392.977 369.117 392.9C363.501 391.392 358.071 389.262 352.927 386.55L352.237 388.11C352.867 388.34 353.507 388.57 354.237 388.8C354.407 388.22 354.527 387.7 354.697 387.12C353.697 386.95 352.697 386.72 351.637 386.55C350.577 386.38 350.137 388.05 351.237 388.28H351.207Z" fill="#E8E8E8"/>
        <path d="M273.617 468.29C272.333 466.804 271.191 465.2 270.207 463.5C269.673 462.623 269.227 461.695 268.877 460.73C268.684 460.412 268.563 460.056 268.524 459.686C268.484 459.316 268.526 458.942 268.647 458.59C268.552 458.246 268.562 457.881 268.676 457.542C268.791 457.203 269.003 456.907 269.287 456.69C270.147 454.32 269.107 451.84 268.537 449.42C267.664 445.613 266.797 441.8 265.937 437.98C265.477 435.98 265.017 433.98 264.607 431.98C264.377 431.06 264.207 430.19 263.977 429.27C263.627 427.65 263.277 426.9 264.497 425.57C265.067 424.36 265.937 424.13 267.087 425.05L268.647 426.61C269.184 427.387 269.668 428.199 270.097 429.04C270.897 430.54 271.707 432.04 272.457 433.54C274.242 437.107 275.805 440.781 277.137 444.54C279.658 451.589 281.437 458.882 282.447 466.3C282.737 465.948 283.007 465.581 283.257 465.2C283.367 465.32 283.427 465.49 283.547 465.61C283.608 465.387 283.578 465.149 283.464 464.949C283.35 464.748 283.16 464.601 282.937 464.54C282.715 464.479 282.477 464.509 282.276 464.623C282.075 464.738 281.928 464.927 281.867 465.15C281.787 465.363 281.763 465.592 281.797 465.817C281.831 466.042 281.923 466.254 282.062 466.434C282.201 466.613 282.384 466.754 282.594 466.843C282.803 466.931 283.032 466.965 283.257 466.94C283.391 466.942 283.523 466.912 283.643 466.852C283.762 466.793 283.866 466.706 283.945 466.598C284.024 466.491 284.077 466.366 284.098 466.234C284.119 466.102 284.109 465.967 284.067 465.84C282.781 456.323 280.218 447.023 276.447 438.19C274.657 434.03 272.747 429.41 270.097 425.72C268.647 423.72 266.047 421.85 263.567 423.29C260.737 424.91 262.067 428.89 262.647 431.37C263.797 436.45 264.957 441.53 266.047 446.61C266.567 449.04 267.667 451.75 267.787 454.23C267.837 456.23 266.167 457.23 266.457 459.23C267.037 462.98 269.857 466.79 272.227 469.56C273.097 470.31 274.307 469.1 273.617 468.29Z" fill="#E8E8E8"/>
        <path d="M278.929 443.49C278.041 438.295 278.197 432.974 279.389 427.84C279.687 426.529 280.071 425.24 280.539 423.98C281.349 421.78 282.539 421.98 283.659 423.63C285.14 425.771 286.324 428.102 287.179 430.56C290.709 440.56 289.179 451.4 287.649 461.62C287.469 462.71 289.149 463.18 289.319 462.08C291.219 449.2 293.189 434.6 285.389 423.08C284.529 421.81 283.389 419.67 281.579 419.96C279.769 420.25 279.039 422.91 278.519 424.41C276.502 430.689 276.049 437.366 277.199 443.86C277.268 444.068 277.411 444.243 277.602 444.352C277.792 444.46 278.015 444.495 278.229 444.449C278.444 444.403 278.633 444.28 278.762 444.103C278.891 443.926 278.951 443.708 278.929 443.49Z" fill="#E8E8E8"/>
        <path d="M282.049 430.19C283.745 439.148 284.44 448.268 284.119 457.38C284.069 458.48 285.799 458.48 285.859 457.38C286.183 448.112 285.466 438.837 283.719 429.73C283.489 428.63 281.869 429.09 282.049 430.19Z" fill="#E8E8E8"/>
        <path d="M69.709 307.11C68.039 303.42 64.289 300.82 61.919 297.59C59.3928 293.974 57.0789 290.214 54.989 286.33C54.819 286.73 54.649 287.19 54.469 287.6C66.079 285.52 72.769 296.95 75.029 306.6C75.259 307.7 76.929 307.24 76.699 306.14C74.219 295.46 66.599 283.74 54.009 285.93C53.8827 285.967 53.7665 286.033 53.6688 286.121C53.5711 286.209 53.4944 286.318 53.4445 286.44C53.3946 286.562 53.3727 286.694 53.3804 286.825C53.3881 286.957 53.4252 287.085 53.489 287.2C55.5282 291.123 57.844 294.896 60.419 298.49C62.789 301.72 66.599 304.49 68.209 308.02C68.679 309.02 70.209 308.19 69.709 307.15V307.11Z" fill="#E8E8E8"/>
        <path d="M74.7399 297.82C75.5999 288.75 84.2599 283.1 87.6099 275.07L86.3399 275.59C90.2099 278.07 87.3399 287.08 86.2299 290.54C84.5941 295.579 81.9847 300.247 78.5499 304.28C77.8499 305.15 79.0699 306.36 79.7599 305.49C84.0358 300.513 87.0812 294.601 88.6499 288.23C89.6499 284.23 91.4799 276.86 87.2099 274.09C87.0946 274.026 86.9666 273.989 86.8351 273.981C86.7036 273.974 86.5721 273.996 86.4502 274.045C86.3283 274.095 86.2192 274.172 86.1309 274.27C86.0425 274.367 85.9773 274.484 85.9399 274.61C82.4699 282.92 73.9399 288.35 73.0099 297.82C72.8899 298.91 74.6199 298.91 74.7399 297.82Z" fill="#E8E8E8"/>
        <path d="M587.378 324.03L585.818 320.03C585.528 319.4 585.298 318.7 585.008 318.03C584.847 317.815 584.756 317.556 584.747 317.288C584.738 317.02 584.811 316.755 584.958 316.53C585.085 316.644 585.243 316.72 585.412 316.748C585.581 316.775 585.754 316.755 585.911 316.687C586.069 316.62 586.204 316.51 586.301 316.368C586.398 316.227 586.452 316.061 586.458 315.89C586.168 313.01 585.878 310.06 585.588 307.18C585.528 306.48 584.838 303.77 585.238 303.25C587.028 300.77 588.238 304.87 588.418 305.5C589.978 310.81 589.918 316.93 589.858 322.42C589.881 322.633 589.982 322.831 590.141 322.974C590.301 323.117 590.508 323.197 590.723 323.197C590.937 323.197 591.144 323.117 591.304 322.974C591.464 322.831 591.565 322.633 591.588 322.42C591.667 317.939 591.4 313.459 590.788 309.02C590.378 306.19 589.918 302.1 587.148 300.42C585.358 299.32 583.858 300.48 583.508 302.42C583.158 304.36 583.738 306.47 583.918 308.26C584.148 310.8 584.438 313.34 584.668 315.88C585.188 315.64 585.668 315.47 586.168 315.24C585.958 315.015 585.695 314.846 585.404 314.748C585.112 314.65 584.801 314.625 584.498 314.677C584.195 314.729 583.909 314.854 583.666 315.043C583.424 315.232 583.232 315.479 583.108 315.76C582.834 316.643 582.917 317.597 583.338 318.42C584.028 320.42 584.958 322.42 585.708 324.42C586.108 325.52 587.778 325.05 587.378 324.02V324.03Z" fill="#E8E8E8"/>
        <path d="M591.25 314.62C591.021 306.555 592.736 298.553 596.25 291.29L594.87 291.47C598.62 294.58 596.14 303.01 595.5 307.05C594.64 312.48 593.5 317.91 592.15 323.22C592.089 323.443 592.119 323.681 592.233 323.881C592.348 324.082 592.537 324.229 592.76 324.29C592.983 324.351 593.221 324.321 593.421 324.207C593.622 324.092 593.769 323.903 593.83 323.68C595.491 317.195 596.783 310.621 597.7 303.99C598.27 299.72 599.95 293.43 596.08 290.2C595.983 290.108 595.867 290.039 595.74 289.997C595.613 289.956 595.478 289.942 595.345 289.959C595.212 289.975 595.085 290.02 594.972 290.091C594.859 290.162 594.762 290.257 594.69 290.37C591.051 297.902 589.271 306.198 589.5 314.56C589.61 315.71 591.35 315.71 591.29 314.62H591.25Z" fill="#E8E8E8"/>
        <path d="M288.278 491.33C291.918 487.63 297.578 492.6 301.788 492.33C303.751 492.093 305.672 491.588 307.498 490.83C309.894 490.024 312.431 489.727 314.948 489.96C325.228 490.83 335.218 491.58 345.548 490.88C346.648 490.88 346.648 489.09 345.548 489.15C339.976 489.516 334.388 489.593 328.808 489.38C323.148 489.15 317.258 487.77 311.658 488.17C309.447 488.444 307.277 488.989 305.198 489.79C302.427 490.732 299.408 490.629 296.708 489.5C293.418 488.29 289.708 487.3 287.008 490.08C286.869 490.252 286.8 490.47 286.814 490.69C286.829 490.911 286.925 491.118 287.085 491.27C287.245 491.423 287.457 491.509 287.678 491.513C287.899 491.517 288.113 491.437 288.278 491.29V491.33Z" fill="#E8E8E8"/>
        <path d="M179.227 505.36C180.203 504.31 181.376 503.464 182.68 502.869C183.984 502.274 185.392 501.943 186.824 501.895C188.256 501.846 189.684 502.082 191.025 502.587C192.366 503.093 193.594 503.858 194.637 504.84L194.817 503.45C191.912 504.876 188.689 505.534 185.457 505.36C184.367 505.3 184.367 507.03 185.457 507.09C189.012 507.282 192.555 506.544 195.737 504.95C195.856 504.884 195.957 504.791 196.033 504.679C196.109 504.566 196.157 504.438 196.174 504.303C196.19 504.169 196.175 504.032 196.128 503.905C196.082 503.777 196.006 503.663 195.907 503.57C193.466 501.268 190.209 500.029 186.855 500.127C183.5 500.224 180.321 501.65 178.017 504.09C177.267 504.95 178.477 506.16 179.227 505.36Z" fill="#E8E8E8"/>
        <path d="M18.3288 520.94C16.8625 520.807 15.3845 520.975 13.985 521.432C12.5855 521.889 11.2938 522.627 10.1888 523.6C8.80879 524.87 6.84878 527.24 8.63878 528.91C10.6388 530.76 15.5088 529.54 17.8688 529.31C22.1746 528.84 26.4396 528.051 30.6288 526.95C30.8516 526.889 31.041 526.742 31.1554 526.541C31.2698 526.341 31.2998 526.103 31.2388 525.88C31.1778 525.657 31.0308 525.468 30.8301 525.353C30.6295 525.239 30.3916 525.209 30.1688 525.27C25.1054 526.61 19.9249 527.461 14.6988 527.81C13.6988 527.87 12.5588 527.99 11.5188 527.99C8.91878 527.87 10.1388 525.91 11.4088 524.81C12.3467 523.986 13.4479 523.37 14.6404 523.001C15.8328 522.633 17.0897 522.52 18.3288 522.67C19.4888 522.73 19.4288 521 18.3288 520.94Z" fill="#E8E8E8"/>
        <path d="M100.828 473.32C100.868 473.106 100.982 472.914 101.15 472.777C101.319 472.639 101.53 472.566 101.748 472.57L102.908 472.39C103.81 472.295 104.72 472.315 105.618 472.45C107.401 472.688 109.109 473.32 110.618 474.3C110.665 473.776 110.742 473.255 110.848 472.74C108.754 473.476 106.508 473.676 104.318 473.32C103.228 473.14 102.768 474.82 103.858 474.99C106.351 475.403 108.908 475.204 111.308 474.41C111.466 474.363 111.608 474.271 111.716 474.146C111.825 474.021 111.895 473.867 111.919 473.703C111.944 473.539 111.92 473.372 111.853 473.221C111.785 473.07 111.676 472.941 111.538 472.85C110.013 471.846 108.3 471.165 106.503 470.849C104.706 470.532 102.863 470.587 101.088 471.01C99.1876 471.53 97.6876 474.47 100.398 475.01C101.498 475.18 101.958 473.51 100.858 473.28L100.828 473.32Z" fill="#E8E8E8"/>
        <path d="M582.697 411.43C622.058 408.957 661.187 403.63 699.777 395.49C710.917 393.117 722 390.517 733.027 387.69C733.229 387.613 733.396 387.463 733.493 387.27C733.591 387.077 733.614 386.855 733.556 386.646C733.499 386.437 733.366 386.257 733.183 386.142C733 386.026 732.78 385.982 732.567 386.02C694.333 395.804 655.436 402.789 616.187 406.92C605.047 408.067 593.904 408.99 582.757 409.69C581.607 409.74 581.607 411.48 582.697 411.42V411.43Z" fill="#E8E8E8"/>
        <path d="M492.469 453.11C497.543 454.018 502.75 453.882 507.769 452.71C510.889 451.96 513.139 450.71 516.369 451.78C518.295 452.453 520.363 452.612 522.369 452.24C524.665 451.691 526.836 450.714 528.769 449.36C530.909 447.91 533.049 445.89 535.639 445.36C538.639 444.79 541.359 447.15 544.249 447.79C546.323 448.21 548.458 448.23 550.539 447.85C551.639 447.67 551.169 446 550.079 446.17C546.439 446.81 543.609 445.88 540.319 444.44C538.996 443.783 537.524 443.483 536.049 443.57C531.369 444.09 528.139 448.48 523.809 450.04C521.039 451.04 518.809 450.68 516.069 449.81C513.999 449.17 512.489 449.52 510.469 450.16C504.851 451.984 498.879 452.44 493.049 451.49C491.889 451.26 491.369 452.94 492.469 453.11Z" fill="#E8E8E8"/>
        <path d="M206.417 528.22H340.987C341.424 528.187 341.833 527.99 342.131 527.668C342.429 527.346 342.595 526.924 342.595 526.485C342.595 526.046 342.429 525.624 342.131 525.302C341.833 524.98 341.424 524.783 340.987 524.75H206.417C205.979 524.783 205.571 524.98 205.272 525.302C204.974 525.624 204.809 526.046 204.809 526.485C204.809 526.924 204.974 527.346 205.272 527.668C205.571 527.99 205.979 528.187 206.417 528.22Z" fill="#161616"/>
        <path d="M350.628 527.18H366.388C366.825 527.147 367.234 526.95 367.532 526.628C367.83 526.306 367.996 525.884 367.996 525.445C367.996 525.006 367.83 524.584 367.532 524.262C367.234 523.94 366.825 523.743 366.388 523.71H350.628C350.19 523.743 349.782 523.94 349.483 524.262C349.185 524.584 349.02 525.006 349.02 525.445C349.02 525.884 349.185 526.306 349.483 526.628C349.782 526.95 350.19 527.147 350.628 527.18Z" fill="#161616"/>
        <path d="M378.05 526.66H383.13C383.567 526.627 383.976 526.43 384.274 526.108C384.572 525.786 384.738 525.364 384.738 524.925C384.738 524.486 384.572 524.064 384.274 523.742C383.976 523.42 383.567 523.223 383.13 523.19H378.05C377.612 523.223 377.204 523.42 376.905 523.742C376.607 524.064 376.441 524.486 376.441 524.925C376.441 525.364 376.607 525.786 376.905 526.108C377.204 526.43 377.612 526.627 378.05 526.66Z" fill="#161616"/>
        <path d="M61.6894 540.92H161.219C161.657 540.887 162.065 540.69 162.364 540.368C162.662 540.046 162.828 539.624 162.828 539.185C162.828 538.746 162.662 538.324 162.364 538.002C162.065 537.68 161.657 537.483 161.219 537.45H61.6894C59.4994 537.45 59.4994 540.92 61.6894 540.92Z" fill="#161616"/>
        <path d="M170.857 540.92H196.777C197.214 540.887 197.623 540.69 197.921 540.368C198.22 540.046 198.385 539.624 198.385 539.185C198.385 538.746 198.22 538.324 197.921 538.002C197.623 537.68 197.214 537.483 196.777 537.45H170.857C168.657 537.45 168.657 540.92 170.857 540.92Z" fill="#161616"/>
        <path d="M211.5 539.88H213C213.458 539.877 213.896 539.694 214.22 539.37C214.544 539.046 214.727 538.608 214.73 538.15C214.719 537.693 214.534 537.258 214.212 536.934C213.89 536.61 213.456 536.423 213 536.41H211.5C211.04 536.413 210.6 536.597 210.276 536.923C209.951 537.249 209.77 537.69 209.77 538.15C209.782 538.605 209.968 539.038 210.29 539.359C210.612 539.681 211.045 539.867 211.5 539.88Z" fill="#161616"/>
        <path d="M43.4487 541.38H47.0287C47.4876 541.38 47.9276 541.198 48.252 540.873C48.5765 540.549 48.7588 540.109 48.7588 539.65C48.7588 539.191 48.5765 538.751 48.252 538.427C47.9276 538.102 47.4876 537.92 47.0287 537.92H43.4487C42.9899 537.92 42.5499 538.102 42.2255 538.427C41.901 538.751 41.7188 539.191 41.7188 539.65C41.7188 540.109 41.901 540.549 42.2255 540.873C42.5499 541.198 42.9899 541.38 43.4487 541.38Z" fill="#161616"/>
        <path d="M500.929 477.93H640.549C641.008 477.93 641.448 477.748 641.773 477.423C642.097 477.099 642.279 476.659 642.279 476.2C642.279 475.741 642.097 475.301 641.773 474.977C641.448 474.652 641.008 474.47 640.549 474.47H500.929C500.47 474.47 500.03 474.652 499.706 474.977C499.381 475.301 499.199 475.741 499.199 476.2C499.199 476.659 499.381 477.099 499.706 477.423C500.03 477.748 500.47 477.93 500.929 477.93Z" fill="#161616"/>
        <path d="M658.787 475.91H785.217C785.676 475.91 786.116 475.728 786.44 475.403C786.765 475.079 786.947 474.639 786.947 474.18C786.947 473.721 786.765 473.281 786.44 472.957C786.116 472.632 785.676 472.45 785.217 472.45H658.787C656.597 472.45 656.597 475.91 658.787 475.91Z" fill="#161616"/>
        <path d="M796.417 474.87H806.578C807.036 474.87 807.476 474.688 807.801 474.363C808.125 474.039 808.307 473.599 808.307 473.14C808.307 472.681 808.125 472.241 807.801 471.917C807.476 471.592 807.036 471.41 806.578 471.41H796.417C795.959 471.41 795.519 471.592 795.194 471.917C794.87 472.241 794.688 472.681 794.688 473.14C794.688 473.599 794.87 474.039 795.194 474.363C795.519 474.688 795.959 474.87 796.417 474.87Z" fill="#161616"/>
        <path d="M751.738 455.59H780.658C781.117 455.59 781.557 455.408 781.881 455.083C782.206 454.759 782.388 454.319 782.388 453.86C782.388 453.401 782.206 452.961 781.881 452.637C781.557 452.312 781.117 452.13 780.658 452.13H751.738C751.279 452.13 750.839 452.312 750.515 452.637C750.19 452.961 750.008 453.401 750.008 453.86C750.008 454.319 750.19 454.759 750.515 455.083C750.839 455.408 751.279 455.59 751.738 455.59Z" fill="#161616"/>
        <path d="M790.299 455.07H797.399C797.858 455.07 798.298 454.888 798.622 454.563C798.946 454.239 799.129 453.799 799.129 453.34C799.129 452.881 798.946 452.441 798.622 452.117C798.298 451.792 797.858 451.61 797.399 451.61H790.299C788.109 451.61 788.109 455.07 790.299 455.07Z" fill="#161616"/>
        <path d="M472.928 488.09H509.988C510.446 488.09 510.887 487.908 511.211 487.583C511.535 487.259 511.718 486.819 511.718 486.36C511.718 485.901 511.535 485.461 511.211 485.137C510.887 484.812 510.446 484.63 509.988 484.63H472.928C470.738 484.63 470.738 488.09 472.928 488.09Z" fill="#161616"/>
        <path d="M523.237 487.58H538.997C539.434 487.547 539.843 487.35 540.141 487.028C540.44 486.706 540.605 486.284 540.605 485.845C540.605 485.406 540.44 484.984 540.141 484.662C539.843 484.34 539.434 484.143 538.997 484.11H523.237C522.8 484.143 522.391 484.34 522.093 484.662C521.795 484.984 521.629 485.406 521.629 485.845C521.629 486.284 521.795 486.706 522.093 487.028C522.391 487.35 522.8 487.547 523.237 487.58Z" fill="#161616"/>
        <path d="M546.097 496.23H556.777C557.236 496.23 557.676 496.048 558 495.723C558.325 495.399 558.507 494.959 558.507 494.5C558.507 494.041 558.325 493.601 558 493.277C557.676 492.952 557.236 492.77 556.777 492.77H546.097C545.638 492.77 545.198 492.952 544.874 493.277C544.549 493.601 544.367 494.041 544.367 494.5C544.367 494.959 544.549 495.399 544.874 495.723C545.198 496.048 545.638 496.23 546.097 496.23Z" fill="#161616"/>
        <path d="M288.169 67.88C289.949 65.11 294.169 65.28 296.999 65.8C301.729 66.67 306.119 68.51 310.909 66.72C315.529 64.99 318.989 61.24 324.189 61.12C329.619 61.01 334.749 63.37 340.239 63.2C349.819 62.91 358.539 58.2 367.719 55.99C373.014 54.6102 378.573 54.5895 383.879 55.93C389.079 57.26 393.929 59.39 399.119 60.66C404.549 62.05 409.919 61.82 415.399 61.35C421.399 60.89 427.579 60.43 433.009 63.55C432.889 63.2 432.719 62.91 432.609 62.55C429.719 71.03 420.369 74.5 412.109 74.96C401.779 75.54 391.729 71.78 381.339 72.19C370.949 72.6 361.939 79 351.609 79.98C341.049 80.98 331.059 75.98 320.549 76.29C309.869 76.57 295.929 82.6 287.499 73.08C287.439 72.9867 287.359 72.9073 287.266 72.8471C287.173 72.7869 287.068 72.7474 286.958 72.731C286.848 72.7147 286.736 72.722 286.629 72.7524C286.522 72.7829 286.423 72.8357 286.339 72.9075C286.254 72.9793 286.186 73.0683 286.138 73.1686C286.091 73.2689 286.065 73.3782 286.063 73.4892C286.061 73.6002 286.083 73.7103 286.127 73.8122C286.171 73.9141 286.237 74.0054 286.319 74.08C292.959 81.53 303.459 80.2 312.319 78.87C318.616 77.82 325.049 77.8979 331.319 79.1C336.859 80.2 342.399 81.7 348.059 81.82C359.489 82.11 369.129 74.72 380.389 73.97C391.649 73.22 402.789 77.78 414.159 76.51C422.649 75.58 431.479 71.6 434.369 62.94C434.427 62.7516 434.418 62.5489 434.343 62.3664C434.268 62.184 434.132 62.0332 433.959 61.94C423.799 55.99 411.559 61.59 400.649 59.11C394.649 57.72 389.049 55.11 382.989 53.8C377.812 52.7164 372.454 52.8533 367.339 54.2C361.799 55.53 356.549 57.72 351.119 59.4C345.107 61.3932 338.68 61.7895 332.469 60.55C327.339 59.46 322.599 58.55 317.749 61.02C315.499 62.17 313.419 63.73 311.109 64.77C307.189 66.5 303.439 65.46 299.449 64.48C295.239 63.48 288.889 62.8 286.519 67.48C285.019 70.48 285.749 73.58 286.349 74.06C287.349 74.29 289.349 75.26 287.559 72.85C287.529 72.9 286.929 69.84 288.169 67.88Z" fill="#E8E8E8"/>
        <path fill-rule="evenodd" clip-rule="evenodd" d="M231.777 27.18L235.077 14.6L247.657 17.9L246.827 21.08L237.427 18.62L234.967 28.02L231.777 27.18Z" fill="#D8002C"/>
        <path fill-rule="evenodd" clip-rule="evenodd" d="M114.918 291.53L118.218 278.95L130.798 282.25L129.968 285.43L120.568 282.97L118.098 292.37L114.918 291.53Z" fill="#161616"/>
        <path fill-rule="evenodd" clip-rule="evenodd" d="M157.438 122.44L144.488 121.18L145.748 108.24L149.028 108.56L148.088 118.23L157.758 119.17L157.438 122.44Z" fill="#FF8038"/>
        <path fill-rule="evenodd" clip-rule="evenodd" d="M145.26 129.54L132.32 128.28L133.58 115.34L136.85 115.66L135.91 125.33L145.58 126.27L145.26 129.54Z" fill="#FF8038"/>
        <path fill-rule="evenodd" clip-rule="evenodd" d="M291.039 300.35L300.239 291.15L309.429 300.35L307.109 302.68L300.239 295.81L293.369 302.68L291.039 300.35Z" fill="#FF8038"/>
        <path fill-rule="evenodd" clip-rule="evenodd" d="M293.289 286.43L302.489 277.24L311.689 286.43L309.359 288.76L302.489 281.89L295.619 288.76L293.289 286.43Z" fill="#FF8038"/>
        <path fill-rule="evenodd" clip-rule="evenodd" d="M311.379 192.37L313.579 177.1L328.859 179.3L328.299 183.16L316.889 181.52L315.249 192.93L311.379 192.37Z" fill="#161616"/>
        <path fill-rule="evenodd" clip-rule="evenodd" d="M301.629 177.55L303.829 162.28L319.109 164.48L318.549 168.34L307.139 166.7L305.499 178.11L301.629 177.55Z" fill="#161616"/>
        <path fill-rule="evenodd" clip-rule="evenodd" d="M600.378 28.88L597.438 13.73L612.588 10.79L613.328 14.62L602.018 16.82L604.217 28.13L600.378 28.88Z" fill="#161616"/>
        <path fill-rule="evenodd" clip-rule="evenodd" d="M586.299 18.09L583.359 2.94L598.509 0L599.249 3.83L587.939 6.03L590.139 17.34L586.299 18.09Z" fill="#161616"/>
        <path fill-rule="evenodd" clip-rule="evenodd" d="M775.57 156.69L786.48 145.78L797.39 156.69L794.63 159.45L786.48 151.3L778.33 159.45L775.57 156.69Z" fill="#161616"/>
        <path d="M226.509 238.12C231.649 236.12 240.65 246.73 245.1 253.65C251.91 264.1 253.01 273.22 256.36 294.35C257.63 302.55 259.7 315.54 262.53 331.93C266.255 335.397 268.936 339.838 270.27 344.75C271.27 348.62 271.6 353.58 270.27 354.05C268.94 354.52 266.27 349.72 265.27 350.18C263.88 350.81 268.379 358.61 265.669 362.18C262.959 365.75 252.51 365.23 247.08 359.87C242 354.87 244.02 348.44 243.21 333.14C242.92 327.94 242.119 313.8 237.789 299.83C232.479 282.83 226.929 281.93 223.789 266.83C221.599 256.25 220.929 240.26 226.509 238.12Z" fill="white" stroke="#161616" stroke-width="1.15" stroke-miterlimit="10"/>
        <path opacity="0.15" d="M234.13 253.02C237.3 252.32 242.85 266.7 243.19 267.51C248.27 280.79 245.85 286.44 248.1 306.01C249.95 321.95 250.99 331.01 256.1 342.21C261.1 352.95 266.84 359.21 264.65 362.13C262.46 365.05 253.85 362.24 247.1 359.53C246.167 357.435 245.394 355.272 244.79 353.06C243.469 348.269 242.866 343.308 243 338.34C243 336.9 242.94 320.16 239.65 305.55C237.86 297.76 237.05 298.91 234.98 290.83C230.44 273.28 230.61 253.77 234.13 253.02Z" fill="#6D6C6C"/>
        <path opacity="0.17" d="M241.929 280.96C242.569 286.96 243.379 295.91 243.719 306.82C244.239 323.62 243.429 337.59 242.969 337.59C242.509 337.59 243.089 327.59 240.889 313.81C239.735 306.543 237.999 299.38 235.699 292.39C237.109 290.994 238.333 289.42 239.339 287.71C240.546 285.607 241.419 283.33 241.929 280.96Z" fill="#6D6C6C"/>
        <path d="M237.933 485.73C236.433 488.5 236.203 491.5 239.663 517.65C240.073 520.89 240.473 523.54 240.663 525.39C252.6 527.239 264.722 527.575 276.743 526.39C285.693 525.52 296.143 524.54 296.743 521.13C297.203 518.36 291.143 513.4 263.433 503.93C262.163 494.69 260.833 485.46 259.563 476.22C243.373 477.36 239.153 483.59 237.933 485.73Z" fill="#161616"/>
        <path d="M203.132 321.14C208.562 328.53 216.292 339.14 225.352 352.14C246.832 382.85 257.572 398.21 261.352 408.48C272.432 438.91 269.552 468.48 268.452 478.48C267.822 484.25 267.012 488.99 266.372 492.22C255.083 496.538 242.833 497.706 230.932 495.6C229.435 486.907 228.433 478.137 227.932 469.33C227.255 456.674 227.68 443.983 229.202 431.4C217.619 422.549 207.417 412.023 198.932 400.17C183.352 378.17 179.192 359.17 176.712 346.89C173.182 329.89 175.612 325.3 177.862 322.89C185.412 315.08 201.692 320.68 203.132 321.14Z" fill="white" stroke="#161616" stroke-width="1.15" stroke-miterlimit="10"/>
        <path opacity="0.19" d="M204.8 369.86C212.729 376.566 219.841 384.182 225.99 392.55C228.07 395.44 236.67 407.73 244.23 427.48C254.62 454.84 255.49 480.36 255.03 494.79C251.682 495.998 248.188 496.755 244.64 497.04C240.119 497.372 235.576 496.864 231.24 495.54C229.145 482.751 228.038 469.819 227.93 456.86C227.93 447.51 228.28 438.79 229.03 430.86C227.59 430.05 199.7 414.35 200.03 388.08C200.147 381.714 201.783 375.467 204.8 369.86Z" fill="#6D6C6C"/>
        <path opacity="0.15" d="M212.251 414.08C213.521 412.35 229.401 417.2 235.691 428.98C240.421 437.81 236.611 444.62 236.791 457.21C236.901 466.62 239.331 480.01 249.791 496.21L231.551 495.87C229.651 483.828 228.525 471.676 228.181 459.49C227.919 449.69 228.169 439.884 228.931 430.11C225.99 428.573 223.24 426.693 220.741 424.51C217.331 421.49 211.331 415.35 212.251 414.08Z" fill="#6D6C6C"/>
        <path d="M135.929 481.17C131.539 484 130.789 487.92 126.809 496.58C123.074 504.686 118.609 512.434 113.469 519.73C118.664 525.596 124.986 530.357 132.059 533.73C144.239 539.5 161.329 542.27 163.989 537.25C166.819 531.82 151.989 518.95 147.529 515.14C148.749 512.43 150.709 508.14 153.129 502.84C159.539 489.1 160.809 487.08 159.769 484.6C157.349 478.74 143.929 476.09 135.929 481.17Z" fill="#161616"/>
        <path d="M154.46 308.09C151 317.62 147.46 327.09 144.01 336.61C138.3 353.12 140.78 364.55 142.63 370.04C144.63 376.1 148.17 381.29 155.15 391.63C160.58 399.63 165.49 406 169.07 410.45C149.144 431.064 134.364 456.089 125.93 483.49C130.58 487.028 135.734 489.849 141.22 491.86C147.251 494.075 153.615 495.248 160.04 495.33C171.183 486.8 181.027 476.695 189.26 465.33C197.26 454.33 208.08 439.46 211.54 418.68C217.43 383.29 198.2 354.48 191.33 344.21C181.614 329.796 169.07 317.508 154.46 308.09Z" fill="white" stroke="#161616" stroke-width="1.15" stroke-miterlimit="10"/>
        <path d="M178.768 328.88C183.208 335.05 187.598 341.29 191.768 347.58C192.288 347.29 192.768 347 193.268 346.71C189.497 341.663 186.152 336.312 183.268 330.71L182.048 331.92C184.418 333.54 185.748 335.97 187.188 338.33C188.868 341.1 190.598 343.87 192.268 346.65C195.558 352.01 198.848 357.44 202.148 362.81C202.658 362.52 203.148 362.23 203.648 361.94C198.648 354.09 193.648 346.24 188.518 338.39C187.938 337.47 186.438 338.33 187.018 339.26C193.248 349.65 199.548 359.98 205.778 370.37C205.835 370.468 205.91 370.555 206 370.624C206.09 370.694 206.193 370.745 206.302 370.774C206.412 370.804 206.526 370.812 206.639 370.797C206.751 370.783 206.86 370.746 206.958 370.69C207.057 370.633 207.143 370.558 207.213 370.468C207.282 370.378 207.333 370.276 207.363 370.166C207.392 370.057 207.4 369.942 207.386 369.83C207.371 369.717 207.335 369.608 207.278 369.51C202.718 361.77 198.218 353.98 193.658 346.24L192.268 347.24C198.798 354.46 199.948 364.96 207.048 371.72C207.858 372.47 209.048 371.26 208.258 370.51C201.158 363.81 200.008 353.24 193.488 346.03C192.788 345.28 191.638 346.26 192.098 347.03C196.658 354.76 201.158 362.56 205.718 370.29L207.228 369.43C200.988 359.04 194.698 348.7 188.458 338.31C187.938 338.6 187.458 338.89 186.958 339.18C191.978 347.033 197.022 354.883 202.088 362.73C202.658 363.65 204.168 362.79 203.588 361.86C199.888 355.8 196.198 349.74 192.498 343.74C189.788 339.23 187.308 333.4 182.808 330.34C182.048 329.82 181.248 330.81 181.588 331.56C184.468 337.164 187.813 342.516 191.588 347.56C192.228 348.42 193.728 347.61 193.088 346.69C188.878 340.34 184.548 334.11 180.088 327.99C179.628 326.99 178.088 327.87 178.768 328.8V328.88Z" fill="white"/>
        <path opacity="0.2" d="M182.398 331.42C177.991 337.682 174.945 344.798 173.458 352.31C167.928 380.83 191.058 393.49 185.928 418.49C183.208 431.65 176.338 430.44 160.988 457.81C154.79 468.834 149.535 480.362 145.278 492.27C141.122 490.994 137.054 489.451 133.098 487.65C130.558 486.5 128.198 485.34 126.098 484.13C134.901 456.736 149.51 431.564 168.928 410.33C166.678 407.45 163.328 403.06 159.468 397.57C148.788 382.45 143.358 374.71 141.568 365.82C139.568 356.01 141.218 347.64 142.378 341.98C143.778 335.086 146.134 328.422 149.378 322.18C160.348 325.24 171.378 328.36 182.398 331.42Z" fill="#6D6C6C"/>
        <path opacity="0.17" d="M168.838 327.89C162.308 335.34 153.768 347.58 154.458 362.36C155.458 385.51 178.358 394.36 175.068 413.36C174.148 418.62 166.868 427.05 152.268 443.73C144.268 452.91 137.428 460.24 132.758 465.15C137.117 454.49 142.573 444.312 149.038 434.78C154.804 426.258 161.335 418.278 168.548 410.94C166.758 408.23 163.548 403.38 159.548 397.37C145.688 376.49 142.928 373.15 141.418 365.88C139.568 357.34 140.778 350.12 141.698 344.75C143.037 336.859 145.694 329.25 149.558 322.24C155.928 324.08 162.428 325.99 168.838 327.89Z" fill="#6D6C6C"/>
        <path d="M198.682 227.49C182.456 237.007 169.174 250.821 160.302 267.408C151.429 283.995 147.312 302.711 148.402 321.49C151.232 322.41 154.122 323.33 157.062 324.2C175.641 329.755 194.611 333.904 213.812 336.61C215.312 331.47 216.932 326.28 218.662 320.91C221.262 312.997 223.956 305.433 226.742 298.22C236.322 293.22 239.672 286.85 240.742 284.22C245.182 273.83 240.972 262.98 236.412 251.22C233.872 244.64 232.542 241.29 229.412 237.71C219.472 226.49 203.072 227.15 198.682 227.49Z" fill="#FF8038"/>
        <path d="M218.142 241.13C202.382 243.2 193.952 250.36 190.542 253.71C171.322 272.71 177.962 304.71 179.752 313.4C181.057 319.683 183.049 325.803 185.692 331.65C173.512 328.36 161.392 325.01 149.212 321.72C147.572 302.989 151.32 284.18 160.013 267.509C168.707 250.837 181.985 236.997 198.282 227.62C199.382 227.67 200.472 227.79 201.572 227.85C203.466 230.066 205.532 232.13 207.752 234.02C210.924 236.79 214.411 239.176 218.142 241.13Z" fill="#E56525"/>
        <path opacity="0.2" d="M167.621 255.62C162.812 280.766 166.554 306.797 178.251 329.57C168.321 327.03 158.331 324.49 148.401 322.01C147.026 298.333 153.81 274.9 167.621 255.62Z" fill="#6D6C6C"/>
        <path d="M655.67 446.36C653.031 452.443 652.212 459.161 653.31 465.7C662.621 469.829 672.446 472.681 682.52 474.18C685.06 474.59 716.46 479.03 719.52 470.43C720.27 468.29 719.06 466.1 717.85 463.96C711.1 452.13 694.01 451.44 691.7 451.38C691.06 439.08 683.15 429.96 675.07 429.33C663.64 428.49 656.48 444.57 655.67 446.36Z" fill="#161616"/>
        <path d="M670.681 247.76C681.363 263.093 689.764 279.894 695.621 297.64C707.571 333.96 705.621 364.44 704.281 381.7C702.659 402.958 698.289 423.916 691.281 444.05C688.921 445.55 678.471 451.78 665.281 448.95C659.421 447.669 654.004 444.861 649.581 440.81C656.082 426.561 660.291 411.373 662.051 395.81C664.411 374.81 661.531 358.35 657.721 337.22C649.061 289.48 637.111 271.35 647.441 258.01C652.381 251.49 660.871 248.63 670.681 247.76Z" fill="white" stroke="#161616" stroke-width="1.15" stroke-miterlimit="10"/>
        <path opacity="0.16" d="M674.779 274.15C679.199 295.71 681.96 317.578 683.039 339.56C684.805 376.303 681.895 413.121 674.379 449.13C669.04 449.818 663.616 448.913 658.789 446.53C655.636 444.922 652.832 442.706 650.539 440.01C656.167 427.201 659.825 413.614 661.389 399.71C663.009 384.71 661.679 372.71 659.199 350.35C657.749 337.25 656.079 326.51 654.869 319.18C661.509 304.22 668.139 289.16 674.779 274.15Z" fill="#6D6C6C"/>
        <path opacity="0.22" d="M662.141 302.9C670.413 324.507 673.811 347.673 672.095 370.745C670.378 393.817 663.589 416.225 652.211 436.37C663.531 403.69 664.101 383.66 662.371 371.25C661.911 368.07 659.951 355.49 657.701 336.96C656.771 329.28 656.081 322.96 655.701 318.96C657.871 313.58 660.001 308.21 662.141 302.9Z" fill="#6D6C6C"/>
        <path d="M572.14 421.36C567.35 423.73 565.9 427.59 559.32 440.12C554.94 448.43 551.24 455.12 548.82 459.35C559.247 466.903 571.053 472.339 583.57 475.35C592.81 477.54 612.03 480.6 614.22 475.35C616.65 469.52 596.91 456.06 588.59 450.64C597.14 442.32 597.59 430.26 591.77 424.08C586.86 418.82 577.93 418.49 572.14 421.36Z" fill="#161616"/>
        <path d="M655.852 246.55C674.902 263.35 652.622 319.35 634.312 364.15C623.106 391.582 610.27 418.32 595.872 444.22C588.001 445.329 579.982 443.889 572.989 440.11C565.996 436.331 560.397 430.412 557.012 423.22C563.795 411.446 569.756 399.217 574.852 386.62C577.282 380.67 587.732 354.11 593.612 316.62C596.585 297.545 597.957 278.254 597.712 258.95C601.122 255.48 620.112 236.84 642.572 241.11C645.982 241.7 651.582 242.8 655.852 246.55Z" fill="white" stroke="#161616" stroke-width="1.15" stroke-miterlimit="10"/>
        <path d="M662.032 269.64C661.972 271.64 661.912 273.69 661.912 275.71H663.642C663.354 272.545 663.529 269.355 664.162 266.24C663.582 266.18 663.012 266.06 662.492 266.01C662.832 272.82 661.272 280.01 660.062 286.67C658.832 293.414 657.253 300.09 655.332 306.67C655.912 306.84 656.432 306.96 657.002 307.13C660.182 295.13 662.832 283.06 665.002 270.82C665.172 269.72 663.502 269.26 663.322 270.35C661.135 282.537 658.468 294.643 655.322 306.67C655.284 306.883 655.328 307.103 655.443 307.286C655.559 307.469 655.739 307.602 655.948 307.659C656.156 307.717 656.379 307.695 656.572 307.597C656.765 307.499 656.915 307.332 656.992 307.13C659.01 300.192 660.659 293.152 661.932 286.04C663.082 279.57 664.592 272.59 664.242 266.04C664.182 265.11 662.742 264.82 662.562 265.81C661.883 269.074 661.691 272.42 661.992 275.74C662.015 275.953 662.116 276.151 662.275 276.294C662.435 276.438 662.642 276.517 662.857 276.517C663.071 276.517 663.278 276.438 663.438 276.294C663.598 276.151 663.699 275.953 663.722 275.74C663.782 273.74 663.832 271.69 663.832 269.67C663.832 269.434 663.738 269.208 663.571 269.041C663.404 268.874 663.178 268.78 662.942 268.78C662.706 268.78 662.479 268.874 662.312 269.041C662.145 269.208 662.052 269.434 662.052 269.67L662.032 269.64Z" fill="white"/>
        <path d="M654.689 303.07C654.749 307.51 654.869 311.96 654.919 316.41C654.919 316.641 655.01 316.862 655.173 317.025C655.337 317.188 655.558 317.28 655.789 317.28C656.019 317.28 656.241 317.188 656.404 317.025C656.567 316.862 656.659 316.641 656.659 316.41C656.599 311.96 656.479 307.51 656.429 303.07C656.369 301.92 654.639 301.92 654.689 303.07Z" fill="white"/>
        <path opacity="0.19" d="M630.679 264.49C630.905 279.84 629.609 295.175 626.809 310.27C623.169 329.72 617.629 344.79 609.549 367.48C602.969 386.07 599.789 391.61 593.099 412.22C588.999 424.74 586.099 435.22 584.259 442.29C578.341 441.515 572.719 439.24 567.929 435.68C563.428 432.304 559.789 427.911 557.309 422.86C565.856 407.887 573.089 392.202 578.929 375.98C592.149 339.21 595.269 307.23 597.059 287.54C597.809 279.34 598.209 272.54 598.389 268.09C609.139 266.87 619.929 265.72 630.679 264.49Z" fill="#6D6C6C"/>
        <path opacity="0.24" d="M624.731 266.18C621.189 281.912 616.578 297.385 610.931 312.49C607.591 321.49 602.451 333.62 592.231 357.81C588.481 366.76 586.571 371.2 585.651 373.22C577.53 391.27 567.751 408.527 556.441 424.77C583.097 377.21 597.332 323.698 597.831 269.18C597.771 269.12 597.771 269.12 624.731 266.18Z" fill="#6D6C6C"/>
        <path d="M642.931 124.22C644.253 127.469 646.108 130.473 648.421 133.11C650.551 135.54 653.271 138.65 657.311 139.87C665.161 142.29 672.781 136.06 673.821 135.19C681.441 139.69 689.041 144.193 696.621 148.7C697.606 162.165 696.616 175.702 693.681 188.88C690.161 204.64 686.751 206.55 683.981 221.88C679.771 244.88 682.881 265.35 681.841 265.41C681.671 265.41 681.441 264.95 680.981 262.47L591.791 269.22C590.921 251.38 591.031 236.37 591.381 225.29C591.841 207.97 593.231 187.01 599.001 162.71C603.101 145.33 606.331 139.44 611.241 134.83C621.931 124.68 636.451 124.05 642.931 124.22Z" fill="#D8002C"/>
        <path d="M677.381 137.27C676.381 147.83 674.551 163.54 671.031 182.36C670.031 188.01 667.031 203.6 664.681 211.22C661.791 220.57 650.541 247.3 595.461 269.01C612.261 267.01 629.581 265.31 647.301 263.87C658.391 262.95 669.361 262.14 680.151 261.5C690.612 224.317 695.287 185.745 694.011 147.14L677.381 137.27Z" fill="#C60028"/>
        <path d="M653.599 89.49C651.599 99.82 650.649 111.25 642.279 123.9C641.129 125.63 640.149 126.96 639.449 127.82C640.149 129.21 647.449 143.41 663.059 145.54C669.468 146.323 675.959 145.052 681.599 141.91C681.107 137.829 681.01 133.71 681.309 129.61C681.696 123.853 682.821 118.17 684.659 112.7L704.659 110.1C705.989 107.1 707.259 104.21 708.579 101.21L714.069 101.03C712.679 97.03 710.599 90.59 708.179 82.68C703.679 67.78 703.729 65.68 701.309 62.3C694.609 53.12 679.599 47.3 669.729 52.19C660.239 56.85 657.349 70.19 653.599 89.49Z" fill="white" stroke="#161616" stroke-width="1.15" stroke-miterlimit="10"/>
        <path d="M713.808 100.21C710.543 100.253 707.28 100.039 704.048 99.57C702.958 99.4 702.488 101.07 703.588 101.25C706.97 101.765 710.388 101.996 713.808 101.94C714.022 101.917 714.219 101.816 714.362 101.656C714.506 101.497 714.585 101.29 714.585 101.075C714.585 100.86 714.506 100.653 714.362 100.494C714.219 100.334 714.022 100.233 713.808 100.21Z" fill="#161616"/>
        <path d="M716.119 73.7101C714.726 72.9388 713.095 72.7164 711.546 73.0864C709.998 73.4565 708.643 74.3923 707.749 75.7101C707.109 76.6301 708.609 77.5001 709.249 76.5701C709.913 75.6533 710.887 75.0083 711.991 74.7546C713.094 74.5008 714.251 74.6556 715.249 75.1901C716.249 75.7101 717.099 74.1901 716.119 73.6901V73.7101Z" fill="#161616"/>
        <path d="M714.618 84.1C714.952 82.8028 714.806 81.4285 714.208 80.2301C713.748 79.3701 712.768 78.3301 711.668 78.7901C710.568 79.2501 710.578 80.87 710.808 81.85C711.038 83.0613 711.668 84.1601 712.598 84.97C712.725 85.0843 712.883 85.1598 713.052 85.1877C713.22 85.2156 713.394 85.1947 713.551 85.1275C713.709 85.0603 713.844 84.9496 713.941 84.8083C714.037 84.6671 714.092 84.5012 714.098 84.33C714.073 82.938 713.731 81.5699 713.098 80.33C712.628 79.33 711.098 80.2101 711.598 81.2001C712.047 82.1784 712.301 83.2346 712.348 84.3101C712.868 84.0801 713.348 83.9101 713.848 83.6801C713.405 83.304 713.05 82.8347 712.81 82.3057C712.57 81.7767 712.449 81.201 712.458 80.6201C712.518 80.5001 712.458 80.39 712.288 80.39C712.412 80.4546 712.513 80.5558 712.578 80.6801C712.766 80.9375 712.902 81.2298 712.978 81.5401C713.193 82.1865 713.214 82.8819 713.038 83.5401C712.981 83.6458 712.947 83.7624 712.94 83.8821C712.932 84.0018 712.95 84.1219 712.992 84.2341C713.034 84.3463 713.1 84.4482 713.185 84.5328C713.27 84.6174 713.373 84.6829 713.485 84.7247C713.597 84.7665 713.718 84.7837 713.837 84.7752C713.957 84.7667 714.073 84.7327 714.179 84.6754C714.284 84.6181 714.376 84.5389 714.448 84.4431C714.521 84.3473 714.572 84.2372 714.598 84.1201L714.618 84.1Z" fill="#161616"/>
        <path d="M699.378 76.02C697.761 75.5115 696.021 75.546 694.425 76.1184C692.829 76.6907 691.464 77.7695 690.538 79.19C689.908 80.12 691.408 80.98 692.038 80.06C692.767 78.9637 693.837 78.1377 695.082 77.7094C696.327 77.2811 697.679 77.2743 698.928 77.69C699.143 77.7331 699.366 77.6934 699.553 77.5789C699.74 77.4645 699.877 77.2837 699.936 77.0727C699.996 76.8617 699.973 76.636 699.874 76.4409C699.774 76.2457 699.604 76.0954 699.398 76.02H699.378Z" fill="#161616"/>
        <path d="M700.3 85.66C700.42 84.1 699.78 81.66 698.16 81.04C696.03 80.17 696.03 83.18 696.26 84.45C696.49 85.72 697.59 88.08 699.32 87.1C699.623 86.913 699.848 86.623 699.955 86.2832C700.061 85.9434 700.042 85.5766 699.9 85.25C699.49 84.16 698.9 83.18 698.4 82.14C697.93 82.48 697.47 82.83 697.01 83.14C697.247 83.349 697.408 83.6301 697.47 83.94C697.531 84.1628 697.678 84.3522 697.879 84.4666C698.079 84.581 698.317 84.611 698.54 84.55C698.763 84.489 698.952 84.342 699.066 84.1414C699.181 83.9407 699.211 83.7028 699.15 83.48C698.984 82.8867 698.663 82.3482 698.22 81.92C698.069 81.7956 697.882 81.7247 697.687 81.7184C697.492 81.7122 697.3 81.7709 697.142 81.8854C696.984 81.9999 696.869 82.1637 696.814 82.351C696.759 82.5382 696.768 82.7384 696.84 82.92C697.07 83.33 697.24 83.73 697.47 84.19C697.622 84.6414 697.838 85.069 698.11 85.46C698.22 85.87 698.34 85.87 698.51 85.46L698.28 85.06C698.105 84.7144 697.987 84.343 697.93 83.96C697.923 83.5744 697.886 83.1899 697.82 82.81C697.88 82.58 697.82 82.52 697.76 82.81C697.899 82.9671 698.017 83.142 698.11 83.33C698.492 84.0364 698.652 84.8413 698.57 85.64C698.45 86.64 700.18 86.64 700.3 85.58V85.66Z" fill="#161616"/>
        <path d="M703.648 65.97C702.925 61.2947 701.254 56.8164 698.738 52.8101C696.812 49.5667 694.239 46.7549 691.178 44.5501C683.668 39.5501 672.178 39.9901 663.698 46.0601C655.498 52.0001 651.398 62.68 653.188 73.25L703.648 65.97Z" fill="#FF8038"/>
        <path d="M731.238 60.43L653.538 70.3C650.248 70.71 650.248 75.9 653.538 75.5L731.238 65.63C734.478 65.22 734.528 60.03 731.238 60.43Z" fill="#161616"/>
        <path d="M669.991 72.5501C674.551 74.2301 677.211 77.4001 680.331 81.2101C686.851 89.2101 684.891 92.1201 689.501 97.0901C696.781 105 704.171 100.32 710.691 108.09C716.231 114.67 715.481 123.56 715.251 125.52C715.021 127.48 714.041 135.39 707.631 140.82C702.091 145.5 694.531 146.59 694.071 145.55C693.891 145.15 694.531 144.23 698.631 141.46C696.974 142.641 695.08 143.446 693.081 143.82C690.261 144.34 687.601 143.82 687.541 143.42C687.481 143.02 689.041 143.13 690.201 141.86C690.789 141.187 691.186 140.369 691.351 139.49C689.101 140.99 686.211 142.26 683.501 141.49C676.111 139.23 674.781 122.67 674.321 117.18C672.941 99.4001 678.021 89.7001 671.841 83.4701C671.321 82.9501 668.841 80.4101 666.121 80.9301C662.661 81.5601 660.001 86.9901 661.121 90.5701C662.121 93.6301 665.561 94.4901 665.331 95.0701C664.991 95.8201 659.161 94.6701 654.251 90.7401C652.461 89.3001 651.021 88.1401 650.251 86.0101C648.921 82.3101 650.481 78.1001 652.561 75.6201C656.931 70.3601 665.031 70.7101 669.991 72.5501Z" fill="#161616" stroke="#161616" stroke-width="1.15" stroke-miterlimit="10"/>
        <path opacity="0.22" d="M663.118 95.4901C664.218 95.6101 665.778 95.6701 665.888 95.2601C665.948 95.0901 665.548 94.8 665.548 94.8C666.295 95.7361 667.327 96.4031 668.488 96.7001C669.151 96.7737 669.82 96.6335 670.398 96.3C666.962 103.493 664.129 110.959 661.928 118.62C659.629 126.508 658.026 134.582 657.138 142.75C653.355 141.564 649.859 139.608 646.868 137.006C643.877 134.404 641.456 131.212 639.758 127.63C642.451 123.592 644.697 119.273 646.458 114.75C647.548 111.87 647.958 109.96 649.918 103.38C651.538 98.0701 652.808 93.6801 653.668 90.6801C654.326 91.2794 655.02 91.8371 655.748 92.3501C657.901 93.9998 660.436 95.0798 663.118 95.4901Z" fill="#6D6C6C"/>
        <path d="M681.769 41.4901C678.559 42.0815 675.619 43.6728 673.368 46.0366C671.117 48.4003 669.672 51.4152 669.239 54.6501C668.319 62.2701 673.919 67.4701 674.439 67.9301C667.279 68.7901 660.119 69.7201 652.959 70.5801C652.795 68.365 652.872 66.1386 653.189 63.9401C654.12 58.3533 656.692 53.1699 660.579 49.0501C662.259 47.3201 668.139 41.7201 676.859 41.2001C678.501 41.121 680.147 41.2182 681.769 41.4901Z" fill="#E56525"/>
        <path d="M213.75 394.57C237.65 373.33 261.667 352.22 285.8 331.24C331.294 291.7 377.207 252.657 423.54 214.11C417.827 197.323 415.935 179.472 418 161.86C418.87 154.65 426.26 101.48 475 74C479 71.69 535 41.44 587.4 74.8C621.98 96.8 639.88 136.92 635.66 176.12C629.43 234.37 577.66 260.18 574.66 261.62C537.37 279.4 492.51 274.15 459.081 248.17C408.861 289.503 358.734 330.913 308.7 372.4C286.76 390.593 264.86 408.8 243 427.02C229.362 420.465 218.849 408.81 213.73 394.57H213.75Z" fill="#161616"/>
        <path d="M187.43 256.49C191.58 255.97 197.82 255.91 202.38 259.61C212.19 267.61 204.63 284.89 209.48 303.2C212.08 313.01 218.95 326.2 238.92 339.33C246.83 343.33 253.41 346.33 257.97 348.4C264.5 351.34 268.65 353.02 268.59 355.27C268.53 357.52 264.44 359.19 261.49 360.17C265.02 363.47 266.8 367.62 265.59 370.8C264.67 373.28 262.13 374.49 259.3 375.88C256.449 377.213 253.379 378.013 250.24 378.24C244.41 378.99 241.52 379.34 238.86 378.24C234.76 376.51 232.92 372.7 230.2 367.24C228.079 362.898 226.62 358.264 225.87 353.49C216.626 349.238 208.127 343.525 200.7 336.57C197.07 333.17 163.35 300.84 173.97 272.9C175.59 268.95 179 262.6 187.43 256.49Z" fill="white" stroke="#161616" stroke-width="1.15" stroke-miterlimit="10"/>
        <path d="M239.04 371.08C240.48 374.252 242.703 377.005 245.5 379.08C246.37 379.78 247.23 378.27 246.37 377.58C243.846 375.661 241.841 373.142 240.54 370.25C240.08 369.25 238.54 370.13 239.04 371.12V371.08Z" fill="#161616"/>
        <path d="M245.93 370.15C247.683 373.486 250.27 376.311 253.44 378.35C254.36 378.93 255.23 377.43 254.31 376.85C251.364 374.997 248.97 372.386 247.38 369.29C246.92 368.29 245.38 369.17 245.93 370.15Z" fill="#161616"/>
        <path d="M253.238 366.23C254.866 369.628 257.618 372.359 261.028 373.96C262.028 374.42 262.938 372.96 261.898 372.46C258.75 371.011 256.214 368.496 254.738 365.36C254.218 364.36 252.738 365.19 253.238 366.23Z" fill="#161616"/>
        <path opacity="0.2" d="M188.87 256.6C186.978 264.985 186.491 273.626 187.43 282.17C190.6 309.65 208.38 327.78 211.33 330.72C225.99 345.27 235.57 343.31 241.4 356.3C242.96 359.76 245.73 367.61 253.24 371.71C255.596 372.951 258.157 373.754 260.8 374.08C259.358 375.233 257.767 376.185 256.07 376.91C252.49 378.47 249.37 378.52 244.46 378.58C240.83 378.64 238.98 378.64 237.36 377.89C234.732 376.548 232.712 374.256 231.71 371.48C229.4 365.24 227.14 359.01 224.84 352.78C213.58 347 197.64 336.73 185.06 319.12C179.81 311.79 171.06 299.2 171.78 284.12C171.987 279.693 173.025 275.344 174.84 271.3C177.926 265.096 182.817 259.971 188.87 256.6Z" fill="#6D6C6C"/>
        <path opacity="0.32" d="M172.532 287.6C172.882 287.48 175.072 294.41 179.402 302.49C189.972 322.49 205.212 334.71 216.122 343.25C221.122 347.12 225.301 350 227.951 351.79C230.516 356.045 232.589 360.578 234.132 365.3C235.052 368.13 235.572 370.67 237.712 373.3C239.583 375.677 242.025 377.542 244.812 378.72C242.609 378.836 240.41 378.421 238.402 377.51C233.672 375.32 231.592 370.76 229.402 365.91C227.638 361.998 226.432 357.858 225.822 353.61C195.682 338.37 184.372 319.15 180.092 310.03C175.712 300.7 172.072 287.83 172.532 287.6Z" fill="#6D6C6C"/>
        <path d="M220.331 203.77C216.231 205.39 218.661 213.47 212.081 220.77C209.379 223.685 205.984 225.869 202.211 227.12C204.988 231.269 208.649 234.752 212.931 237.32C216.15 239.279 219.687 240.664 223.381 241.41C224.251 239.86 225.691 237.41 227.481 234.54C233.891 224.44 236.201 223.34 236.541 220C237.421 211.8 225.591 201.7 220.331 203.77Z" fill="white" stroke="#161616" stroke-width="1.15" stroke-miterlimit="10"/>
        <path d="M219.578 219.36C221.948 224.09 224.428 228.77 228.358 232.41C229.158 233.16 230.358 231.95 229.568 231.2C225.758 227.67 223.388 223.06 221.078 218.5C220.558 217.5 219.078 218.38 219.578 219.36Z" fill="#161616"/>
        <path d="M217.85 216.24C220.51 221.44 223.39 226.58 228.47 229.75C228.653 229.832 228.858 229.849 229.052 229.798C229.245 229.746 229.415 229.63 229.533 229.467C229.65 229.305 229.708 229.108 229.697 228.908C229.686 228.708 229.606 228.518 229.47 228.37C227.8 226.58 226.07 224.79 224.47 223L223.26 224.21C224.22 225.257 225.282 226.205 226.43 227.04C227.103 227.384 227.742 227.789 228.34 228.25C228.68 228.83 228.34 229.75 228.16 230.33C228.74 230.5 229.26 230.62 229.84 230.79C229.9 230.5 229.9 230.21 229.95 229.98C230.07 229.23 229.14 228.42 228.51 229.12C228.526 228.475 228.322 227.843 227.93 227.33C227.41 227.62 226.93 227.91 226.43 228.19C227.07 229.06 227.7 229.93 228.34 230.79L229.72 229.79C229.226 229.233 228.781 228.634 228.39 228C227.87 227.25 226.39 227.71 226.84 228.7C227.081 229.307 227.418 229.871 227.84 230.37C228.53 231.24 229.74 230.02 229.05 229.16C228.88 228.87 228.7 228.58 228.53 228.23L226.97 228.93C227.49 229.68 227.97 230.37 228.59 231.06C229.21 231.75 230.59 230.83 229.97 230.06L228.07 227.47C227.944 227.297 227.758 227.178 227.549 227.133C227.34 227.089 227.122 227.123 226.936 227.23C226.751 227.336 226.611 227.507 226.543 227.71C226.476 227.913 226.485 228.134 226.57 228.33C227.14 229.49 228.3 232.2 229.86 230.47C229.4 230.18 228.86 229.89 228.41 229.6C228.36 229.89 228.36 230.18 228.3 230.41C228.13 231.51 229.68 231.97 229.97 230.87C230.38 229.49 231.36 228.87 230.2 227.47C229.611 226.92 228.935 226.471 228.2 226.14C226.895 225.258 225.694 224.232 224.62 223.08C223.87 222.27 222.62 223.48 223.41 224.29L228.41 229.66C228.76 229.2 229.11 228.74 229.41 228.27C224.62 225.27 221.97 220.27 219.41 215.4C219.273 215.219 219.074 215.094 218.851 215.049C218.628 215.003 218.396 215.04 218.198 215.152C218.001 215.264 217.85 215.445 217.775 215.659C217.7 215.874 217.706 216.109 217.79 216.32L217.85 216.24Z" fill="#161616"/>
        <path d="M273.442 188.49C271.814 195.871 268.778 202.868 264.502 209.1C257.549 218.985 247.798 226.564 236.502 230.86C232.335 229.268 228.513 226.892 225.241 223.86C214.501 213.86 213.691 200.19 213.581 196.67C211.981 196.285 210.509 195.489 209.312 194.36C205.612 190.78 204.752 183.68 208.152 180.74C212.022 177.39 219.412 181.49 220.222 181.89C221.68 182.698 222.986 183.754 224.081 185.01C227.261 175.43 234.882 168.21 243.942 166.71C256.302 164.69 269.812 173.7 273.442 188.49Z" fill="white" stroke="#161616" stroke-width="1.15" stroke-miterlimit="10"/>
        <path d="M259.469 202.27C257.183 207.423 253.725 211.971 249.369 215.55C248.499 216.24 249.719 217.46 250.579 216.76C255.078 213.121 258.629 208.448 260.929 203.14C261.399 202.14 259.929 201.23 259.429 202.27H259.469Z" fill="#161616"/>
        <path d="M247.181 211.68C247.07 212.639 247.169 213.611 247.471 214.527C247.774 215.444 248.271 216.285 248.931 216.99C249.681 217.8 250.931 216.59 250.141 215.78C249.638 215.234 249.263 214.582 249.043 213.873C248.824 213.164 248.765 212.415 248.871 211.68C248.981 210.59 247.251 210.59 247.141 211.68H247.181Z" fill="#161616"/>
        <path d="M243.661 201.81C245.187 199.726 246.971 197.845 248.971 196.21C248.501 195.92 247.971 195.63 247.521 195.35C246.763 197.635 245.15 199.538 243.021 200.66L244.021 202.04C245.351 200.43 246.671 198.87 248.021 197.25C248.721 196.38 247.501 195.17 246.811 196.04C245.481 197.65 244.151 199.21 242.811 200.83C242.681 200.98 242.606 201.169 242.597 201.366C242.588 201.564 242.646 201.759 242.761 201.92C242.877 202.081 243.044 202.198 243.234 202.252C243.424 202.307 243.628 202.295 243.811 202.22C246.319 200.845 248.215 198.573 249.121 195.86C249.411 194.94 248.311 194.54 247.671 195C245.549 196.708 243.683 198.712 242.131 200.95C241.441 201.87 242.941 202.73 243.581 201.81H243.661Z" fill="#161616"/>
        <path d="M262.819 206.89C263.583 205.633 264.538 204.503 265.649 203.54C265.189 203.25 264.649 202.97 264.209 202.68C263.696 204.436 262.621 205.975 261.149 207.06C261.549 207.41 262.009 207.7 262.419 208.06C262.765 207.12 263.276 206.249 263.929 205.49C264.619 204.62 263.409 203.41 262.719 204.27C261.918 205.263 261.274 206.372 260.809 207.56C260.76 207.727 260.762 207.905 260.814 208.071C260.867 208.237 260.968 208.383 261.105 208.491C261.242 208.598 261.408 208.662 261.582 208.675C261.755 208.687 261.929 208.647 262.079 208.56C263.908 207.241 265.248 205.352 265.889 203.19C266.179 202.32 265.079 201.8 264.449 202.32C263.229 203.39 262.178 204.637 261.329 206.02C260.699 206.94 262.199 207.81 262.829 206.88L262.819 206.89Z" fill="#161616"/>
        <path d="M237.709 197.54C238.571 199.505 239.023 201.625 239.039 203.77C239.039 203.884 239.085 203.993 239.165 204.074C239.246 204.155 239.355 204.2 239.469 204.2C239.584 204.2 239.693 204.155 239.774 204.074C239.854 203.993 239.899 203.884 239.899 203.77C239.883 201.465 239.393 199.188 238.459 197.08C238.229 196.56 237.459 197.02 237.709 197.54Z" fill="#161616"/>
        <path d="M235.278 196.04C235.83 196.928 236.276 197.878 236.608 198.87C236.788 199.39 237.608 199.16 237.418 198.64C237.075 197.57 236.608 196.543 236.028 195.58C235.748 195.11 235.028 195.58 235.278 196.04Z" fill="#161616"/>
        <path d="M248.619 191.3C249.102 191.139 249.616 191.096 250.119 191.174C250.622 191.252 251.099 191.449 251.51 191.748C251.922 192.047 252.256 192.44 252.486 192.894C252.715 193.349 252.833 193.851 252.829 194.36C252.849 194.522 252.927 194.672 253.05 194.78C253.172 194.888 253.33 194.948 253.494 194.948C253.657 194.948 253.815 194.888 253.938 194.78C254.06 194.672 254.139 194.522 254.159 194.36C254.148 193.652 253.973 192.957 253.649 192.327C253.324 191.698 252.859 191.153 252.288 190.734C251.718 190.314 251.058 190.033 250.361 189.911C249.664 189.788 248.948 189.829 248.269 190.03C248.11 190.085 247.978 190.198 247.9 190.346C247.822 190.495 247.803 190.667 247.848 190.829C247.893 190.991 247.997 191.13 248.14 191.217C248.283 191.305 248.455 191.334 248.619 191.3Z" fill="#161616"/>
        <path d="M264.089 199.79C264.533 199.499 265.05 199.338 265.581 199.328C266.111 199.317 266.634 199.457 267.089 199.73C267.234 199.815 267.406 199.839 267.568 199.797C267.649 199.776 267.724 199.739 267.79 199.689C267.857 199.639 267.912 199.577 267.954 199.505C267.996 199.433 268.024 199.354 268.035 199.272C268.047 199.19 268.042 199.106 268.021 199.026C268 198.946 267.964 198.87 267.914 198.804C267.864 198.738 267.801 198.682 267.729 198.64C267.086 198.244 266.343 198.039 265.587 198.048C264.831 198.056 264.094 198.279 263.459 198.69C262.759 199.16 263.399 200.25 264.089 199.79Z" fill="#161616"/>
        <path d="M235.932 214.63C236.63 215.856 237.567 216.929 238.687 217.788C239.807 218.647 241.086 219.273 242.452 219.63C242.665 219.667 242.884 219.624 243.067 219.508C243.25 219.393 243.383 219.213 243.441 219.004C243.498 218.795 243.476 218.573 243.378 218.38C243.28 218.187 243.114 218.037 242.912 217.96C241.76 217.664 240.681 217.137 239.739 216.412C238.797 215.686 238.012 214.777 237.432 213.74C237.307 213.561 237.119 213.435 236.906 213.388C236.693 213.341 236.47 213.375 236.281 213.485C236.092 213.594 235.952 213.771 235.887 213.979C235.822 214.188 235.838 214.413 235.932 214.61V214.63Z" fill="#161616"/>
        <path d="M224.03 187.32C226.452 183.084 229.986 179.592 234.25 177.22C237.386 175.493 240.845 174.431 244.41 174.1C246.074 176.355 248.273 178.159 250.81 179.35C258.03 182.64 263.86 178.35 268.13 181.2C270.38 182.7 272.64 186.34 271.77 196.27C275.58 200.19 278.12 200.43 279.51 200.14C285.28 198.98 289.44 185.99 285.8 176.53C284.7 173.7 283.26 172.08 271.02 162.32C253.76 148.58 251.62 147.78 249.37 147.26C237.48 144.49 226.93 150.49 225.18 151.49C222.87 152.82 222.35 153.49 209.13 167.36C198.86 178.2 197.93 179.18 196.93 181.84C194.51 188.53 194.93 198.23 201.15 205.33C205.236 209.794 210.827 212.589 216.85 213.18C215.722 210.586 214.965 207.845 214.6 205.04C214.161 201.573 214.337 198.056 215.12 194.65C214.284 194.001 213.594 193.182 213.096 192.248C212.598 191.314 212.303 190.286 212.23 189.23C212.11 186.86 213.23 183.86 215.75 182.88C218.6 181.78 222.47 183.49 224.03 187.32Z" fill="#D8002C"/>
        <path d="M221.54 158.28C219.18 153.61 212.25 152.91 211.04 152.8C201.4 151.8 193.66 160.42 189.1 165.44C181.02 174.44 183.33 177.04 175.48 187.84C165.08 202.16 157.29 202.79 155.67 212.66C155.56 213.41 154.12 223.34 160.67 229.35C166.32 234.54 175.45 234.6 181.45 231.48C189.59 227.27 188.9 218.78 194.79 204.48C206.36 176.7 226.11 167.29 221.54 158.28Z" fill="#D8002C"/>
        <path opacity="0.12" d="M230.84 179.3C228.163 186.018 226.834 193.198 226.93 200.43C227.119 211.093 230.299 221.488 236.11 230.43C230.848 228.19 226.198 224.724 222.55 220.32C218.414 215.659 215.707 209.907 214.75 203.75C214.31 200.666 214.351 197.532 214.87 194.46C214.046 193.743 213.387 192.856 212.938 191.86C212.489 190.864 212.261 189.782 212.27 188.69C212.33 186.49 213.48 183.55 215.96 182.69C218.74 181.69 222.55 183.5 224.05 187.37C224.757 185.911 225.626 184.535 226.64 183.27C227.888 181.795 229.297 180.463 230.84 179.3Z" fill="#6D6C6C"/>
        <path opacity="0.13" d="M220.679 221.55C220.21 222.626 219.669 223.668 219.059 224.67C216.649 228.688 213.377 232.12 209.479 234.72C208.07 233.862 206.788 232.812 205.669 231.6C204.457 230.304 203.461 228.822 202.719 227.21C207.442 225.783 211.55 222.815 214.389 218.78C215.527 217.053 216.4 215.166 216.979 213.18C218.199 216.01 219.409 218.78 220.679 221.55Z" fill="#6D6C6C"/>
        <path opacity="0.18" d="M215.599 193.49C215.964 198.596 216.972 203.636 218.599 208.49C220.764 214.821 224.028 220.721 228.239 225.92C224.415 222.83 221.203 219.052 218.769 214.78C216.869 211.37 214.039 206.47 214.389 199.78C214.486 197.636 214.894 195.517 215.599 193.49Z" fill="#6D6C6C"/>
        <path d="M224.431 152.97C222.011 155.34 206.881 170.58 208.961 192.23C209.693 199.487 212.171 206.458 216.181 212.55C212.907 212.369 209.721 211.42 206.881 209.78C204.06 208.119 201.664 205.825 199.881 203.08C198.833 201.326 198.073 199.415 197.631 197.42C197.054 193.786 197.349 190.067 198.491 186.57C200.471 179.99 209.591 167.17 224.431 152.97Z" fill="#C60028"/>
        <path d="M193.199 162.32C194.529 163.19 187.199 178.6 179.109 192.05C171.839 204.12 168.259 207.47 167.739 214.86C167.219 222.54 170.449 229.12 173.339 233.56C169.178 233.869 165.05 232.638 161.739 230.1C159.729 228.51 158.142 226.449 157.119 224.1C155.729 220.1 154.519 214.18 156.939 208.63C158.559 204.88 160.469 204.63 166.409 198.63C171.669 193.32 176.859 188.06 180.669 180.27C182.669 176.27 183.329 173.4 186.669 168.9C188.869 165.85 192.449 161.8 193.199 162.32Z" fill="#C60028"/>
        <path d="M482.932 347.82C571.341 347.82 643.012 276.15 643.012 187.74C643.012 99.3303 571.341 27.66 482.932 27.66C394.522 27.66 322.852 99.3303 322.852 187.74C322.852 276.15 394.522 347.82 482.932 347.82Z" fill="#161616"/>
        <path d="M482.93 313.94C552.629 313.94 609.13 257.438 609.13 187.74C609.13 118.042 552.629 61.54 482.93 61.54C413.232 61.54 356.73 118.042 356.73 187.74C356.73 257.438 413.232 313.94 482.93 313.94Z" fill="white"/>
        <path opacity="0.08" d="M510.93 303.94C482.472 303.937 454.851 294.316 432.548 276.64C410.246 258.963 394.572 234.268 388.071 206.563C381.57 178.858 384.622 149.768 396.734 124.016C408.845 98.2645 429.304 77.3614 454.79 64.7C437.419 68.6844 421.089 76.3025 406.875 87.0529C392.661 97.8033 380.884 111.442 372.321 127.072C363.758 142.702 358.602 159.968 357.192 177.734C355.783 195.5 358.152 213.363 364.144 230.147C370.135 246.932 379.614 262.257 391.955 275.114C404.297 287.971 419.221 298.069 435.746 304.743C452.272 311.416 470.023 314.514 487.832 313.833C505.641 313.152 523.103 308.707 539.07 300.79C529.838 302.889 520.398 303.946 510.93 303.94Z" fill="#6D6C6C"/>
        <path d="M694.933 148.12C699.553 147.43 704.283 155.45 706.483 159.12C719.183 180.71 713.873 205.65 712.253 212.92C708.395 232.457 697.014 249.696 680.563 260.92C666.419 266.455 651.062 268.146 636.053 265.82C630.04 264.839 624.154 263.195 618.503 260.92C610.183 261.44 601.873 261.92 593.563 262.42C591.733 262.128 589.935 261.663 588.193 261.03C585.533 260.03 582.993 259.03 582.993 258.15C582.993 257.27 585.883 255.49 599.993 253.3C599.293 253.41 590.063 255.2 583.883 248.74C578.113 242.74 577.763 232.46 582.153 228.41C585.843 225.01 591.853 226.51 602.813 229.41C611.807 231.813 620.502 235.221 628.733 239.57C631.163 240.67 650.043 248.81 667.303 238.88C680.463 231.32 684.853 217.75 685.893 214C690.043 199.11 682.483 193.85 685.193 172.32C685.523 168.67 688.003 149.1 694.933 148.12Z" fill="white" stroke="#161616" stroke-width="1.15" stroke-miterlimit="10"/>
        <path d="M579.931 241.3C586.58 241.794 593.089 243.456 599.161 246.21C600.161 246.67 601.061 245.21 600.021 244.7C593.691 241.773 586.886 240.008 579.931 239.49C578.841 239.49 578.841 241.22 579.931 241.28V241.3Z" fill="#161616"/>
        <path d="M579.531 234.26C587.211 234.02 593.731 238.7 600.891 240.89C601.891 241.24 602.391 239.57 601.351 239.22C594.081 236.97 587.441 232.29 579.531 232.52C578.431 232.58 578.371 234.31 579.531 234.26Z" fill="#161616"/>
        <path d="M586.933 228.14C593.222 228.66 598.763 231.66 604.193 234.72C604.39 234.813 604.615 234.829 604.823 234.765C605.032 234.7 605.208 234.559 605.318 234.37C605.427 234.181 605.462 233.958 605.415 233.745C605.367 233.532 605.242 233.345 605.063 233.22C599.343 230.04 593.572 226.98 586.933 226.4C585.773 226.29 585.773 228.02 586.933 228.14Z" fill="#161616"/>
        <path opacity="0.18" d="M687.932 158.74C684.522 172.43 693.592 181.66 696.652 197.31C697.162 200.08 701.262 222.54 689.262 238.47C675.862 256.25 649.312 256.89 644.112 257.06C630.542 257.41 625.412 253.42 604.162 254.52C602.162 254.63 583.672 255.67 583.492 258.27C583.492 259.66 588.572 261.27 592.492 261.73C597.572 262.43 600.232 261.27 606.692 260.73C610.576 260.409 614.479 260.409 618.362 260.73C625.565 263.739 633.168 265.68 640.932 266.49C647.642 267.118 654.403 266.943 661.072 265.97C666.113 265.224 671.084 264.06 675.932 262.49C692.272 256.83 708.432 232.99 712.992 207.01C718.132 177.74 706.702 155.68 700.292 150.78C699.422 150.08 696.942 148.18 694.292 148.78C690.142 149.74 688.412 156.61 687.932 158.74Z" fill="#6D6C6C"/>
        <path opacity="0.17" d="M712.253 176.12C711.333 176.12 711.333 187.12 708.793 201C707.233 209.43 704.053 226.58 696.373 238.53C682.693 259.83 654.753 264.62 644.133 265.89C653.253 267.16 667.283 267.45 680.963 260.18C710.633 244.36 713.523 206.18 714.043 199.27C714.853 187.61 713.173 176.12 712.253 176.12Z" fill="#6D6C6C"/>
        <path d="M157.76 76.28C150.274 76.28 142.956 74.0601 136.732 69.9011C130.507 65.7421 125.656 59.8307 122.791 52.9145C119.927 45.9984 119.177 38.388 120.637 31.0458C122.098 23.7036 125.703 16.9594 130.996 11.666C136.29 6.37257 143.034 2.7677 150.376 1.30725C157.718 -0.153201 165.329 0.596358 172.245 3.46113C179.161 6.32591 185.072 11.1772 189.231 17.4016C193.39 23.626 195.61 30.944 195.61 38.43C195.6 48.4652 191.608 58.0863 184.512 65.1823C177.417 72.2782 167.795 76.2694 157.76 76.28ZM157.76 4.01997C150.955 4.01997 144.302 6.03809 138.643 9.81911C132.984 13.6001 128.574 18.9742 125.969 25.2618C123.365 31.5494 122.684 38.4682 124.011 45.143C125.339 51.8179 128.616 57.9492 133.429 62.7615C138.241 67.5738 144.372 70.8511 151.047 72.1788C157.722 73.5065 164.641 72.8251 170.928 70.2207C177.216 67.6163 182.59 63.2058 186.371 57.5471C190.152 51.8885 192.17 45.2356 192.17 38.43C192.16 29.3071 188.531 20.561 182.08 14.1101C175.629 7.65929 166.883 4.03056 157.76 4.01997Z" fill="#E8E8E8"/>
        <path d="M437.398 189H428.398V174.1H411.598V189H398.498L417.198 147.9H399.798L379.898 190.5V202.9H411.598V218H428.398V202.9H437.398V189Z" fill="#D8002C"/>
        <path d="M481.041 147.3C460.941 147.3 449.841 160 449.841 182.9C449.841 205.9 460.941 218.6 481.041 218.6C500.941 218.6 512.041 205.9 512.041 182.9C512.041 160 500.941 147.3 481.041 147.3ZM481.041 160.9C489.541 160.9 493.341 167.2 493.341 182.9C493.341 198.7 489.541 205 481.041 205C472.341 205 468.641 198.7 468.641 182.9C468.641 167.2 472.341 160.9 481.041 160.9Z" fill="#D8002C"/>
        <path d="M578.453 189H569.453V174.1H552.653V189H539.553L558.253 147.9H540.853L520.953 190.5V202.9H552.653V218H569.453V202.9H578.453V189Z" fill="#D8002C"/>
    </g>
    <defs>
        <clipPath id="clip0_887_274">
            <rect width="855.03" height="541.38" fill="white"/>
        </clipPath>
    </defs>
</svg>
