<svg width="26" height="10" viewBox="0 0 26 10" fill="none" xmlns="http://www.w3.org/2000/svg">
    <g clip-path="url(#clip0_363_183)">
        <path d="M24.4867 3.83271L19.9299 0.205651C19.523 -0.117712 18.9302 -0.0503443 18.6041 0.356554C18.2808 0.763452 18.3482 1.35628 18.7551 1.68234L21.7408 4.05906H0.943142C0.423067 4.05906 0 4.48213 0 5.0022C0 5.52228 0.423067 5.94534 0.943142 5.94534H21.7381L18.7551 8.31937C18.3482 8.64273 18.2808 9.23826 18.6041 9.64515C18.7901 9.87959 19.0649 10.0009 19.3425 10.0009C19.5473 10.0009 19.7548 9.93349 19.9299 9.79606L24.4867 6.169C24.8747 5.91031 25.1118 5.47108 25.1118 5.0022C25.1118 4.53063 24.8747 4.0914 24.4867 3.83271Z" fill="#D8002C"/>
    </g>
    <defs>
        <clipPath id="clip0_363_183">
            <rect width="25.1118" height="10" fill="white"/>
        </clipPath>
    </defs>
</svg>
