<svg width="26" height="10" viewBox="0 0 26 10" fill="none" xmlns="http://www.w3.org/2000/svg">
    <g clip-path="url(#clip0_366_85)">
        <path d="M24.4867 3.83268L19.9299 0.205621C19.523 -0.117742 18.9302 -0.0503748 18.6041 0.356524C18.2808 0.763422 18.3482 1.35625 18.7551 1.68231L21.7408 4.05903H0.943142C0.423067 4.05903 0 4.4821 0 5.00217C0 5.52225 0.423067 5.94531 0.943142 5.94531H21.7381L18.7551 8.31934C18.3482 8.6427 18.2808 9.23822 18.6041 9.64512C18.7901 9.87956 19.0649 10.0008 19.3425 10.0008C19.5473 10.0008 19.7548 9.93345 19.9299 9.79603L24.4867 6.16897C24.8747 5.91028 25.1118 5.47105 25.1118 5.00217C25.1118 4.5306 24.8747 4.09137 24.4867 3.83268Z" fill="#959595"/>
    </g>
    <defs>
        <clipPath id="clip0_366_85">
            <rect width="25.1118" height="10" fill="white"/>
        </clipPath>
    </defs>
</svg>
