<svg width="26" height="10" viewBox="0 0 26 10" fill="none" xmlns="http://www.w3.org/2000/svg">
    <g clip-path="url(#clip0_366_87)">
        <path d="M0.625155 6.16732L5.18188 9.79438C5.58878 10.1177 6.18161 10.0504 6.50767 9.64347C6.83103 9.23658 6.76366 8.64374 6.35676 8.31769L3.37105 5.94097L24.1687 5.94097C24.6888 5.94097 25.1118 5.5179 25.1118 4.99783C25.1118 4.47775 24.6888 4.05469 24.1687 4.05469L3.37374 4.05469L6.35676 1.68066C6.76366 1.3573 6.83103 0.761773 6.50767 0.354875C6.32173 0.120437 6.04688 -0.000824688 5.76932 -0.000824712C5.56453 -0.00082473 5.35704 0.0665438 5.18188 0.203973L0.625155 3.83103C0.23712 4.08972 -1.28732e-05 4.52895 -1.29142e-05 4.99783C-1.29555e-05 5.4694 0.23712 5.90863 0.625155 6.16732Z" fill="#959595"/>
    </g>
    <defs>
        <clipPath id="clip0_366_87">
            <rect width="25.1118" height="10" fill="white" transform="translate(25.1118 10) rotate(-180)"/>
        </clipPath>
    </defs>
</svg>
