<svg width="23" height="20" viewBox="0 0 23 20" fill="none" xmlns="http://www.w3.org/2000/svg">
    <g clip-path="url(#clip0_487_1610)">
        <path d="M6.79771 5.58447H4.59137C4.49461 5.58447 4.40182 5.62291 4.3334 5.69132C4.26499 5.75974 4.22656 5.85252 4.22656 5.94928C4.22656 6.04603 4.26499 6.13882 4.3334 6.20723C4.40182 6.27564 4.49461 6.31408 4.59137 6.31408H6.79771C6.89447 6.31408 6.98723 6.27564 7.05564 6.20723C7.12406 6.13882 7.16252 6.04603 7.16252 5.94928C7.16252 5.85252 7.12406 5.75974 7.05564 5.69132C6.98723 5.62291 6.89447 5.58447 6.79771 5.58447V5.58447Z" fill="#959595"/>
        <path d="M11.1742 5.58447H8.96637C8.86961 5.58447 8.77682 5.62291 8.7084 5.69132C8.63999 5.75974 8.60156 5.85252 8.60156 5.94928C8.60156 6.04603 8.63999 6.13882 8.7084 6.20723C8.77682 6.27564 8.86961 6.31408 8.96637 6.31408H11.1742C11.2709 6.31408 11.3637 6.27564 11.4321 6.20723C11.5005 6.13882 11.539 6.04603 11.539 5.94928C11.539 5.85252 11.5005 5.75974 11.4321 5.69132C11.3637 5.62291 11.2709 5.58447 11.1742 5.58447Z" fill="#959595"/>
        <path d="M6.79771 3.02783H4.59137C4.49461 3.02783 4.40182 3.06626 4.3334 3.13467C4.26499 3.20309 4.22656 3.29588 4.22656 3.39264C4.22656 3.48939 4.26499 3.58218 4.3334 3.65059C4.40182 3.719 4.49461 3.75744 4.59137 3.75744H6.79771C6.89447 3.75744 6.98723 3.719 7.05564 3.65059C7.12406 3.58218 7.16252 3.48939 7.16252 3.39264C7.16252 3.29588 7.12406 3.20309 7.05564 3.13467C6.98723 3.06626 6.89447 3.02783 6.79771 3.02783V3.02783Z" fill="#959595"/>
        <path d="M11.1742 3.02783H8.96637C8.86961 3.02783 8.77682 3.06626 8.7084 3.13467C8.63999 3.20309 8.60156 3.29588 8.60156 3.39264C8.60156 3.48939 8.63999 3.58218 8.7084 3.65059C8.77682 3.719 8.86961 3.75744 8.96637 3.75744H11.1742C11.2709 3.75744 11.3637 3.719 11.4321 3.65059C11.5005 3.58218 11.539 3.48939 11.539 3.39264C11.539 3.29588 11.5005 3.20309 11.4321 3.13467C11.3637 3.06626 11.2709 3.02783 11.1742 3.02783Z" fill="#959595"/>
        <path d="M21.6917 19.2704H19.4431V8.90121L13.9185 5.96381V0H1.86393V19.2704H0.372616C0.275864 19.2704 0.183067 19.3088 0.114653 19.3772C0.046239 19.4456 0.0078125 19.5384 0.0078125 19.6352C0.0078125 19.7319 0.046239 19.8247 0.114653 19.8931C0.183067 19.9616 0.275864 20 0.372616 20H21.699C21.7958 20 21.8886 19.9616 21.957 19.8931C22.0254 19.8247 22.0638 19.7319 22.0638 19.6352C22.0638 19.5384 22.0254 19.4456 21.957 19.3772C21.8886 19.3088 21.7958 19.2704 21.699 19.2704H21.6917ZM2.58623 19.2704V0.729607H13.1816V19.2704H2.58623ZM13.9477 19.2704V6.80869L18.7135 9.33897V19.2704H13.9477Z" fill="#959595"/>
        <path d="M6.79771 8.14099H4.59137C4.49461 8.14099 4.40182 8.17943 4.3334 8.24784C4.26499 8.31625 4.22656 8.40904 4.22656 8.50579C4.22656 8.60255 4.26499 8.69534 4.3334 8.76375C4.40182 8.83216 4.49461 8.8706 4.59137 8.8706H6.79771C6.89447 8.8706 6.98723 8.83216 7.05564 8.76375C7.12406 8.69534 7.16252 8.60255 7.16252 8.50579C7.16252 8.40904 7.12406 8.31625 7.05564 8.24784C6.98723 8.17943 6.89447 8.14099 6.79771 8.14099V8.14099Z" fill="#959595"/>
        <path d="M11.1742 8.14099H8.96637C8.86961 8.14099 8.77682 8.17943 8.7084 8.24784C8.63999 8.31625 8.60156 8.40904 8.60156 8.50579C8.60156 8.60255 8.63999 8.69534 8.7084 8.76375C8.77682 8.83216 8.86961 8.8706 8.96637 8.8706H11.1742C11.2709 8.8706 11.3637 8.83216 11.4321 8.76375C11.5005 8.69534 11.539 8.60255 11.539 8.50579C11.539 8.40904 11.5005 8.31625 11.4321 8.24784C11.3637 8.17943 11.2709 8.14099 11.1742 8.14099Z" fill="#959595"/>
        <path d="M6.79771 10.696H4.59137C4.49461 10.696 4.40182 10.7345 4.3334 10.8029C4.26499 10.8713 4.22656 10.9641 4.22656 11.0608C4.22656 11.1576 4.26499 11.2504 4.3334 11.3188C4.40182 11.3872 4.49461 11.4257 4.59137 11.4257H6.79771C6.89447 11.4257 6.98723 11.3872 7.05564 11.3188C7.12406 11.2504 7.16252 11.1576 7.16252 11.0608C7.16252 10.9641 7.12406 10.8713 7.05564 10.8029C6.98723 10.7345 6.89447 10.696 6.79771 10.696V10.696Z" fill="#959595"/>
        <path d="M11.1742 10.696H8.96637C8.86961 10.696 8.77682 10.7345 8.7084 10.8029C8.63999 10.8713 8.60156 10.9641 8.60156 11.0608C8.60156 11.1576 8.63999 11.2504 8.7084 11.3188C8.77682 11.3872 8.86961 11.4257 8.96637 11.4257H11.1742C11.2709 11.4257 11.3637 11.3872 11.4321 11.3188C11.5005 11.2504 11.539 11.1576 11.539 11.0608C11.539 10.9641 11.5005 10.8713 11.4321 10.8029C11.3637 10.7345 11.2709 10.696 11.1742 10.696Z" fill="#959595"/>
        <path d="M6.79771 13.2526H4.59137C4.49461 13.2526 4.40182 13.291 4.3334 13.3594C4.26499 13.4278 4.22656 13.5206 4.22656 13.6174C4.22656 13.7141 4.26499 13.8069 4.3334 13.8753C4.40182 13.9437 4.49461 13.9822 4.59137 13.9822H6.79771C6.89447 13.9822 6.98723 13.9437 7.05564 13.8753C7.12406 13.8069 7.16252 13.7141 7.16252 13.6174C7.16252 13.5206 7.12406 13.4278 7.05564 13.3594C6.98723 13.291 6.89447 13.2526 6.79771 13.2526V13.2526Z" fill="#959595"/>
        <path d="M11.1742 13.2526H8.96637C8.86961 13.2526 8.77682 13.291 8.7084 13.3594C8.63999 13.4278 8.60156 13.5206 8.60156 13.6174C8.60156 13.7141 8.63999 13.8069 8.7084 13.8753C8.77682 13.9437 8.86961 13.9822 8.96637 13.9822H11.1742C11.2709 13.9822 11.3637 13.9437 11.4321 13.8753C11.5005 13.8069 11.539 13.7141 11.539 13.6174C11.539 13.5206 11.5005 13.4278 11.4321 13.3594C11.3637 13.291 11.2709 13.2526 11.1742 13.2526Z" fill="#959595"/>
        <path d="M6.79771 15.8091H4.59137C4.49461 15.8091 4.40182 15.8475 4.3334 15.9159C4.26499 15.9843 4.22656 16.0771 4.22656 16.1739C4.22656 16.2706 4.26499 16.3634 4.3334 16.4318C4.40182 16.5003 4.49461 16.5387 4.59137 16.5387H6.79771C6.89447 16.5387 6.98723 16.5003 7.05564 16.4318C7.12406 16.3634 7.16252 16.2706 7.16252 16.1739C7.16252 16.0771 7.12406 15.9843 7.05564 15.9159C6.98723 15.8475 6.89447 15.8091 6.79771 15.8091V15.8091Z" fill="#959595"/>
        <path d="M11.1742 15.8091H8.96637C8.86961 15.8091 8.77682 15.8475 8.7084 15.9159C8.63999 15.9843 8.60156 16.0771 8.60156 16.1739C8.60156 16.2706 8.63999 16.3634 8.7084 16.4318C8.77682 16.5003 8.86961 16.5387 8.96637 16.5387H11.1742C11.2709 16.5387 11.3637 16.5003 11.4321 16.4318C11.5005 16.3634 11.539 16.2706 11.539 16.1739C11.539 16.0771 11.5005 15.9843 11.4321 15.9159C11.3637 15.8475 11.2709 15.8091 11.1742 15.8091Z" fill="#959595"/>
        <path d="M17.4559 10.696H15.2496C15.1528 10.696 15.06 10.7345 14.9916 10.8029C14.9232 10.8713 14.8848 10.9641 14.8848 11.0608C14.8848 11.1576 14.9232 11.2504 14.9916 11.3188C15.06 11.3872 15.1528 11.4257 15.2496 11.4257H17.4559C17.5526 11.4257 17.6454 11.3872 17.7138 11.3188C17.7823 11.2504 17.8207 11.1576 17.8207 11.0608C17.8207 10.9641 17.7823 10.8713 17.7138 10.8029C17.6454 10.7345 17.5526 10.696 17.4559 10.696Z" fill="#959595"/>
        <path d="M17.4559 13.2526H15.2496C15.1528 13.2526 15.06 13.291 14.9916 13.3594C14.9232 13.4278 14.8848 13.5206 14.8848 13.6174C14.8848 13.7141 14.9232 13.8069 14.9916 13.8753C15.06 13.9437 15.1528 13.9822 15.2496 13.9822H17.4559C17.5526 13.9822 17.6454 13.9437 17.7138 13.8753C17.7823 13.8069 17.8207 13.7141 17.8207 13.6174C17.8207 13.5206 17.7823 13.4278 17.7138 13.3594C17.6454 13.291 17.5526 13.2526 17.4559 13.2526Z" fill="#959595"/>
        <path d="M17.4559 15.8091H15.2496C15.1528 15.8091 15.06 15.8475 14.9916 15.9159C14.9232 15.9843 14.8848 16.0771 14.8848 16.1739C14.8848 16.2706 14.9232 16.3634 14.9916 16.4318C15.06 16.5003 15.1528 16.5387 15.2496 16.5387H17.4559C17.5526 16.5387 17.6454 16.5003 17.7138 16.4318C17.7823 16.3634 17.8207 16.2706 17.8207 16.1739C17.8207 16.0771 17.7823 15.9843 17.7138 15.9159C17.6454 15.8475 17.5526 15.8091 17.4559 15.8091Z" fill="#959595"/>
    </g>
    <defs>
        <clipPath id="clip0_487_1610">
            <rect width="22.0575" height="20" fill="white"/>
        </clipPath>
    </defs>
</svg>
