<svg width="21" height="20" viewBox="0 0 21 20" fill="none" xmlns="http://www.w3.org/2000/svg">
    <g clip-path="url(#clip0_480_349)">
        <path d="M8.54746 11.0479L7.52044 10.4508V9.70444C7.52044 9.58369 7.47248 9.46788 7.38709 9.3825C7.30171 9.29711 7.18591 9.24915 7.06516 9.24915C6.94441 9.24915 6.8286 9.29711 6.74321 9.3825C6.65783 9.46788 6.60986 9.58369 6.60986 9.70444V12.4347C6.60986 12.5554 6.65783 12.6713 6.74321 12.7566C6.8286 12.842 6.94441 12.89 7.06516 12.89C7.18591 12.89 7.30171 12.842 7.38709 12.7566C7.47248 12.6713 7.52044 12.5554 7.52044 12.4347V11.5017L8.09068 11.8316C8.1952 11.8922 8.31949 11.9088 8.43623 11.8777C8.55297 11.8466 8.65258 11.7704 8.71315 11.6659C8.77373 11.5614 8.79031 11.4371 8.75924 11.3204C8.72816 11.2036 8.65198 11.104 8.54746 11.0434V11.0479Z" fill="#959595"/>
        <path d="M20.3001 19.2521H18.0311V1.29423C18.0307 0.951892 17.8945 0.623691 17.6524 0.381622C17.4104 0.139554 17.0822 0.0033858 16.7398 0.00299072H3.93344C3.5911 0.0033858 3.26289 0.139554 3.02082 0.381622C2.77875 0.623691 2.64259 0.951892 2.6422 1.29423V19.2521H0.37319C0.274214 19.2521 0.179302 19.2914 0.109315 19.3614C0.0393281 19.4314 0 19.5263 0 19.6253C0 19.7243 0.0393281 19.8192 0.109315 19.8892C0.179302 19.9592 0.274214 19.9985 0.37319 19.9985H20.3001C20.399 19.9985 20.494 19.9592 20.5639 19.8892C20.6339 19.8192 20.6732 19.7243 20.6732 19.6253C20.6732 19.5263 20.6339 19.4314 20.5639 19.3614C20.494 19.2914 20.399 19.2521 20.3001 19.2521ZM3.38858 1.29423C3.38897 1.14984 3.44649 1.01149 3.54859 0.909391C3.65068 0.807296 3.78905 0.749765 3.93344 0.749371H16.7398C16.8842 0.749765 17.0226 0.807296 17.1247 0.909391C17.2267 1.01149 17.2843 1.14984 17.2847 1.29423V19.2521H16.2039V3.08554C16.2035 2.74307 16.0674 2.41471 15.8254 2.1724C15.5834 1.9301 15.2552 1.7936 14.9127 1.79281H5.76058C5.4181 1.7936 5.08989 1.9301 4.84786 2.1724C4.60584 2.41471 4.46973 2.74307 4.46933 3.08554V19.2521H3.38858V1.29423ZM15.4575 19.2551H5.21571V3.08554C5.21571 2.9409 5.27308 2.80216 5.37521 2.69974C5.47735 2.59732 5.61593 2.53958 5.76058 2.53919H14.9127C15.0573 2.53958 15.1959 2.59732 15.298 2.69974C15.4002 2.80216 15.4575 2.9409 15.4575 3.08554V19.2551Z" fill="#959595"/>
    </g>
    <defs>
        <clipPath id="clip0_480_349">
            <rect width="20.6732" height="20" fill="white"/>
        </clipPath>
    </defs>
</svg>
