<svg width="99" height="60" viewBox="0 0 99 60" fill="none" xmlns="http://www.w3.org/2000/svg">
    <g clip-path="url(#clip0_407_1709)">
        <path
            d="M27.8594 5.165L25.6211 7.38443L34.8045 16.5327C35.5586 15.7861 36.3104 15.0371 37.0599 14.2859C37.696 13.6557 37.6994 13.0734 37.0599 12.4467L29.7469 5.15814C29.0833 4.50738 28.5126 4.51082 27.8594 5.165Z"
            fill="#D8002C"/>
        <path
            d="M23.493 9.51135C18.7414 14.2448 13.9864 18.9793 9.22791 23.715C8.94153 23.992 8.7492 24.3513 8.67781 24.7425C8.4784 25.77 8.26526 26.8181 8.06241 27.8525C7.66358 29.863 7.26128 31.8666 6.86933 33.8771C6.82431 34.0418 6.81892 34.2148 6.85359 34.382C6.88826 34.5492 6.96201 34.7059 7.06885 34.8393C7.1757 34.9728 7.31264 35.0793 7.46853 35.1501C7.62443 35.221 7.79492 35.2542 7.96613 35.2471C8.0624 35.2471 8.18617 35.2266 8.30995 35.2026C11.3527 34.5998 14.3955 34.0073 17.4348 33.3805C17.7969 33.3003 18.1299 33.1226 18.3975 32.8668C23.1652 28.1333 27.927 23.3954 32.6832 18.6528L23.493 9.51135ZM16.3897 31.3803C15.2413 31.6098 9.00102 33.2504 9.00102 33.2504C9.00102 33.2504 10.4554 27.0579 10.6995 25.842C10.7064 25.809 10.7168 25.7769 10.7304 25.7461L16.3897 31.3803Z"
            fill="#D8002C"/>
        <path
            d="M21.1516 60C12.2123 60 5.85169 56.5441 3.21117 54.0369C-3.78896 47.3787 2.74017 36.7507 3.0221 36.2986C3.19125 36.0288 3.46103 35.8371 3.77214 35.7654C4.08325 35.6938 4.41018 35.7482 4.681 35.9167C4.95182 36.0852 5.14435 36.354 5.21624 36.6639C5.28814 36.9739 5.2335 37.2995 5.06435 37.5693C5.0059 37.6618 -0.708321 46.9916 4.87528 52.297C8.7501 55.9858 19.2503 59.952 32.2947 55.7769C42.0248 52.6635 45.5077 47.4951 48.5814 42.9364C50.6099 39.9292 52.525 37.0898 55.9322 35.8088C59.9171 34.3121 64.4692 34.1717 69.7399 34.0038C75.0106 33.836 80.8693 33.6613 87.4844 32.0824C92.4457 30.9008 95.5606 27.7942 96.262 23.3314C97.0975 18.0226 94.1785 12.2 89.1656 9.17224C78.9714 3.00716 66.3877 2.11665 57.6272 2.4523C51.9744 2.64895 46.3547 3.39807 40.8489 4.68887C40.5403 4.76971 40.212 4.7251 39.9363 4.56484C39.6607 4.40458 39.4603 4.14181 39.3791 3.83432C39.2979 3.52683 39.3427 3.19982 39.5036 2.92523C39.6645 2.65064 39.9283 2.45095 40.2369 2.3701C45.9112 1.02798 51.7057 0.253508 57.5344 0.0581956C66.6249 -0.284309 79.7106 0.654152 90.4137 7.12064C96.2586 10.6416 99.6246 17.4575 98.6413 23.7047C97.792 29.1095 93.9275 33.014 88.0414 34.4149C81.1925 36.0452 75.1482 36.2336 69.819 36.4014C64.7615 36.5589 60.395 36.6959 56.7849 38.0523C54.0962 39.0798 52.5456 41.3609 50.5962 44.2722C47.4674 48.9131 43.572 54.6911 33.0615 58.0614C29.2175 59.3234 25.1988 59.9775 21.1516 60Z"
            fill="#D8002C"/>
    </g>
    <defs>
        <clipPath id="clip0_407_1709">
            <rect width="98.8235" height="60" fill="white"/>
        </clipPath>
    </defs>
</svg>
