<svg width="27" height="27" viewBox="0 0 27 27" fill="none" xmlns="http://www.w3.org/2000/svg">
    <path d="M17.493 0.511353C12.7414 5.24477 7.98635 9.97932 3.22791 14.715C2.94153 14.992 2.7492 15.3513 2.67781 15.7425C2.4784 16.77 2.26526 17.8181 2.06241 18.8525C1.66358 20.863 1.26128 22.8666 0.869329 24.8771C0.824315 25.0418 0.818925 25.2148 0.853591 25.382C0.888257 25.5492 0.96201 25.7059 1.06885 25.8393C1.1757 25.9728 1.31264 26.0793 1.46853 26.1501C1.62443 26.221 1.79492 26.2542 1.96613 26.2471C2.0624 26.2471 2.18617 26.2266 2.30995 26.2026C5.35273 25.5998 8.39549 25.0073 11.4348 24.3805C11.7969 24.3003 12.1299 24.1226 12.3975 23.8668C17.1652 19.1333 21.927 14.3954 26.6832 9.65281L17.493 0.511353ZM10.3897 22.3803C9.24131 22.6098 3.00102 24.2504 3.00102 24.2504C3.00102 24.2504 4.45535 18.0579 4.69946 16.842C4.70642 16.809 4.71678 16.7769 4.7304 16.7461L10.3897 22.3803Z" fill="#D8002C"/>
</svg>
