<svg width="16" height="12" viewBox="0 0 16 12" fill="none" xmlns="http://www.w3.org/2000/svg">
    <g clip-path="url(#clip0_365_4)">
        <path d="M14.4026 1.52588e-05H1.18383C0.869846 0.000699882 0.568937 0.125819 0.347038 0.347961C0.125138 0.570104 0.000341658 0.871149 0 1.18513V10.8162C0.000342461 11.1301 0.12518 11.431 0.347117 11.6529C0.569053 11.8748 0.869965 11.9997 1.18383 12H14.4026C14.7166 12 15.0177 11.8753 15.2397 11.6533C15.4617 11.4313 15.5864 11.1302 15.5864 10.8162V1.18513C15.5864 0.871044 15.4617 0.569802 15.2398 0.347586C15.0178 0.12537 14.7167 0.000358152 14.4026 1.52588e-05ZM14.4026 0.776296C14.4752 0.776733 14.5463 0.796853 14.6083 0.834515L7.99957 6.49489C7.94368 6.5405 7.87375 6.56541 7.80162 6.56541C7.72948 6.56541 7.65956 6.5405 7.60367 6.49489L1.11655 0.781468C1.13871 0.77697 1.16122 0.774373 1.18383 0.773706L14.4026 0.776296ZM14.4026 11.2237H1.18383C1.07585 11.2234 0.972382 11.1804 0.896026 11.104C0.81967 11.0276 0.776622 10.9242 0.77628 10.8162V1.51894L7.09649 7.08228C7.2934 7.24567 7.54123 7.3351 7.79709 7.3351C8.05296 7.3351 8.30077 7.24567 8.49768 7.08228L14.814 1.68325V10.8162C14.814 10.87 14.8034 10.9234 14.7826 10.9731C14.7619 11.0228 14.7315 11.0679 14.6933 11.1058C14.655 11.1436 14.6096 11.1736 14.5597 11.1938C14.5098 11.2141 14.4564 11.2243 14.4026 11.2237Z" fill="#D8002C"/>
    </g>
    <defs>
        <clipPath id="clip0_365_4">
            <rect width="15.5864" height="12" fill="white"/>
        </clipPath>
    </defs>
</svg>
