<svg width="18" height="16" viewBox="0 0 18 16" fill="none" xmlns="http://www.w3.org/2000/svg">
    <g clip-path="url(#clip0_1042_436)">
        <path d="M8.89323 16C8.47537 16 8.05272 15.8357 7.67154 15.5088L7.32226 15.209C6.30471 14.335 5.25368 13.4306 4.22497 12.5343C3.25846 11.6922 2.24889 10.7608 1.42593 9.65393C0.679515 8.65074 0.240919 7.67307 0.0862139 6.66669C-0.200867 4.7895 0.229755 3.1627 1.36692 1.83096C2.55671 0.43862 4.17074 -0.172225 6.03039 0.0654143C7.08781 0.20098 8.04634 0.693803 8.88207 1.53272C10.3382 0.0957173 12.1197 -0.342879 14.0447 0.264776C15.8374 0.830965 17.0591 2.17227 17.5758 4.14356C17.6428 4.39875 17.6779 4.64117 17.7114 4.87722C17.7242 4.97132 17.7385 5.06382 17.7545 5.15792L17.7656 5.22331V5.29029C17.7656 5.51836 17.7465 6.11007 17.7385 6.19301C17.6492 7.22809 17.2967 8.20576 16.6604 9.18503C16.1069 10.0367 15.3988 10.8501 14.5567 11.6013C13.2696 12.7496 11.9475 13.8964 10.6684 15.0048L10.0543 15.5375C9.70025 15.8453 9.29833 16 8.89323 16ZM5.2457 1.60927C4.17553 1.60927 3.29993 2.02395 2.58063 2.86605C1.7465 3.84213 1.44666 5.0064 1.66357 6.42427C1.7784 7.17706 2.11014 7.90114 2.70503 8.70178C3.39722 9.6332 4.23294 10.4259 5.27282 11.3318C6.29833 12.2249 7.34778 13.1276 8.36372 14L8.71301 14.2999C8.88207 14.445 8.91237 14.4195 9.01125 14.3334L9.62688 13.8007C10.9012 12.6954 12.2202 11.5535 13.4977 10.4131C14.2457 9.74644 14.8438 9.06063 15.327 8.31741C15.8167 7.56462 16.0878 6.82458 16.1532 6.05744C16.1564 6.008 16.1707 5.58854 16.1739 5.35569C16.1612 5.27275 16.1484 5.19141 16.1372 5.10848C16.1085 4.90752 16.0814 4.71932 16.0368 4.55186C15.6556 3.09731 14.847 2.19301 13.5679 1.7895C12.1548 1.34293 10.9506 1.67147 9.88685 2.79109C9.83581 2.84691 9.59658 3.13878 9.52002 3.23766L8.91715 4.01438L8.28238 3.26318C8.23294 3.20577 8.1851 3.14675 8.13884 3.09093C8.04953 2.98248 7.965 2.88041 7.88207 2.79109C7.26006 2.11964 6.58861 1.74644 5.83262 1.64915C5.62848 1.62203 5.4339 1.60927 5.2457 1.60927Z" fill="#959595"/>
    </g>
    <defs>
        <clipPath id="clip0_1042_436">
            <rect width="17.7671" height="16" fill="white"/>
        </clipPath>
    </defs>
</svg>
