<svg width="23" height="20" viewBox="0 0 23 20" fill="none" xmlns="http://www.w3.org/2000/svg">
    <g clip-path="url(#clip0_480_347)">
        <path d="M0.552748 20C0.40615 20 0.265521 19.9418 0.161861 19.8381C0.0582004 19.7344 0 19.5939 0 19.4473V14.1709H4.72361V9.44725H9.44722V4.72363H14.1156V0H21.7119C21.8585 1.23573e-08 21.9991 0.0582354 22.1028 0.161896C22.2064 0.265556 22.2647 0.40615 22.2647 0.552748C22.2647 0.699346 22.2064 0.839939 22.1028 0.943599C21.9991 1.04726 21.8585 1.1055 21.7119 1.1055H15.2211V5.82912H10.5527V10.5527H5.82911V15.2764H1.1055V19.4473C1.1055 19.5939 1.04726 19.7344 0.943596 19.8381C0.839936 19.9418 0.699346 20 0.552748 20Z" fill="#959595"/>
    </g>
    <defs>
        <clipPath id="clip0_480_347">
            <rect width="22.2647" height="20" fill="white"/>
        </clipPath>
    </defs>
</svg>
