<svg width="20" height="15" viewBox="0 0 20 15" fill="none" xmlns="http://www.w3.org/2000/svg">
    <g clip-path="url(#clip0_634_167)">
        <path
            d="M18.9832 2.02195H6.4182C6.15008 2.02195 5.89293 1.91545 5.70334 1.72586C5.51374 1.53626 5.40723 1.2791 5.40723 1.01098C5.40723 0.742849 5.51374 0.485709 5.70334 0.296114C5.89293 0.106519 6.15008 0 6.4182 0H18.9832C19.2513 0 19.5085 0.106519 19.6981 0.296114C19.8877 0.485709 19.9942 0.742849 19.9942 1.01098C19.9942 1.2791 19.8877 1.53626 19.6981 1.72586C19.5085 1.91545 19.2513 2.02195 18.9832 2.02195Z"
            fill="white"/>
        <path
            d="M2.89139 2.02195H1.01098C0.742849 2.02195 0.485704 1.91545 0.29611 1.72586C0.106515 1.53626 0 1.2791 0 1.01098C0 0.742849 0.106515 0.485709 0.29611 0.296114C0.485704 0.106519 0.742849 0 1.01098 0H2.89139C3.15952 0 3.41667 0.106519 3.60626 0.296114C3.79586 0.485709 3.90237 0.742849 3.90237 1.01098C3.90237 1.2791 3.79586 1.53626 3.60626 1.72586C3.41667 1.91545 3.15952 2.02195 2.89139 2.02195Z"
            fill="white"/>
        <path
            d="M18.9832 8.08781H6.4182C6.15008 8.08781 5.89293 7.98131 5.70334 7.79171C5.51374 7.60212 5.40723 7.34496 5.40723 7.07683C5.40723 6.80871 5.51374 6.55157 5.70334 6.36197C5.89293 6.17238 6.15008 6.06586 6.4182 6.06586H18.9832C19.2513 6.06586 19.5085 6.17238 19.6981 6.36197C19.8877 6.55157 19.9942 6.80871 19.9942 7.07683C19.9942 7.34496 19.8877 7.60212 19.6981 7.79171C19.5085 7.98131 19.2513 8.08781 18.9832 8.08781Z"
            fill="white"/>
        <path
            d="M2.89139 8.08781H1.01098C0.742849 8.08781 0.485704 7.98131 0.296109 7.79171C0.106515 7.60212 0 7.34496 0 7.07683C0 6.80871 0.106515 6.55157 0.296109 6.36197C0.485704 6.17238 0.742849 6.06586 1.01098 6.06586H2.89139C3.15952 6.06586 3.41667 6.17238 3.60626 6.36197C3.79586 6.55157 3.90237 6.80871 3.90237 7.07683C3.90237 7.34496 3.79586 7.60212 3.60626 7.79171C3.41667 7.98131 3.15952 8.08781 2.89139 8.08781Z"
            fill="white"/>
        <path
            d="M18.9832 14.1508H6.4182C6.15008 14.1508 5.89293 14.0443 5.70334 13.8547C5.51374 13.6651 5.40723 13.4079 5.40723 13.1398C5.40723 12.8717 5.51374 12.6146 5.70334 12.425C5.89293 12.2354 6.15008 12.1288 6.4182 12.1288H18.9832C19.2513 12.1288 19.5085 12.2354 19.6981 12.425C19.8877 12.6146 19.9942 12.8717 19.9942 13.1398C19.9942 13.4079 19.8877 13.6651 19.6981 13.8547C19.5085 14.0443 19.2513 14.1508 18.9832 14.1508Z"
            fill="white"/>
        <path
            d="M2.89139 14.1508H1.01098C0.742849 14.1508 0.485704 14.0443 0.296109 13.8547C0.106515 13.6651 0 13.4079 0 13.1398C0 12.8717 0.106515 12.6146 0.296109 12.425C0.485704 12.2354 0.742849 12.1288 1.01098 12.1288H2.89139C3.15952 12.1288 3.41667 12.2354 3.60626 12.425C3.79586 12.6146 3.90237 12.8717 3.90237 13.1398C3.90237 13.4079 3.79586 13.6651 3.60626 13.8547C3.41667 14.0443 3.15952 14.1508 2.89139 14.1508Z"
            fill="white"/>
    </g>
    <defs>
        <clipPath id="clip0_634_167">
            <rect width="20" height="14.1479" fill="white"/>
        </clipPath>
    </defs>
</svg>
