<svg width="15" height="20" viewBox="0 0 15 20" fill="none" xmlns="http://www.w3.org/2000/svg">
    <g clip-path="url(#clip0_480_427)">
        <path d="M6.87807 20.0001C6.72977 19.8569 6.55079 19.729 6.43317 19.5603C5.25189 17.8778 4.06549 16.2005 2.91489 14.4925C1.96373 13.0811 1.13529 11.6032 0.567664 9.99239C0.2097 8.98498 -0.010193 7.95711 0.00514833 6.8781C0.0511724 3.86097 2.11714 1.14555 5.02177 0.291548C8.86733 -0.833484 12.8254 1.40124 13.843 5.27748C14.2317 6.75537 14.0834 8.20768 13.618 9.63954C13.1169 11.2044 12.3549 12.6516 11.4549 14.0169C10.4066 15.6022 9.30712 17.1466 8.22811 18.7114C8.03379 18.9978 7.84969 19.2892 7.63491 19.5603C7.50707 19.7239 7.33831 19.8569 7.1849 20.0001C7.08262 20.0001 6.98035 20.0001 6.87807 20.0001ZM7.0366 18.3534C7.06217 18.3227 7.08774 18.2972 7.10308 18.2716C8.09004 16.8602 9.09234 15.4539 10.0588 14.0272C10.9793 12.6618 11.8026 11.235 12.3703 9.68045C12.7691 8.58099 13.0044 7.45084 12.8459 6.27467C12.4265 3.1297 9.6344 0.88986 6.46897 1.20691C4.27516 1.43192 2.68477 2.58764 1.72338 4.56667C1.0279 5.99341 1.03302 7.48152 1.46769 8.97986C1.86656 10.3606 2.52113 11.6237 3.2524 12.8459C4.38766 14.7329 5.71213 16.492 6.97523 18.2921C6.99057 18.3125 7.01103 18.3279 7.0366 18.3534Z" fill="#959595"/>
        <path d="M3.51808 7.02628C3.51808 5.08815 5.09824 3.51311 7.03636 3.51311C8.97448 3.51311 10.5495 5.09327 10.5495 7.03139C10.5495 8.96951 8.96937 10.5446 7.03125 10.5446C5.09312 10.5446 3.51297 8.9644 3.51808 7.02628ZM7.03125 9.3735C8.31992 9.3735 9.37847 8.31495 9.37336 7.02116C9.37336 5.7376 8.31992 4.68416 7.03636 4.68416C5.74257 4.67905 4.68402 5.73249 4.68402 7.02628C4.68402 8.31495 5.74257 9.3735 7.03125 9.3735Z" fill="#959595"/>
    </g>
    <defs>
        <clipPath id="clip0_480_427">
            <rect width="14.0629" height="20" fill="white"/>
        </clipPath>
    </defs>
</svg>
