<svg width="15" height="20" viewBox="0 0 15 20" fill="none" xmlns="http://www.w3.org/2000/svg">
    <g clip-path="url(#clip0_366_124)">
        <path d="M6.87804 20.0001C6.72974 19.8569 6.55076 19.729 6.43314 19.5603C5.25186 17.8778 4.06546 16.2005 2.91486 14.4925C1.9637 13.0811 1.13526 11.6032 0.567634 9.99238C0.209669 8.98497 -0.0102235 7.9571 0.00511781 6.87809C0.0511418 3.86096 2.11711 1.14554 5.02174 0.29154C8.8673 -0.833492 12.8254 1.40123 13.843 5.27748C14.2317 6.75536 14.0834 8.20767 13.618 9.63953C13.1169 11.2043 12.3549 12.6516 11.4549 14.0169C10.4065 15.6022 9.30709 17.1466 8.22808 18.7114C8.03376 18.9978 7.84966 19.2892 7.63488 19.5603C7.50704 19.7239 7.33828 19.8569 7.18487 20.0001C7.08259 20.0001 6.98032 20.0001 6.87804 20.0001ZM7.03657 18.3534C7.06214 18.3227 7.08771 18.2972 7.10305 18.2716C8.09001 16.8602 9.09231 15.4539 10.0588 14.0272C10.9793 12.6618 11.8026 11.235 12.3702 9.68044C12.7691 8.58098 13.0044 7.45083 12.8458 6.27466C12.4265 3.12969 9.63437 0.889852 6.46894 1.20691C4.27513 1.43191 2.68474 2.58763 1.72335 4.56666C1.02787 5.99341 1.03299 7.48152 1.46766 8.97985C1.86653 10.3606 2.5211 11.6237 3.25237 12.8459C4.38763 14.7329 5.7121 16.492 6.9752 18.2921C6.99054 18.3125 7.011 18.3278 7.03657 18.3534Z" fill="white"/>
        <path d="M3.51826 7.02623C3.51826 5.08811 5.09842 3.51306 7.03654 3.51306C8.97467 3.51306 10.5497 5.09322 10.5497 7.03134C10.5497 8.96947 8.96955 10.5445 7.03143 10.5445C5.09331 10.5445 3.51315 8.96435 3.51826 7.02623ZM7.03143 9.37346C8.3201 9.37346 9.37866 8.3149 9.37354 7.02112C9.37354 5.73756 8.3201 4.68412 7.03654 4.68412C5.74276 4.679 4.6842 5.73244 4.6842 7.02623C4.6842 8.3149 5.74276 9.37346 7.03143 9.37346Z" fill="white"/>
    </g>
    <defs>
        <clipPath id="clip0_366_124">
            <rect width="14.0629" height="20" fill="white"/>
        </clipPath>
    </defs>
</svg>
