<svg width="14" height="20" viewBox="0 0 14 20" fill="none" xmlns="http://www.w3.org/2000/svg">
    <path fill-rule="evenodd" clip-rule="evenodd" d="M1.90738 20H11.0997C12.1395 20 12.9853 19.1542 12.9853 18.1144V15.0433C12.9995 14.9948 13.0071 14.9435 13.0071 14.8904C13.0071 14.8373 12.9995 14.786 12.9853 14.7375V1.88556C12.9853 0.845776 12.1395 0 11.0997 0H1.90738C0.867594 0 0.0218175 0.845776 0.0218175 1.88556V14.7374C0.00761684 14.7859 0 14.8373 0 14.8904C0 14.9435 0.00761684 14.9949 0.0218175 15.0435V18.1144C0.0218175 19.1542 0.867594 20 1.90738 20ZM11.8954 18.1144V15.4354H1.11174V18.1144C1.11174 18.5526 1.46923 18.9101 1.90738 18.9101H11.0997C11.5379 18.9101 11.8954 18.5526 11.8954 18.1144ZM1.11174 14.3455H11.8954V1.88556C11.8954 1.44741 11.5379 1.08992 11.0997 1.08992H1.90738C1.46923 1.08992 1.11174 1.44741 1.11174 1.88556V14.3455ZM7.18041 17.2731C7.18041 17.6475 6.87689 17.951 6.50248 17.951C6.12807 17.951 5.82455 17.6475 5.82455 17.2731C5.82455 16.8987 6.12807 16.5952 6.50248 16.5952C6.87689 16.5952 7.18041 16.8987 7.18041 17.2731ZM5.26868 3.35702H7.73626C8.03707 3.35702 8.28121 3.11288 8.28121 2.81207C8.28121 2.51125 8.03707 2.26711 7.73626 2.26711H5.26868C4.96786 2.26711 4.72372 2.51125 4.72372 2.81207C4.72372 3.11288 4.96786 3.35702 5.26868 3.35702Z" fill="white"/>
</svg>
