<svg width="22" height="22" viewBox="0 0 22 22" fill="none" xmlns="http://www.w3.org/2000/svg">
    <g clip-path="url(#clip0_407_1612)">
        <path d="M15.7079 0.587935L14.3149 1.98093L19.9697 7.63567L21.3712 6.23416C21.7641 5.84123 21.7678 5.4789 21.3852 5.09487C19.8805 3.59022 18.3761 2.08581 16.8719 0.58163C16.4682 0.17792 16.1158 0.181522 15.7079 0.587935Z" fill="white"/>
        <path d="M12.9992 3.29595C10.0472 6.2479 7.0955 9.19962 4.14402 12.1511C3.96469 12.3266 3.84422 12.5533 3.79945 12.7995C3.67527 13.4441 3.54119 14.0874 3.41276 14.7335C3.16174 15.9804 2.90719 17.2267 2.65969 18.4743C2.56377 18.9458 2.87224 19.3252 3.33418 19.3176C3.39566 19.3096 3.467 19.3086 3.54335 19.2899C5.42862 18.9055 7.3096 18.531 9.18928 18.134C9.41412 18.0848 9.62157 17.9747 9.78883 17.8158C12.7492 14.8666 15.7066 11.9135 18.6609 8.95632L12.9992 3.29595ZM8.54897 16.8894C7.84208 17.0336 3.97649 18.069 3.97649 18.069C3.97649 18.069 4.89105 14.2216 5.04608 13.4645C5.05069 13.4438 5.05764 13.4236 5.06681 13.4044C6.22237 14.5614 7.38145 15.7205 8.54897 16.8894Z" fill="white"/>
    </g>
    <defs>
        <clipPath id="clip0_407_1612">
            <rect width="23.04" height="8" fill="white" transform="translate(0 16.2917) rotate(-45)"/>
        </clipPath>
    </defs>
</svg>
