<svg width="14" height="20" viewBox="0 0 14 20" fill="none" xmlns="http://www.w3.org/2000/svg">
    <g clip-path="url(#clip0_663_40)">
        <path d="M6.50459 16.5864C6.37051 16.5864 6.23944 16.6262 6.12795 16.7007C6.01647 16.7752 5.92957 16.881 5.87826 17.0049C5.82695 17.1288 5.81353 17.2651 5.83969 17.3966C5.86585 17.5281 5.93041 17.6489 6.02522 17.7437C6.12003 17.8385 6.24083 17.9031 6.37233 17.9293C6.50384 17.9554 6.64015 17.942 6.76402 17.8907C6.8879 17.8394 6.99377 17.7525 7.06827 17.641C7.14276 17.5295 7.18252 17.3984 7.18252 17.2644C7.18195 17.0847 7.11033 16.9126 6.98332 16.7856C6.85631 16.6586 6.68422 16.587 6.50459 16.5864Z" fill="#959595"/>
        <path d="M13.007 14.8927C13.0065 14.8439 12.9992 14.7955 12.9852 14.7488V1.88775C12.9847 1.38785 12.7858 0.908585 12.4323 0.555099C12.0788 0.201613 11.5996 0.00277419 11.0997 0.00219727H1.9073C1.4074 0.00277419 0.928142 0.201613 0.574656 0.555099C0.221171 0.908585 0.0223247 1.38785 0.0217478 1.88775V14.7488C-0.00724925 14.8418 -0.00724925 14.9414 0.0217478 15.0344V18.1123C0.0223247 18.6122 0.221171 19.0914 0.574656 19.4449C0.928142 19.7984 1.4074 19.9973 1.9073 19.9978H11.0997C11.5996 19.9973 12.0788 19.7984 12.4323 19.4449C12.7858 19.0914 12.9847 18.6122 12.9852 18.1123V15.0344C12.9992 14.9884 13.0065 14.9407 13.007 14.8927ZM1.9073 1.08993H11.0997C11.3105 1.09051 11.5126 1.17452 11.6616 1.3236C11.8107 1.47269 11.8947 1.67473 11.8953 1.88557V14.3477H1.11167V1.88557C1.11224 1.67473 1.19626 1.47269 1.34534 1.3236C1.49443 1.17452 1.69646 1.09051 1.9073 1.08993ZM11.0997 18.9101H1.9073C1.69609 18.9095 1.49372 18.8252 1.34457 18.6757C1.19542 18.5261 1.11166 18.3235 1.11167 18.1123V15.4376H11.8953V18.1123C11.8953 18.3235 11.8116 18.5261 11.6624 18.6757C11.5133 18.8252 11.3109 18.9095 11.0997 18.9101Z" fill="#959595"/>
        <path d="M5.27518 3.35701H7.7384C7.88293 3.35701 8.02155 3.29959 8.12375 3.19739C8.22594 3.09519 8.28335 2.95658 8.28335 2.81205C8.28335 2.66752 8.22594 2.52891 8.12375 2.42671C8.02155 2.32451 7.88293 2.26709 7.7384 2.26709H5.27518C5.13065 2.26709 4.99204 2.32451 4.88984 2.42671C4.78764 2.52891 4.73022 2.66752 4.73022 2.81205C4.73022 2.95658 4.78764 3.09519 4.88984 3.19739C4.99204 3.29959 5.13065 3.35701 5.27518 3.35701Z" fill="#959595"/>
    </g>
    <defs>
        <clipPath id="clip0_663_40">
            <rect width="13.0071" height="20" fill="white"/>
        </clipPath>
    </defs>
</svg>
