<svg width="21" height="20" viewBox="0 0 21 20" fill="none" xmlns="http://www.w3.org/2000/svg">
    <g clip-path="url(#clip0_488_1631)">
        <path fill-rule="evenodd" clip-rule="evenodd" d="M19.5239 6.66668C19.5864 6.66668 19.6483 6.65436 19.7061 6.63044C19.7639 6.60651 19.8163 6.57146 19.8605 6.52725C19.9048 6.48305 19.9398 6.43057 19.9637 6.37281C19.9876 6.31506 20 6.25314 20 6.19063V4.28647C20.0001 4.19129 19.9718 4.09826 19.9186 4.01936C19.8654 3.94046 19.7897 3.87931 19.7014 3.84383L10.1764 0.0334112C10.0633 -0.0124392 9.93668 -0.0124392 9.82353 0.0334112L0.298556 3.84383C0.210245 3.87931 0.134577 3.94046 0.0813556 4.01936C0.0281346 4.09826 -0.000181374 4.19129 8.74237e-07 4.28647V6.19063C8.74237e-07 6.25314 0.0122692 6.31506 0.0361925 6.37281C0.0601158 6.43057 0.0952106 6.48305 0.139415 6.52725C0.18362 6.57146 0.236111 6.60651 0.293867 6.63044C0.351623 6.65436 0.413483 6.66668 0.475997 6.66668H1.90414V16.1917H0.475997C0.413483 16.1917 0.351623 16.204 0.293867 16.2279C0.236111 16.2519 0.18362 16.2869 0.139415 16.3311C0.0952106 16.3753 0.0601158 16.4278 0.0361925 16.4855C0.0122692 16.5433 8.74237e-07 16.6052 8.74237e-07 16.6677V19.524C8.74237e-07 19.5865 0.0122692 19.6484 0.0361925 19.7061C0.0601158 19.7639 0.0952106 19.8164 0.139415 19.8606C0.18362 19.9048 0.236111 19.9399 0.293867 19.9638C0.351623 19.9877 0.413483 20 0.475997 20H19.5239C19.6502 20 19.7713 19.9499 19.8605 19.8606C19.9498 19.7713 20 19.6502 20 19.524V16.6677C20 16.5415 19.9498 16.4204 19.8605 16.3311C19.7713 16.2418 19.6502 16.1917 19.5239 16.1917H18.0958V6.66668H19.5239ZM0.941595 4.60801L9.99685 0.989674L19.0458 4.60801V5.7146H0.949955L0.941595 4.60801ZM10.9427 16.1917H9.03639V6.66668H10.9427V16.1917ZM8.09475 6.66668V16.1917H5.71456V6.66668H8.09475ZM2.85623 6.66668H4.76246V16.1917H2.85623V6.66668ZM19.0479 19.0479H0.952045V17.1438H19.0479V19.0479ZM15.2375 16.1917V6.66668H17.1437V16.1917H15.2375ZM14.2854 16.1917H11.9052V6.66668H14.2854V16.1917Z" fill="#D8002C"/>
    </g>
    <defs>
        <clipPath id="clip0_488_1631">
            <rect width="20.0021" height="20" fill="white"/>
        </clipPath>
    </defs>
</svg>
