<svg width="20" height="20" viewBox="0 0 20 20" fill="none" xmlns="http://www.w3.org/2000/svg">
    <g clip-path="url(#clip0_488_1627)">
        <path d="M18.2139 2.08941H15.3173V0.579318C15.3173 0.425674 15.2562 0.278318 15.1476 0.169675C15.039 0.0610318 14.8916 0 14.738 0C14.5843 0 14.437 0.0610318 14.3283 0.169675C14.2197 0.278318 14.1586 0.425674 14.1586 0.579318V2.08941H5.8319V0.579318C5.8319 0.425674 5.77087 0.278318 5.66222 0.169675C5.55358 0.0610318 5.40623 0 5.25258 0C5.09894 0 4.95158 0.0610318 4.84294 0.169675C4.73429 0.278318 4.67326 0.425674 4.67326 0.579318V2.08941H1.77667C1.3077 2.08992 0.858092 2.27645 0.526479 2.60806C0.194865 2.93968 0.00832364 3.38928 0.0078125 3.85826V18.2331C0.00832428 18.7019 0.194928 19.1513 0.526597 19.4826C0.858265 19.8139 1.30788 20 1.77667 20H18.2139C18.6825 20 19.1319 19.8138 19.4633 19.4825C19.7946 19.1511 19.9808 18.7017 19.9808 18.2331V3.85826C19.9808 3.38946 19.7947 2.93985 19.4634 2.60818C19.1321 2.27651 18.6827 2.08992 18.2139 2.08941V2.08941ZM1.76894 3.24805H4.66553V4.72531C4.66553 4.87896 4.72656 5.0263 4.83521 5.13494C4.94385 5.24359 5.0912 5.30463 5.24485 5.30463C5.39849 5.30463 5.54585 5.24359 5.65449 5.13494C5.76314 5.0263 5.82417 4.87896 5.82417 4.72531V3.24805H14.1586V4.72531C14.1586 4.87896 14.2197 5.0263 14.3283 5.13494C14.437 5.24359 14.5843 5.30463 14.738 5.30463C14.8916 5.30463 15.039 5.24359 15.1476 5.13494C15.2562 5.0263 15.3173 4.87896 15.3173 4.72531V3.24805H18.2139C18.3754 3.24856 18.5301 3.31307 18.6441 3.42746C18.7581 3.54184 18.8221 3.69675 18.8221 3.85826V7.12755H1.15874V3.85826C1.15925 3.69657 1.22368 3.54167 1.33801 3.42734C1.45234 3.31301 1.60726 3.24856 1.76894 3.24805V3.24805ZM18.2139 18.8414H1.76894C1.60743 18.8414 1.45253 18.7773 1.33815 18.6633C1.22377 18.5493 1.15925 18.3946 1.15874 18.2331V8.28619H18.8221V18.2331C18.8221 18.3944 18.758 18.5491 18.644 18.6632C18.5299 18.7773 18.3752 18.8414 18.2139 18.8414Z" fill="#D8002C"/>
    </g>
    <defs>
        <clipPath id="clip0_488_1627">
            <rect width="19.9807" height="20" fill="white"/>
        </clipPath>
    </defs>
</svg>
