<svg width="18" height="20" viewBox="0 0 18 20" fill="none" xmlns="http://www.w3.org/2000/svg">
    <g clip-path="url(#clip0_407_1861)">
        <path
            d="M0.688096 3.42672H2.71306C2.86171 4.01803 3.20356 4.54278 3.68437 4.91769C4.16519 5.2926 4.75744 5.49621 5.36715 5.49621C5.97686 5.49621 6.5691 5.2926 7.04992 4.91769C7.53074 4.54278 7.87259 4.01803 8.02123 3.42672H17.0884C17.2709 3.42672 17.4459 3.35422 17.5749 3.22518C17.704 3.09614 17.7765 2.92112 17.7765 2.73863C17.7765 2.55613 17.704 2.38112 17.5749 2.25207C17.4459 2.12303 17.2709 2.05053 17.0884 2.05053H8.0114C7.85932 1.46361 7.51664 0.943806 7.03716 0.572727C6.55768 0.201648 5.96854 0.000305176 5.36223 0.000305176C4.75593 0.000305176 4.16679 0.201648 3.68731 0.572727C3.20782 0.943806 2.86514 1.46361 2.71306 2.05053H0.688096C0.505602 2.05053 0.330581 2.12303 0.201538 2.25207C0.0724951 2.38112 0 2.55613 0 2.73863C0 2.92112 0.0724951 3.09614 0.201538 3.22518C0.330581 3.35422 0.505602 3.42672 0.688096 3.42672ZM5.36322 1.3762C5.63332 1.37542 5.89757 1.45483 6.12251 1.60437C6.34744 1.7539 6.52293 1.96683 6.62674 2.21618C6.73056 2.46554 6.75802 2.74009 6.70566 3.00507C6.6533 3.27005 6.52347 3.51354 6.33262 3.70467C6.14176 3.89579 5.89847 4.02597 5.63357 4.07871C5.36867 4.13145 5.09407 4.10438 4.84456 4.00093C4.59506 3.89748 4.38187 3.72231 4.23201 3.49759C4.08215 3.27287 4.00236 3.00873 4.00275 2.73863C4.00327 2.37779 4.14671 2.03185 4.40168 1.77651C4.65664 1.52117 5.00238 1.37724 5.36322 1.3762Z"
            fill="#959595"/>
        <path
            d="M17.0785 9.30892H14.4815C14.3328 8.71761 13.991 8.19288 13.5102 7.81797C13.0293 7.44306 12.4371 7.23944 11.8274 7.23944C11.2177 7.23944 10.6254 7.44306 10.1446 7.81797C9.66379 8.19288 9.32194 8.71761 9.1733 9.30892H0.688096C0.505602 9.30892 0.330581 9.38142 0.201538 9.51047C0.0724951 9.63951 0 9.81453 0 9.99702C0 10.1795 0.0724951 10.3545 0.201538 10.4836C0.330581 10.6126 0.505602 10.6851 0.688096 10.6851H9.18313C9.33177 11.2764 9.67362 11.8012 10.1544 12.1761C10.6353 12.551 11.2275 12.7546 11.8372 12.7546C12.4469 12.7546 13.0392 12.551 13.52 12.1761C14.0008 11.8012 14.3427 11.2764 14.4913 10.6851H17.0884C17.2709 10.6851 17.4459 10.6126 17.5749 10.4836C17.704 10.3545 17.7765 10.1795 17.7765 9.99702C17.7765 9.81453 17.704 9.63951 17.5749 9.51047C17.4459 9.38142 17.2709 9.30892 17.0884 9.30892H17.0785ZM11.8333 11.3594C11.5633 11.3598 11.2992 11.2801 11.0745 11.1303C10.8499 10.9806 10.6747 10.7675 10.5712 10.5181C10.4676 10.2687 10.4405 9.99421 10.493 9.72936C10.5456 9.46451 10.6756 9.22122 10.8665 9.03029C11.0575 8.83935 11.3008 8.70936 11.5656 8.65678C11.8305 8.6042 12.105 8.63138 12.3544 8.73489C12.6038 8.83841 12.8168 9.0136 12.9666 9.23827C13.1164 9.46295 13.1961 9.727 13.1957 9.99702C13.1952 10.3582 13.0515 10.7044 12.7961 10.9598C12.5407 11.2152 12.1945 11.3589 11.8333 11.3594Z"
            fill="#959595"/>
        <path
            d="M17.0785 16.5733H11.5325C11.3804 15.9864 11.0377 15.4666 10.5582 15.0955C10.0788 14.7244 9.48962 14.5231 8.88332 14.5231C8.27701 14.5231 7.68788 14.7244 7.20839 15.0955C6.72891 15.4666 6.38623 15.9864 6.23415 16.5733H0.688096C0.505602 16.5733 0.330581 16.6458 0.201538 16.7748C0.0724951 16.9039 0 17.0789 0 17.2614C0 17.4439 0.0724951 17.6189 0.201538 17.7479C0.330581 17.877 0.505602 17.9495 0.688096 17.9495H6.23415C6.38279 18.5408 6.72464 19.0655 7.20546 19.4405C7.68628 19.8154 8.27853 20.019 8.88823 20.019C9.49794 20.019 10.0902 19.8154 10.571 19.4405C11.0518 19.0655 11.3937 18.5408 11.5423 17.9495H17.0884C17.2709 17.9495 17.4459 17.877 17.5749 17.7479C17.704 17.6189 17.7765 17.4439 17.7765 17.2614C17.7765 17.0789 17.704 16.9039 17.5749 16.7748C17.4459 16.6458 17.2709 16.5733 17.0884 16.5733H17.0785ZM8.8843 18.6238C8.61428 18.6242 8.35022 18.5445 8.12554 18.3947C7.90087 18.2449 7.72569 18.0319 7.62218 17.7825C7.51866 17.5331 7.49148 17.2586 7.54406 16.9937C7.59664 16.7289 7.72663 16.4856 7.91756 16.2947C8.1085 16.1037 8.35179 15.9737 8.61664 15.9212C8.88149 15.8686 9.15599 15.8958 9.40538 15.9993C9.65477 16.1028 9.86784 16.278 10.0176 16.5026C10.1674 16.7273 10.2471 16.9914 10.2467 17.2614C10.2462 17.6226 10.1025 17.9688 9.84711 18.2242C9.59172 18.4796 9.24548 18.6233 8.8843 18.6238Z"
            fill="#959595"/>
    </g>
    <defs>
        <clipPath id="clip0_407_1861">
            <rect width="17.7666" height="20" fill="white"/>
        </clipPath>
    </defs>
</svg>
