<svg width="26" height="10" viewBox="0 0 26 10" fill="none" xmlns="http://www.w3.org/2000/svg">
    <g clip-path="url(#clip0_363_183)">
        <path d="M0.625155 3.83271L5.18188 0.205651C5.58878 -0.117712 6.18161 -0.0503443 6.50767 0.356554C6.83103 0.763452 6.76366 1.35628 6.35676 1.68234L3.37105 4.05906H24.1687C24.6887 4.05906 25.1118 4.48213 25.1118 5.0022C25.1118 5.52228 24.6887 5.94534 24.1687 5.94534H3.37374L6.35676 8.31937C6.76366 8.64273 6.83103 9.23826 6.50767 9.64515C6.32173 9.87959 6.04687 10.0009 5.76932 10.0009C5.56453 10.0009 5.35703 9.93349 5.18188 9.79606L0.625155 6.169C0.237119 5.91031 -1.35909e-05 5.47108 -1.35909e-05 5.0022C-1.35909e-05 4.53063 0.237119 4.0914 0.625155 3.83271Z" fill="#D8002C"/>
    </g>
    <defs>
        <clipPath id="clip0_363_183">
            <rect width="25.1118" height="10" fill="white" transform="matrix(-1 0 0 1 25.1118 0)"/>
        </clipPath>
    </defs>
</svg>
