<svg width="20" height="20" viewBox="0 0 20 20" fill="none" xmlns="http://www.w3.org/2000/svg">
    <g clip-path="url(#clip0_487_1605)">
        <path d="M18.7805 15.6519H10.873C10.7354 15.6522 10.6034 15.7071 10.5061 15.8044C10.4087 15.9018 10.3539 16.0337 10.3535 16.1714V19.4874C10.3539 19.6251 10.4087 19.757 10.5061 19.8544C10.6034 19.9517 10.7354 20.0066 10.873 20.007H18.7805C18.9182 20.007 19.0504 19.9522 19.1478 19.8548C19.2452 19.7574 19.3 19.6252 19.3 19.4874V16.1714C19.3 16.0336 19.2452 15.9014 19.1478 15.804C19.0504 15.7066 18.9182 15.6519 18.7805 15.6519ZM18.6091 19.3092H11.043V16.3427H18.6078L18.6091 19.3092Z" fill="#959595"/>
        <path d="M18.8034 0H1.19515C0.878285 0.000365684 0.574507 0.1264 0.350449 0.350458C0.126392 0.574515 0.000365684 0.878298 0 1.19516V18.8048C0.000365684 19.1217 0.126392 19.4255 0.350449 19.6495C0.574507 19.8736 0.878285 19.9996 1.19515 20H6.3682C6.68519 19.9996 6.98913 19.8736 7.2134 19.6496C7.43768 19.4256 7.56403 19.1218 7.56476 18.8048V16.8442C7.56403 16.5272 7.43768 16.2234 7.2134 15.9994C6.98913 15.7754 6.68519 15.6494 6.3682 15.649H4.34818V4.34819H14.4856V9.64974H10.8767C10.739 9.6501 10.6071 9.70495 10.5097 9.8023C10.4124 9.89965 10.3575 10.0316 10.3572 10.1693V13.4853C10.3575 13.6229 10.4124 13.7547 10.5098 13.8518C10.6072 13.9489 10.7391 14.0035 10.8767 14.0035H18.7813C18.8495 14.0036 18.917 13.9904 18.9801 13.9644C19.0431 13.9384 19.1004 13.9003 19.1486 13.8522C19.1969 13.8041 19.2352 13.7469 19.2613 13.6839C19.2874 13.621 19.3008 13.5535 19.3008 13.4853V10.1693C19.3008 10.0315 19.2461 9.89933 19.1487 9.8019C19.0513 9.70447 18.9191 9.64974 18.7813 9.64974H15.1737V4.34819H18.8007C19.1177 4.34782 19.4216 4.22183 19.6459 3.99781C19.8701 3.77379 19.9965 3.47001 19.9972 3.15302V1.19516C19.9965 0.878649 19.8705 0.575287 19.6468 0.351347C19.4232 0.127408 19.1199 0.00109437 18.8034 0ZM18.6128 13.3071H11.0439V10.3406H18.6086L18.6128 13.3071ZM19.3036 3.15302C19.3032 3.2869 19.2498 3.41518 19.155 3.50972C19.0602 3.60426 18.9318 3.65734 18.7979 3.65734H3.65734V16.3427H6.3682C6.50208 16.3427 6.63049 16.3958 6.72529 16.4903C6.82009 16.5848 6.87355 16.7131 6.87392 16.847V18.8048C6.87355 18.9387 6.82009 19.067 6.72529 19.1615C6.63049 19.2561 6.50208 19.3092 6.3682 19.3092H1.19515C1.06151 19.3088 0.933465 19.2555 0.838966 19.161C0.744467 19.0665 0.691211 18.9385 0.690846 18.8048V1.19516C0.691211 1.06152 0.744467 0.933461 0.838966 0.838962C0.933465 0.744463 1.06151 0.691211 1.19515 0.690846H18.8034C18.9373 0.690846 19.0657 0.743935 19.1605 0.838473C19.2553 0.933012 19.3088 1.06128 19.3091 1.19516L19.3036 3.15302Z" fill="#959595"/>
    </g>
    <defs>
        <clipPath id="clip0_487_1605">
            <rect width="20" height="20" fill="white"/>
        </clipPath>
    </defs>
</svg>
