<svg width="10" height="10" viewBox="0 0 10 10" fill="none" xmlns="http://www.w3.org/2000/svg">
    <path
        d="M5.90794 5.00006L9.80714 1.06868C9.86487 1.01001 9.91048 0.940548 9.94136 0.864254C9.97225 0.78796 9.98781 0.706328 9.98715 0.624023C9.98649 0.541718 9.96961 0.460353 9.9375 0.384567C9.90539 0.308782 9.85868 0.24006 9.80001 0.182331C9.74134 0.124602 9.67186 0.0789941 9.59557 0.0481106C9.51928 0.0172271 9.43766 0.00167597 9.35536 0.00233972C9.27305 0.00300347 9.19167 0.0198672 9.11588 0.0519771C9.0401 0.0840871 8.97138 0.130813 8.91365 0.189481L4.99479 4.14766L1.06341 0.189481C1.00568 0.130813 0.936959 0.0840871 0.861173 0.0519771C0.785387 0.0198672 0.704027 0.00300347 0.621722 0.00233972C0.539417 0.00167597 0.45778 0.0172271 0.381486 0.0481106C0.305193 0.0789941 0.235715 0.124602 0.177047 0.182331C0.118379 0.24006 0.0716643 0.308782 0.0395543 0.384567C0.00744435 0.460353 -0.00943026 0.541718 -0.010094 0.624023C-0.0107577 0.706328 0.00480974 0.78796 0.0356933 0.864254C0.0665768 0.940548 0.112185 1.01001 0.169914 1.06868L4.06733 5.00006L0.169914 8.93143C0.112067 8.9901 0.0663362 9.05959 0.0353442 9.13593C0.00435232 9.21227 -0.0113074 9.29396 -0.0107266 9.37635C-0.0101458 9.45874 0.00666033 9.54021 0.0387254 9.6161C0.0707905 9.69199 0.117507 9.76083 0.176174 9.81867C0.234842 9.87652 0.304319 9.92225 0.380657 9.95324C0.456996 9.98423 0.538702 9.99988 0.62109 9.9993C0.703478 9.99872 0.78493 9.98192 0.860824 9.94986C0.936718 9.91779 1.00556 9.87109 1.06341 9.81242L4.99479 5.85245L8.91722 9.81242C9.03613 9.9284 9.19609 9.99264 9.36218 9.99112C9.48666 9.9917 9.60848 9.95522 9.71216 9.88634C9.81584 9.81746 9.8967 9.71928 9.94442 9.60431C9.99213 9.48935 10.0045 9.36278 9.9801 9.24073C9.95566 9.11868 9.89545 9.00666 9.80714 8.91893L5.90794 5.00006Z"
        fill="#959595"/>
</svg>
