<svg width="16" height="16" viewBox="0 0 16 16" fill="none" xmlns="http://www.w3.org/2000/svg">
    <g clip-path="url(#clip0_1042_428)">
        <path d="M0.589287 3.71082H13.5822L11.7184 5.19583C11.6227 5.27192 11.553 5.37592 11.519 5.49341C11.485 5.6109 11.4884 5.73605 11.5287 5.85151C11.5691 5.96697 11.6443 6.06701 11.7441 6.13778C11.8438 6.20854 11.9631 6.24652 12.0854 6.24644C12.2187 6.24613 12.3479 6.20107 12.4525 6.11848L15.2996 3.85057C15.4198 3.77066 15.5183 3.66229 15.5865 3.5351C15.6546 3.40791 15.6903 3.26584 15.6903 3.12153C15.6903 2.97723 15.6546 2.83516 15.5865 2.70797C15.5183 2.58078 15.4198 2.47241 15.2996 2.3925L12.4525 0.127954C12.3919 0.0797533 12.3224 0.0439587 12.248 0.022611C12.1736 0.00126331 12.0957 -0.00521719 12.0188 0.00353807C11.9419 0.0122933 11.8674 0.036113 11.7997 0.0736383C11.732 0.111164 11.6723 0.161657 11.6241 0.22224C11.5268 0.344591 11.482 0.500604 11.4997 0.655953C11.5174 0.811303 11.5961 0.953266 11.7184 1.05061L13.5822 2.53225H0.589287C0.432999 2.53225 0.283112 2.59433 0.172599 2.70484C0.0620863 2.81536 0 2.96525 0 3.12153C0 3.27782 0.0620863 3.42771 0.172599 3.53823C0.283112 3.64874 0.432999 3.71082 0.589287 3.71082Z" fill="#959595"/>
        <path d="M15.101 12.2874H2.10638L3.9719 10.8024C4.09425 10.7051 4.17292 10.5631 4.1906 10.4078C4.20828 10.2524 4.16353 10.0964 4.06618 9.97408C3.96884 9.85173 3.82687 9.77305 3.67152 9.75537C3.51618 9.73769 3.36016 9.78245 3.23781 9.87979L0.390711 12.1477C0.270549 12.2276 0.172 12.336 0.103835 12.4632C0.0356695 12.5904 0 12.7324 0 12.8767C0 13.021 0.0356695 13.1631 0.103835 13.2903C0.172 13.4175 0.270549 13.5259 0.390711 13.6058L3.23781 15.872C3.29839 15.9202 3.36788 15.956 3.44229 15.9773C3.51671 15.9987 3.5946 16.0052 3.67152 15.9964C3.74845 15.9877 3.82289 15.9638 3.89061 15.9263C3.95832 15.8888 4.01798 15.8383 4.06618 15.7777C4.11438 15.7171 4.15018 15.6476 4.17153 15.5732C4.19287 15.4988 4.19936 15.4209 4.1906 15.344C4.18185 15.2671 4.15802 15.1926 4.1205 15.1249C4.08297 15.0572 4.03248 14.9975 3.9719 14.9493L2.10638 13.466H15.101C15.2573 13.466 15.4072 13.4039 15.5177 13.2934C15.6282 13.1829 15.6903 13.033 15.6903 12.8767C15.6903 12.7204 15.6282 12.5706 15.5177 12.46C15.4072 12.3495 15.2573 12.2874 15.101 12.2874Z" fill="#959595"/>
    </g>
    <defs>
        <clipPath id="clip0_1042_428">
            <rect width="15.6902" height="16" fill="white"/>
        </clipPath>
    </defs>
</svg>
