<svg width="15" height="15" viewBox="0 0 15 15" fill="none" xmlns="http://www.w3.org/2000/svg">
    <g clip-path="url(#clip0_376_1490)">
        <path d="M8.86191 7.50002L14.7107 1.60295C14.7973 1.51495 14.8657 1.41076 14.912 1.29632C14.9584 1.18188 14.9817 1.05943 14.9807 0.935974C14.9797 0.812517 14.9544 0.690469 14.9063 0.57679C14.8581 0.463111 14.788 0.360029 14.7 0.273436C14.612 0.186842 14.5078 0.11843 14.3934 0.0721049C14.2789 0.0257796 14.1565 0.00245292 14.033 0.00344855C13.9096 0.00444418 13.7875 0.0297397 13.6738 0.0779047C13.5601 0.12607 13.4571 0.196158 13.3705 0.28416L7.49218 6.22143L1.59511 0.28416C1.50852 0.196158 1.40544 0.12607 1.29176 0.0779047C1.17808 0.0297397 1.05604 0.00444418 0.932584 0.00344855C0.809126 0.00245292 0.68667 0.0257796 0.57223 0.0721049C0.457789 0.11843 0.353572 0.186842 0.26557 0.273436C0.177569 0.360029 0.107496 0.463111 0.0593315 0.57679C0.0111665 0.690469 -0.0141454 0.812517 -0.015141 0.935974C-0.0161366 1.05943 0.00721461 1.18188 0.0535399 1.29632C0.0998652 1.41076 0.168277 1.51495 0.254871 1.60295L6.10099 7.50002L0.254871 13.3971C0.168101 13.4851 0.0995043 13.5893 0.0530164 13.7038C0.00652848 13.8183 -0.0169611 13.9409 -0.0160899 14.0645C-0.0152187 14.188 0.00999049 14.3102 0.0580881 14.4241C0.106186 14.5379 0.17626 14.6412 0.264262 14.728C0.352263 14.8147 0.456478 14.8833 0.570986 14.9298C0.685494 14.9763 0.808053 14.9998 0.931635 14.9989C1.05522 14.998 1.17739 14.9728 1.29124 14.9247C1.40508 14.8766 1.50834 14.8066 1.59511 14.7186L7.49218 8.77862L13.3758 14.7186C13.5542 14.8925 13.7941 14.9889 14.0433 14.9866C14.23 14.9875 14.4127 14.9328 14.5682 14.8295C14.7238 14.7261 14.8451 14.5789 14.9166 14.4064C14.9882 14.234 15.0068 14.0441 14.9702 13.861C14.9335 13.678 14.8432 13.5099 14.7107 13.3783L8.86191 7.50002Z" fill="white"/>
    </g>
    <defs>
        <clipPath id="clip0_376_1490">
            <rect width="14.9812" height="15" fill="white"/>
        </clipPath>
    </defs>
</svg>
