<svg width="19" height="20" viewBox="0 0 19 20" fill="none" xmlns="http://www.w3.org/2000/svg">
    <g clip-path="url(#clip0_485_1593)">
        <path d="M18.1302 8.33674H16.7316C16.5148 8.33674 16.3068 8.42287 16.1535 8.57617C16.0002 8.72948 15.9141 8.93741 15.9141 9.15422V12.3944C15.9141 12.4141 15.9063 12.433 15.8923 12.447C15.8784 12.4609 15.8595 12.4687 15.8398 12.4687H14.2048C14.1852 12.4683 14.1665 12.4604 14.1527 12.4465C14.1388 12.4327 14.1309 12.414 14.1305 12.3944V9.15422C14.1305 8.93741 14.0444 8.72948 13.8911 8.57617C13.7377 8.42287 13.5298 8.33674 13.313 8.33674H12.2726V4.97467C12.2723 4.80769 12.2325 4.64315 12.1562 4.49458C12.08 4.346 11.9696 4.21764 11.8341 4.12004L6.11175 -0.0045166L0.435483 4.11557C0.301006 4.2136 0.191524 4.34192 0.115865 4.49014C0.0402061 4.63836 0.000506456 4.80232 0 4.96873V18.7098C0.000393377 19.0507 0.135963 19.3775 0.376988 19.6185C0.618013 19.8595 0.944797 19.9951 1.28566 19.9955H18.1302C18.3469 19.9951 18.5546 19.9088 18.7078 19.7556C18.861 19.6024 18.9473 19.3947 18.9477 19.178V9.15422C18.9477 8.93741 18.8616 8.72948 18.7083 8.57617C18.5549 8.42287 18.347 8.33674 18.1302 8.33674ZM0.740187 18.7143V4.97319C0.740061 4.92418 0.751601 4.87586 0.773826 4.83218C0.79605 4.78851 0.828338 4.75074 0.868027 4.722L6.1103 0.917007L11.4031 4.72349C11.4431 4.75198 11.4758 4.78966 11.4983 4.83336C11.5208 4.87707 11.5325 4.92552 11.5324 4.97467V19.2568H1.27677C1.13456 19.2541 0.999045 19.1957 0.899307 19.0943C0.799569 18.9929 0.743526 18.8565 0.743163 18.7143H0.740187ZM18.206 19.1825C18.206 19.2022 18.1982 19.2211 18.1842 19.235C18.1703 19.2489 18.1514 19.2568 18.1317 19.2568H12.28V9.07991H13.3204C13.3401 9.07991 13.3591 9.08773 13.373 9.10167C13.387 9.11561 13.3947 9.13451 13.3947 9.15422V12.3944C13.3951 12.6111 13.4814 12.8188 13.6346 12.972C13.7879 13.1252 13.9955 13.2115 14.2122 13.2119H15.8472C16.0639 13.2115 16.2716 13.1252 16.4248 12.972C16.578 12.8188 16.6643 12.6111 16.6647 12.3944V9.15422C16.6647 9.13451 16.6725 9.11561 16.6864 9.10167C16.7004 9.08773 16.7193 9.07991 16.739 9.07991H18.1376C18.1573 9.07991 18.1762 9.08773 18.1902 9.10167C18.2041 9.11561 18.212 9.13451 18.212 9.15422L18.206 19.1825Z" fill="#959595"/>
        <path d="M5.03608 5.31653H2.78729C2.62238 5.31692 2.46436 5.38271 2.34789 5.49946C2.23142 5.61621 2.16602 5.77439 2.16602 5.9393V8.18662C2.16602 8.3514 2.23145 8.50943 2.34796 8.62594C2.46447 8.74246 2.62252 8.80791 2.78729 8.80791H5.03608C5.20086 8.80791 5.3589 8.74246 5.47541 8.62594C5.59193 8.50943 5.6574 8.3514 5.6574 8.18662V5.94079C5.65759 5.859 5.64167 5.77799 5.61055 5.70235C5.57943 5.62672 5.53372 5.55796 5.47603 5.49999C5.41834 5.44202 5.34979 5.39598 5.27431 5.3645C5.19883 5.33302 5.11787 5.31672 5.03608 5.31653V5.31653ZM4.91423 8.06474H2.90918V6.05969H4.91423V8.06474Z" fill="#959595"/>
        <path d="M9.4912 5.31653H7.24386C7.07881 5.31692 6.92062 5.38266 6.80391 5.49937C6.6872 5.61608 6.62149 5.77425 6.62109 5.9393V8.18662C6.62149 8.35153 6.68727 8.50956 6.80402 8.62603C6.92077 8.7425 7.07894 8.80791 7.24386 8.80791H9.4912C9.65611 8.80791 9.81429 8.7425 9.93104 8.62603C10.0478 8.50956 10.1136 8.35153 10.114 8.18662V5.94079C10.114 5.77548 10.0484 5.61693 9.93166 5.4999C9.81491 5.38287 9.65651 5.31692 9.4912 5.31653V5.31653ZM9.3708 8.06474H7.36426V6.05969H9.3708V8.06474Z" fill="#959595"/>
        <path d="M5.03609 9.84985H2.78729C2.62238 9.85025 2.46436 9.91604 2.34789 10.0328C2.23142 10.1495 2.16602 10.3077 2.16602 10.4726V12.7199C2.16602 12.8847 2.23145 13.0428 2.34796 13.1593C2.46447 13.2758 2.62252 13.3412 2.78729 13.3412H5.03609C5.20086 13.3412 5.3589 13.2758 5.47542 13.1593C5.59193 13.0428 5.6574 12.8847 5.6574 12.7199V10.4726C5.6574 10.3077 5.59199 10.1495 5.47552 10.0328C5.35905 9.91604 5.201 9.85025 5.03609 9.84985V9.84985ZM4.91423 12.5981H2.90918V10.593H4.91423V12.5981Z" fill="#959595"/>
        <path d="M9.4912 9.84985H7.24386C7.07881 9.85025 6.92062 9.91599 6.80391 10.0327C6.6872 10.1494 6.62149 10.3076 6.62109 10.4726V12.7199C6.62149 12.8849 6.68727 13.0429 6.80402 13.1594C6.92077 13.2758 7.07894 13.3412 7.24386 13.3412H9.4912C9.65611 13.3412 9.81429 13.2758 9.93104 13.1594C10.0478 13.0429 10.1136 12.8849 10.114 12.7199V10.4726C10.1136 10.3076 10.0478 10.1494 9.93111 10.0327C9.8144 9.91599 9.65625 9.85025 9.4912 9.84985V9.84985ZM9.3708 12.5981H7.36426V10.593H9.3708V12.5981Z" fill="#959595"/>
        <path d="M5.03608 14.3832H2.78729C2.62264 14.3836 2.46482 14.4492 2.3484 14.5656C2.23197 14.682 2.16641 14.8398 2.16602 15.0045V17.2533C2.16602 17.418 2.23145 17.5761 2.34796 17.6926C2.46447 17.8091 2.62251 17.8746 2.78729 17.8746H5.03608C5.20086 17.8746 5.3589 17.8091 5.47541 17.6926C5.59193 17.5761 5.65739 17.418 5.65739 17.2533V15.0074C5.65779 14.9256 5.64199 14.8445 5.61095 14.7688C5.5799 14.693 5.5342 14.6242 5.47647 14.5662C5.41873 14.5082 5.3501 14.4622 5.27453 14.4308C5.19895 14.3993 5.11792 14.3832 5.03608 14.3832V14.3832ZM4.91423 17.1314H2.90918V15.1263H4.91423V17.1314Z" fill="#959595"/>
        <path d="M9.4912 14.3832H7.24386C7.07894 14.3832 6.92077 14.4486 6.80402 14.5651C6.68727 14.6815 6.62149 14.8396 6.62109 15.0045V17.2533C6.62149 17.4182 6.68727 17.5762 6.80402 17.6927C6.92077 17.8092 7.07894 17.8746 7.24386 17.8746H9.4912C9.65611 17.8746 9.81429 17.8092 9.93104 17.6927C10.0478 17.5762 10.1136 17.4182 10.114 17.2533V15.0074C10.1142 14.9255 10.0982 14.8444 10.067 14.7687C10.0358 14.6929 9.98994 14.6241 9.93209 14.5661C9.87424 14.5081 9.80551 14.4621 9.72986 14.4307C9.6542 14.3993 9.57311 14.3832 9.4912 14.3832V14.3832ZM9.3708 17.1314H7.36426V15.1263H9.3708V17.1314Z" fill="#959595"/>
        <path d="M16.3163 14.3832H14.069C13.9041 14.384 13.7462 14.4501 13.63 14.5672C13.5138 14.6842 13.4488 14.8425 13.4492 15.0074V17.2563C13.4496 17.4212 13.5154 17.5792 13.6321 17.6957C13.7489 17.8121 13.9071 17.8775 14.072 17.8775H16.3193C16.4841 17.8775 16.6421 17.8121 16.7586 17.6956C16.8751 17.5791 16.9406 17.421 16.9406 17.2563V15.0074C16.941 14.9254 16.9251 14.844 16.8939 14.7681C16.8627 14.6922 16.8167 14.6232 16.7587 14.5651C16.7006 14.5071 16.6316 14.4611 16.5557 14.4299C16.4798 14.3987 16.3984 14.3828 16.3163 14.3832V14.3832ZM16.1945 17.1314H14.1924V15.1263H16.1974L16.1945 17.1314Z" fill="#959595"/>
    </g>
    <defs>
        <clipPath id="clip0_485_1593">
            <rect width="18.9477" height="20" fill="white"/>
        </clipPath>
    </defs>
</svg>
