<svg width="20" height="20" viewBox="0 0 20 20" fill="none" xmlns="http://www.w3.org/2000/svg">
    <g clip-path="url(#clip0_371_616)">
        <path
            d="M18.5722 0H1.43333C1.0544 0.000365935 0.691095 0.151055 0.423154 0.418996C0.155213 0.686937 0.00451633 1.05024 0.00415039 1.42916V18.5681C0.00488198 18.9468 0.155759 19.3097 0.42366 19.5774C0.691562 19.845 1.05464 19.9955 1.43333 19.9959H18.5722C18.9507 19.9951 19.3134 19.8445 19.581 19.5769C19.8486 19.3093 19.9993 18.9465 20 18.5681V1.42916C19.9997 1.05048 19.8491 0.687384 19.5815 0.419483C19.3138 0.151581 18.9509 0.000731586 18.5722 0ZM19.0477 1.42916V9.52454H10.4782V0.95508H18.5736C18.6994 0.955342 18.82 1.00498 18.9095 1.0933C18.9536 1.13761 18.9886 1.19023 19.0123 1.24811C19.036 1.30599 19.048 1.36799 19.0477 1.43055V1.42916ZM1.42918 0.952315H9.52455V9.52177H0.9551V1.42916C0.9551 1.3027 1.00534 1.18141 1.09477 1.09198C1.18419 1.00255 1.30547 0.952315 1.43194 0.952315H1.42918ZM0.952333 18.5722V10.4769H9.52178V19.0463H1.42641C1.30018 19.0463 1.17909 18.9963 1.08971 18.9071C1.00032 18.818 0.949932 18.6971 0.949566 18.5708L0.952333 18.5722ZM18.5722 19.0477H10.4768V10.4782H19.0463V18.5736C19.0459 18.6996 18.9957 18.8203 18.9066 18.9094C18.8175 18.9985 18.6968 19.0487 18.5708 19.0491L18.5722 19.0477ZM2.85697 5.23843C2.85733 5.1122 2.90772 4.99126 2.99711 4.90213C3.08649 4.81301 3.20758 4.76296 3.33381 4.76296H4.7616V3.33379C4.75811 3.26911 4.76783 3.20439 4.79018 3.14358C4.81254 3.08278 4.84706 3.02717 4.89162 2.98015C4.93617 2.93312 4.98983 2.89567 5.04934 2.87008C5.10885 2.84448 5.17295 2.83128 5.23773 2.83128C5.30251 2.83128 5.36662 2.84448 5.42613 2.87008C5.48564 2.89567 5.53932 2.93312 5.58388 2.98015C5.62844 3.02717 5.66296 3.08278 5.68532 3.14358C5.70767 3.20439 5.71739 3.26911 5.7139 3.33379V4.76296H7.14307C7.20776 4.75947 7.27246 4.7692 7.33326 4.79156C7.39406 4.81391 7.44969 4.84842 7.49672 4.89298C7.54374 4.93754 7.5812 4.99121 7.60679 5.05072C7.63238 5.11023 7.64556 5.17434 7.64556 5.23912C7.64556 5.3039 7.63238 5.368 7.60679 5.42751C7.5812 5.48702 7.54374 5.5407 7.49672 5.58525C7.44969 5.62981 7.39406 5.66432 7.33326 5.68668C7.27246 5.70903 7.20776 5.71876 7.14307 5.71527H5.7139V7.14306C5.71739 7.20774 5.70767 7.27246 5.68532 7.33327C5.66296 7.39407 5.62844 7.44968 5.58388 7.4967C5.53932 7.54373 5.48564 7.58118 5.42613 7.60677C5.36662 7.63237 5.30251 7.64557 5.23773 7.64557C5.17295 7.64557 5.10885 7.63237 5.04934 7.60677C4.98983 7.58118 4.93617 7.54373 4.89162 7.4967C4.84706 7.44968 4.81254 7.39407 4.79018 7.33327C4.76783 7.27246 4.75811 7.20774 4.7616 7.14306V5.71527H3.33104C3.20517 5.71418 3.08481 5.66351 2.99606 5.57424C2.90731 5.48497 2.85733 5.36431 2.85697 5.23843ZM13.0767 4.22944C13.0322 4.18506 12.997 4.13236 12.9729 4.07434C12.9488 4.01632 12.9363 3.95412 12.9362 3.8913C12.9362 3.82847 12.9485 3.76625 12.9725 3.70818C12.9965 3.65011 13.0316 3.59734 13.076 3.55287C13.1204 3.5084 13.1731 3.47311 13.2311 3.449C13.2892 3.4249 13.3513 3.41246 13.4142 3.4124C13.477 3.41234 13.5392 3.42465 13.5973 3.44863C13.6554 3.47261 13.7081 3.5078 13.7526 3.55218L14.7616 4.56254L15.7719 3.55356C15.8618 3.46393 15.9835 3.41365 16.1104 3.41378C16.2373 3.41391 16.3589 3.46444 16.4485 3.55425C16.5382 3.64406 16.5884 3.7658 16.5883 3.89268C16.5882 4.01956 16.5376 4.1412 16.4478 4.23082L15.4389 5.23981L16.4478 6.24879C16.5355 6.33973 16.5845 6.46111 16.5845 6.58742C16.5845 6.71374 16.5355 6.83512 16.4478 6.92606C16.4027 6.97068 16.3492 7.00589 16.2903 7.02962C16.2315 7.05335 16.1685 7.06513 16.105 7.06427C16.0431 7.06446 15.9818 7.05233 15.9246 7.0286C15.8674 7.00488 15.8155 6.97002 15.7719 6.92606L14.7616 5.91569L13.7526 6.92606C13.709 6.97002 13.6571 7.00488 13.5999 7.0286C13.5427 7.05233 13.4814 7.06446 13.4195 7.06427C13.356 7.06513 13.2931 7.05335 13.2342 7.02962C13.1754 7.00589 13.1218 6.97068 13.0767 6.92606C12.9891 6.83512 12.9401 6.71374 12.9401 6.58742C12.9401 6.46111 12.9891 6.33973 13.0767 6.24879L14.0857 5.23981L13.0767 4.22944ZM4.90532 13.1901C4.86071 13.1469 4.82546 13.0951 4.80169 13.0378C4.77791 12.9805 4.76612 12.919 4.7671 12.857C4.76637 12.795 4.77827 12.7335 4.80203 12.6762C4.82579 12.6189 4.86091 12.5671 4.90532 12.5238C4.96663 12.451 5.04879 12.3987 5.14072 12.374C5.23265 12.3493 5.32996 12.3534 5.41951 12.3856C5.47909 12.4056 5.53177 12.442 5.57153 12.4907C5.61739 12.5332 5.65396 12.5847 5.67894 12.6421C5.70392 12.6994 5.71676 12.7612 5.71667 12.8238C5.71651 12.8863 5.70356 12.9481 5.6786 13.0054C5.65364 13.0626 5.61719 13.1142 5.57153 13.1569C5.53138 13.2051 5.47882 13.2414 5.41951 13.2619C5.35995 13.2757 5.29801 13.2757 5.23844 13.2619C5.18119 13.2731 5.12229 13.2728 5.06513 13.2612C5.00797 13.2496 4.95366 13.2268 4.90532 13.1942V13.1901ZM5.57153 16.3331C5.61671 16.3761 5.65236 16.428 5.67617 16.4857C5.69998 16.5433 5.71142 16.6053 5.70975 16.6676C5.72496 16.7265 5.72496 16.7883 5.70975 16.8473C5.65927 16.9625 5.5676 17.0546 5.45268 17.1057C5.39297 17.1182 5.33133 17.1182 5.27161 17.1057C5.20956 17.1069 5.14793 17.0952 5.09061 17.0714C5.03329 17.0476 4.9815 17.0123 4.93849 16.9675C4.86754 16.9494 4.80418 16.9092 4.75745 16.8528C4.74361 16.7937 4.74361 16.7322 4.75745 16.6731C4.7562 16.6109 4.76781 16.549 4.7916 16.4914C4.81538 16.4339 4.85083 16.3819 4.89567 16.3386C4.95698 16.2658 5.03911 16.2135 5.13103 16.1888C5.22296 16.1641 5.32027 16.1682 5.40983 16.2004C5.4734 16.2299 5.52642 16.2782 5.56185 16.3386L5.57153 16.3331ZM7.61577 14.7616C7.61577 14.888 7.56552 15.0093 7.4761 15.0988C7.38667 15.1882 7.26539 15.2384 7.13892 15.2384H3.33104C3.26635 15.2419 3.20163 15.2322 3.14082 15.2098C3.08002 15.1875 3.02442 15.153 2.9774 15.1084C2.93038 15.0639 2.89292 15.0102 2.86733 14.9507C2.84173 14.8912 2.82852 14.8271 2.82852 14.7623C2.82852 14.6975 2.84173 14.6334 2.86733 14.5739C2.89292 14.5144 2.93038 14.4607 2.9774 14.4161C3.02442 14.3716 3.08002 14.3371 3.14082 14.3147C3.20163 14.2924 3.26635 14.2826 3.33104 14.2861H7.14031C7.26654 14.2861 7.38762 14.3362 7.47701 14.4253C7.5664 14.5144 7.61678 14.6354 7.61715 14.7616H7.61577ZM17.1389 14.7616C17.1389 14.8878 17.0889 15.0089 16.9997 15.0983C16.9106 15.1877 16.7897 15.2381 16.6634 15.2384H12.8528C12.7309 15.2319 12.6163 15.1788 12.5323 15.0903C12.4484 15.0017 12.4016 14.8843 12.4016 14.7623C12.4016 14.6402 12.4484 14.5229 12.5323 14.4343C12.6163 14.3457 12.7309 14.2927 12.8528 14.2861H16.6634C16.7894 14.2865 16.9102 14.3367 16.9993 14.4258C17.0884 14.5149 17.1385 14.6356 17.1389 14.7616Z"
            fill="#D8002C"/>
    </g>
    <defs>
        <clipPath id="clip0_371_616">
            <rect width="20" height="20" fill="white"/>
        </clipPath>
    </defs>
</svg>
