<svg width="18" height="25" viewBox="0 0 18 25" fill="none" xmlns="http://www.w3.org/2000/svg">
    <g clip-path="url(#clip0_391_3192)">
        <path
            d="M8.59795 25.0001C8.41258 24.8211 8.18885 24.6613 8.04183 24.4504C6.56523 22.3473 5.08223 20.2507 3.64398 18.1157C2.45502 16.3514 1.41948 14.5041 0.709947 12.4905C0.262491 11.2312 -0.0123751 9.9464 0.00680162 8.59764C0.0643317 4.82623 2.64679 1.43196 6.27758 0.364455C11.0845 -1.04183 16.0321 1.75157 17.3042 6.59688C17.79 8.44423 17.6046 10.2596 17.0229 12.0494C16.3965 14.0055 15.444 15.8145 14.319 17.5212C13.0086 19.5028 11.6343 21.4332 10.2855 23.3893C10.0426 23.7472 9.81248 24.1116 9.54401 24.4504C9.3842 24.6549 9.17326 24.8211 8.98149 25.0001C8.85364 25.0001 8.7258 25.0001 8.59795 25.0001ZM8.79611 22.9418C8.82808 22.9034 8.86004 22.8715 8.87921 22.8395C10.1129 21.0753 11.3658 19.3174 12.5739 17.534C13.7245 15.8273 14.7537 14.0438 15.4632 12.1006C15.9618 10.7263 16.2558 9.31357 16.0577 7.84336C15.5335 3.91214 12.0434 1.11235 8.08658 1.50866C5.34431 1.78992 3.35633 3.23457 2.15459 5.70836C1.28525 7.49179 1.29164 9.35193 1.83498 11.2248C2.33357 12.9508 3.15178 14.5296 4.06587 16.0574C5.48494 18.4161 7.14053 20.615 8.71941 22.8651C8.73858 22.8907 8.76415 22.9098 8.79611 22.9418Z"
            fill="#D8002C"/>
        <path
            d="M4.39748 8.78282C4.39748 6.36016 6.37267 4.39136 8.79533 4.39136C11.218 4.39136 13.1868 6.36656 13.1868 8.78921C13.1868 11.2119 11.2116 13.1807 8.78894 13.1807C6.36628 13.1807 4.39108 11.2055 4.39748 8.78282ZM8.78894 11.7168C10.3998 11.7168 11.723 10.3937 11.7166 8.77642C11.7166 7.17198 10.3998 5.85518 8.79533 5.85518C7.1781 5.84879 5.8549 7.16558 5.8549 8.78282C5.8549 10.3937 7.1781 11.7168 8.78894 11.7168Z"
            fill="#D8002C"/>
    </g>
    <defs>
        <clipPath id="clip0_391_3192">
            <rect width="17.5786" height="25" fill="white"/>
        </clipPath>
    </defs>
</svg>
