<svg width="18" height="18" viewBox="0 0 18 18" fill="none" xmlns="http://www.w3.org/2000/svg">
    <g clip-path="url(#clip0_1042_423)">
        <path d="M9 0C7.21997 0 5.47993 0.52784 3.99989 1.51677C2.51985 2.50571 1.36628 3.91131 0.685093 5.55585C0.00390425 7.20038 -0.174332 9.00998 0.172935 10.7558C0.520202 12.5016 1.37738 14.1053 2.63605 15.364C3.89473 16.6226 5.49838 17.4798 7.24421 17.8271C8.99004 18.1743 10.7996 17.9961 12.4442 17.3149C14.0887 16.6337 15.4943 15.4802 16.4832 14.0001C17.4722 12.5201 18 10.78 18 9C17.997 6.61396 17.0479 4.32651 15.3607 2.63932C13.6735 0.952141 11.386 0.00297372 9 0ZM9 0.9833C10.5152 0.981246 11.9998 1.40915 13.2815 2.21729C14.5632 3.02544 15.5892 4.18066 16.2404 5.54873C16.8917 6.91681 17.1413 8.44159 16.9605 9.94593C16.7796 11.4503 16.1756 12.8724 15.2187 14.0471C14.3481 12.4874 12.9256 11.3099 11.2307 10.7461C11.8897 10.2738 12.3818 9.60446 12.6361 8.83459C12.8904 8.06473 12.8937 7.23402 12.6456 6.46212C12.3976 5.69022 11.911 5.01697 11.2558 4.53935C10.6006 4.06173 9.81077 3.80438 9 3.80438C8.18923 3.80438 7.39939 4.06173 6.74423 4.53935C6.08907 5.01697 5.60241 5.69022 5.35436 6.46212C5.10632 7.23402 5.10968 8.06473 5.36397 8.83459C5.61825 9.60446 6.11033 10.2738 6.76933 10.7461C5.07446 11.3099 3.65185 12.4874 2.78133 14.0471C1.82438 12.8724 1.22039 11.4503 1.03953 9.94593C0.858666 8.44159 1.10835 6.91681 1.75958 5.54873C2.41082 4.18066 3.43688 3.02544 4.71854 2.21729C6.00019 1.40915 7.48483 0.981246 9 0.9833ZM9 10.3949C8.45568 10.3957 7.92335 10.2351 7.47032 9.93336C7.01729 9.63161 6.66392 9.20229 6.45492 8.6997C6.24591 8.1971 6.19066 7.64381 6.29613 7.10981C6.40161 6.57581 6.66306 6.08508 7.04746 5.69969C7.43186 5.31431 7.92194 5.05158 8.45567 4.94474C8.98941 4.8379 9.54283 4.89175 10.046 5.09948C10.5491 5.3072 10.9793 5.65947 11.2822 6.11173C11.5851 6.56399 11.7471 7.09592 11.7476 7.64024C11.7465 8.36887 11.4568 9.06738 10.9418 9.58286C10.4268 10.0983 9.72863 10.3888 9 10.3907V10.3949ZM3.56095 14.89C4.0553 13.868 4.82728 13.0057 5.78864 12.4018C6.74999 11.7979 7.8619 11.4768 8.99719 11.4751C10.1325 11.4768 11.2444 11.7979 12.2057 12.4018C13.1671 13.0057 13.9391 13.868 14.4335 14.89C12.9544 16.2606 11.0123 17.0221 8.99578 17.0221C6.97929 17.0221 5.03718 16.2606 3.55814 14.89H3.56095Z" fill="#959595"/>
    </g>
    <defs>
        <clipPath id="clip0_1042_423">
            <rect width="18" height="18" fill="white"/>
        </clipPath>
    </defs>
</svg>
