<svg width="10" height="20" viewBox="0 0 10 20" fill="none" xmlns="http://www.w3.org/2000/svg">
    <g clip-path="url(#clip0_488_1636)">
        <path fill-rule="evenodd" clip-rule="evenodd" d="M4.62991 2.74133C5.50393 2.74174 6.342 3.08928 6.95982 3.70752C7.57763 4.32576 7.92459 5.16407 7.92438 6.0381C7.92438 6.21491 7.99462 6.38448 8.11965 6.5095C8.24467 6.63452 8.41424 6.70476 8.59105 6.70476C8.76786 6.70476 8.93743 6.63452 9.06246 6.5095C9.18748 6.38448 9.25772 6.21491 9.25772 6.0381C9.25717 4.92607 8.85662 3.85135 8.12922 3.01023C7.40183 2.16911 6.39613 1.61771 5.29581 1.45676V0.666667C5.29581 0.489856 5.22557 0.320287 5.10055 0.195263C4.97553 0.0702383 4.80596 0 4.62914 0C4.45233 0 4.28277 0.0702383 4.15774 0.195263C4.03272 0.320287 3.96248 0.489856 3.96248 0.666667V1.456C2.80432 1.62409 1.7528 2.22458 1.01951 3.13665C0.28622 4.04873 -0.0744198 5.20468 0.010161 6.37191C0.0947417 7.53914 0.618265 8.63103 1.47539 9.42785C2.33251 10.2247 3.45961 10.6673 4.62991 10.6667C5.28189 10.6664 5.91932 10.8594 6.46156 11.2215C7.0038 11.5835 7.4265 12.0982 7.67617 12.7005C7.92585 13.3027 7.9913 13.9655 7.86423 14.605C7.73716 15.2445 7.42329 15.8319 6.96233 16.293C6.50136 16.7541 5.914 17.0681 5.27454 17.1953C4.63509 17.3225 3.97227 17.2572 3.36993 17.0077C2.76759 16.7582 2.25279 16.3356 1.89064 15.7934C1.5285 15.2513 1.33528 14.6139 1.33543 13.9619C1.33543 13.7851 1.26519 13.6155 1.14017 13.4905C1.01514 13.3655 0.845575 13.2952 0.668764 13.2952C0.491953 13.2952 0.322383 13.3655 0.197359 13.4905C0.0723345 13.6155 0.00209734 13.7851 0.00209734 13.9619C0.00269184 15.0738 0.403296 16.1483 1.13072 16.9891C1.85814 17.83 2.86382 18.3811 3.964 18.5417V19.3341C3.964 19.5109 4.03424 19.6805 4.15926 19.8055C4.28429 19.9305 4.45386 20.0008 4.63067 20.0008C4.80748 20.0008 4.97705 19.9305 5.10207 19.8055C5.2271 19.6805 5.29734 19.5109 5.29734 19.3341V18.541C6.45122 18.3682 7.49734 17.7662 8.22636 16.8552C8.95539 15.9443 9.31355 14.7916 9.2292 13.6279C9.14485 12.4643 8.6242 11.3753 7.77142 10.579C6.91865 9.78276 5.79664 9.33785 4.62991 9.33333C3.76453 9.32018 2.93906 8.96717 2.33174 8.35055C1.72443 7.73394 1.38402 6.90319 1.38402 6.03771C1.38402 5.17224 1.72443 4.34149 2.33174 3.72488C2.93906 3.10826 3.76453 2.75525 4.62991 2.7421V2.74133Z" fill="#D8002C"/>
    </g>
    <defs>
        <clipPath id="clip0_488_1636">
            <rect width="9.25943" height="20" fill="white"/>
        </clipPath>
    </defs>
</svg>
