<svg width="30" height="30" viewBox="0 0 30 30" fill="none" xmlns="http://www.w3.org/2000/svg">
    <g clip-path="url(#clip0_492_2559)">
        <path d="M29.3561 28.7166H28.8772V8.0042C28.877 7.90343 28.8532 7.80409 28.8076 7.71422C28.762 7.62435 28.696 7.54646 28.6147 7.48681C28.5335 7.42716 28.4394 7.38743 28.34 7.37083C28.2406 7.35422 28.1387 7.3612 28.0425 7.39122L27.5198 7.55542V3.4726C27.5201 3.33556 27.4764 3.20206 27.3951 3.09172C27.3138 2.98139 27.1993 2.90002 27.0683 2.85961L18.038 0.0301053C17.9421 -0.000660156 17.8402 -0.00826389 17.7408 0.00790815C17.6414 0.0240802 17.5472 0.0635586 17.466 0.123136C17.3829 0.181716 17.3148 0.259093 17.2673 0.348966C17.2197 0.438838 17.194 0.538671 17.1924 0.640334V10.7899L16.2839 11.0636C16.1535 11.1045 16.0395 11.186 15.9587 11.2963C15.878 11.4066 15.8347 11.5399 15.8351 11.6766V28.7166H14.1412V5.79587C14.1415 5.70457 14.1221 5.61428 14.0843 5.53117C14.0465 5.44805 13.9913 5.37406 13.9223 5.31424L8.04707 0.158712C7.92968 0.0570449 7.77961 0.00109368 7.62431 0.00109368C7.46901 0.00109368 7.31887 0.0570449 7.20148 0.158712L1.32627 5.31424C1.25771 5.3744 1.20274 5.44847 1.16499 5.5315C1.12725 5.61454 1.10762 5.70465 1.10737 5.79587V28.7166H0.628487C0.465539 28.7272 0.312753 28.7995 0.201113 28.9186C0.089473 29.0378 0.0273438 29.195 0.0273438 29.3583C0.0273438 29.5216 0.089473 29.6788 0.201113 29.7979C0.312753 29.9171 0.465539 29.9894 0.628487 30H29.3615C29.4493 30.0057 29.5373 29.9934 29.6201 29.9637C29.703 29.9341 29.7789 29.8878 29.8431 29.8276C29.9073 29.7675 29.9585 29.6948 29.9935 29.6141C30.0285 29.5333 30.0465 29.4463 30.0465 29.3583C30.0465 29.2703 30.0285 29.1833 29.9935 29.1026C29.9585 29.0218 29.9073 28.9491 29.8431 28.889C29.7789 28.8288 29.703 28.7825 29.6201 28.7528C29.5373 28.7232 29.4493 28.7109 29.3615 28.7166H29.3561ZM18.4867 10.3822V1.51601L26.2392 3.94326V7.94673L18.4867 10.3822ZM27.5937 28.7166H17.1294V12.1582L27.5937 8.8744V28.7166ZM2.40175 23.8539V20.2609H12.8688V23.8429L2.40175 23.8539ZM2.40175 18.9884V15.4036H12.8688V18.9884H2.40175ZM2.40175 14.1202V10.5382H12.8688V14.1202H2.40175ZM2.40175 9.25478V6.08593L7.6366 1.49411L12.8688 6.08593V9.25478H2.40175ZM12.8688 28.7166H2.40442V25.1373H12.8715L12.8688 28.7166Z" fill="#D8002C"/>
        <path d="M25.1397 16.7692C25.3103 16.7692 25.4738 16.7014 25.5944 16.5808C25.715 16.4602 25.7828 16.2966 25.7828 16.1261V13.9916C25.7885 13.9039 25.7762 13.8158 25.7465 13.733C25.7169 13.6501 25.6705 13.5743 25.6104 13.5101C25.5502 13.4458 25.4776 13.3947 25.3969 13.3597C25.3161 13.3247 25.2291 13.3066 25.1411 13.3066C25.0531 13.3066 24.9661 13.3247 24.8854 13.3597C24.8046 13.3947 24.7319 13.4458 24.6718 13.5101C24.6116 13.5743 24.5653 13.6501 24.5356 13.733C24.506 13.8158 24.4937 13.9039 24.4994 13.9916V16.1261C24.4994 16.2962 24.5667 16.4593 24.6867 16.5798C24.8068 16.7004 24.9696 16.7684 25.1397 16.7692Z" fill="#D8002C"/>
        <path d="M22.3624 16.7692C22.533 16.7692 22.6965 16.7014 22.8171 16.5808C22.9377 16.4602 23.0055 16.2966 23.0055 16.1261V13.9916C23.0112 13.9039 22.9989 13.8158 22.9693 13.733C22.9396 13.6501 22.8932 13.5743 22.8331 13.5101C22.7729 13.4458 22.7002 13.3947 22.6195 13.3597C22.5388 13.3247 22.4517 13.3066 22.3638 13.3066C22.2758 13.3066 22.1887 13.3247 22.108 13.3597C22.0273 13.3947 21.9547 13.4458 21.8945 13.5101C21.8344 13.5743 21.788 13.6501 21.7583 13.733C21.7287 13.8158 21.7163 13.9039 21.7221 13.9916V16.1261C21.7221 16.2962 21.7895 16.4593 21.9095 16.5798C22.0295 16.7004 22.1924 16.7684 22.3624 16.7692Z" fill="#D8002C"/>
        <path d="M19.585 16.7692C19.7556 16.7692 19.9192 16.7014 20.0398 16.5808C20.1604 16.4602 20.2281 16.2966 20.2281 16.1261V13.9916C20.2339 13.9039 20.2215 13.8158 20.1918 13.733C20.1622 13.6501 20.1159 13.5743 20.0558 13.5101C19.9956 13.4458 19.9229 13.3947 19.8422 13.3597C19.7614 13.3247 19.6744 13.3066 19.5864 13.3066C19.4984 13.3066 19.4114 13.3247 19.3307 13.3597C19.25 13.3947 19.1772 13.4458 19.1171 13.5101C19.0569 13.5743 19.0106 13.6501 18.9809 13.733C18.9513 13.8158 18.939 13.9039 18.9447 13.9916V16.1261C18.9447 16.2962 19.0121 16.4593 19.1321 16.5798C19.2521 16.7004 19.4149 16.7684 19.585 16.7692Z" fill="#D8002C"/>
        <path d="M25.1397 21.6291C25.3098 21.6291 25.473 21.5618 25.5935 21.4418C25.714 21.3218 25.7821 21.1589 25.7828 20.9888V18.8516C25.7885 18.7638 25.7762 18.6758 25.7465 18.5929C25.7169 18.5101 25.6705 18.4342 25.6104 18.37C25.5502 18.3058 25.4776 18.2547 25.3969 18.2197C25.3161 18.1847 25.2291 18.1666 25.1411 18.1666C25.0531 18.1666 24.9661 18.1847 24.8854 18.2197C24.8046 18.2547 24.7319 18.3058 24.6718 18.37C24.6116 18.4342 24.5653 18.5101 24.5356 18.5929C24.506 18.6758 24.4937 18.7638 24.4994 18.8516V20.9888C24.4994 21.1586 24.5669 21.3215 24.6869 21.4416C24.807 21.5617 24.9699 21.6291 25.1397 21.6291Z" fill="#D8002C"/>
        <path d="M22.3624 21.6291C22.5325 21.6291 22.6957 21.5618 22.8162 21.4418C22.9367 21.3218 23.0047 21.1589 23.0055 20.9888V18.8516C23.0112 18.7638 22.9989 18.6758 22.9693 18.5929C22.9396 18.5101 22.8932 18.4342 22.8331 18.37C22.7729 18.3058 22.7002 18.2547 22.6195 18.2197C22.5388 18.1847 22.4517 18.1666 22.3638 18.1666C22.2758 18.1666 22.1887 18.1847 22.108 18.2197C22.0273 18.2547 21.9547 18.3058 21.8945 18.37C21.8344 18.4342 21.788 18.5101 21.7583 18.5929C21.7287 18.6758 21.7163 18.7638 21.7221 18.8516V20.9888C21.7221 21.1586 21.7895 21.3215 21.9096 21.4416C22.0297 21.5617 22.1926 21.6291 22.3624 21.6291Z" fill="#D8002C"/>
        <path d="M19.585 21.6291C19.7551 21.6291 19.9183 21.5618 20.0388 21.4418C20.1593 21.3218 20.2274 21.1589 20.2281 20.9888V18.8516C20.2339 18.7638 20.2215 18.6758 20.1918 18.5929C20.1622 18.5101 20.1159 18.4342 20.0558 18.37C19.9956 18.3058 19.9229 18.2547 19.8422 18.2197C19.7614 18.1847 19.6744 18.1666 19.5864 18.1666C19.4984 18.1666 19.4114 18.1847 19.3307 18.2197C19.25 18.2547 19.1772 18.3058 19.1171 18.37C19.0569 18.4342 19.0106 18.5101 18.9809 18.5929C18.9513 18.6758 18.939 18.7638 18.9447 18.8516V20.9888C18.9447 21.1586 19.0122 21.3215 19.1323 21.4416C19.2523 21.5617 19.4152 21.6291 19.585 21.6291Z" fill="#D8002C"/>
        <path d="M25.1403 26.4946C25.3104 26.4946 25.4735 26.4272 25.5941 26.3072C25.7146 26.1872 25.7827 26.0243 25.7834 25.8542V23.717C25.7727 23.5541 25.7005 23.4013 25.5813 23.2897C25.4621 23.178 25.305 23.1159 25.1417 23.1159C24.9784 23.1159 24.8212 23.178 24.702 23.2897C24.5829 23.4013 24.5106 23.5541 24.5 23.717V25.8542C24.5 25.9383 24.5165 26.0216 24.5487 26.0993C24.5809 26.177 24.6281 26.2476 24.6875 26.307C24.747 26.3665 24.8176 26.4136 24.8952 26.4458C24.9729 26.478 25.0562 26.4946 25.1403 26.4946Z" fill="#D8002C"/>
        <path d="M22.363 26.4946C22.5331 26.4946 22.6963 26.4272 22.8168 26.3072C22.9373 26.1872 23.0053 26.0243 23.006 25.8542V23.717C22.9954 23.5541 22.9232 23.4013 22.804 23.2897C22.6848 23.178 22.5276 23.1159 22.3644 23.1159C22.2011 23.1159 22.0439 23.178 21.9248 23.2897C21.8056 23.4013 21.7333 23.5541 21.7227 23.717V25.8542C21.7227 25.9383 21.7392 26.0216 21.7714 26.0993C21.8036 26.177 21.8507 26.2476 21.9102 26.307C21.9696 26.3665 22.0403 26.4136 22.118 26.4458C22.1957 26.478 22.2789 26.4946 22.363 26.4946Z" fill="#D8002C"/>
        <path d="M19.5856 26.4946C19.7557 26.4946 19.9188 26.4272 20.0394 26.3072C20.1599 26.1872 20.228 26.0243 20.2287 25.8542V23.717C20.2181 23.5541 20.1458 23.4013 20.0267 23.2897C19.9075 23.178 19.7503 23.1159 19.587 23.1159C19.4237 23.1159 19.2665 23.178 19.1473 23.2897C19.0282 23.4013 18.956 23.5541 18.9453 23.717V25.8542C18.9453 25.9383 18.9618 26.0216 18.994 26.0993C19.0262 26.177 19.0734 26.2476 19.1328 26.307C19.1923 26.3665 19.2629 26.4136 19.3406 26.4458C19.4182 26.478 19.5015 26.4946 19.5856 26.4946Z" fill="#D8002C"/>
    </g>
    <defs>
        <clipPath id="clip0_492_2559">
            <rect width="30" height="30" fill="white"/>
        </clipPath>
    </defs>
</svg>
