
<svg xmlns="http://www.w3.org/2000/svg" xml:space="preserve" width="95.9287mm" height="54.3204mm" version="1.1" style="shape-rendering:geometricPrecision; text-rendering:geometricPrecision; image-rendering:optimizeQuality; fill-rule:evenodd; clip-rule:evenodd"
     viewBox="0 0 4276.76 2421.75"
     xmlns:xlink="http://www.w3.org/1999/xlink">
 <defs>
  <style type="text/css">
   <![CDATA[
    .fil1 {fill:white}
    .fil0 {fill:white;fill-rule:nonzero}
   ]]>
  </style>
 </defs>
    <g id="Layer_x0020_1">
  <metadata id="CorelCorpID_0Corel-Layer"/>
        <g id="_3052906604576">
   <path class="fil0" d="M2413.08 348.34l96.52 0 0 -105.49 42.28 0 70.16 105.49 111.44 0 -83.09 -121.32c43.29,-18.4 71.64,-53.7 71.64,-106.99l0 -1.07c0,-34.23 -10.44,-61.19 -30.84,-81.09 -23.38,-23.75 -60.18,-37.87 -113.44,-37.87l-164.67 0 0 348.34zm96.52 -181.01l0 -83.66 63.18 0c32.33,0 52.26,13.91 52.26,41.3l0 1.07c0,25.25 -18.92,41.3 -51.76,41.3l-63.68 0zm261.17 181.01l282.61 0 0 -82.17 -187.08 0 0 -55.2 167.2 0 0 -75.96 -167.2 0 0 -52.85 184.57 0 0 -82.17 -280.1 0 0 348.34zm331.88 0l132.34 0c125.36,0 198.47,-74.67 198.47,-175.02l0 -1.07c0,-100.57 -72.13,-172.25 -196.51,-172.25l-134.31 0 0 348.34zm96.53 -85.59l0 -177.17 39.3 0c57.69,0 95.99,32.31 95.99,88.15l0 1.07c0,56.06 -38.3,87.94 -95.99,87.94l-39.3 0zm-784.11 582.85l97.02 0 0 -348.34 -97.02 0 0 348.34zm160.67 0l95.54 0 0 -191.08 148.75 191.08 84.58 0 0 -348.34 -95.54 0 0 184.22 -143.25 -184.22 -90.08 0 0 348.34zm504.02 2.35l89.55 0 141.28 -350.7 -105.96 0 -79.1 220.39 -79.13 -220.39 -107.95 0 141.3 350.7zm264.68 -2.35l282.58 0 0 -82.17 -187.07 0 0 -55.21 167.15 0 0 -76.17 -167.15 0 0 -52.63 184.57 0 0 -82.16 -280.08 0 0 348.34zm468.63 5.99c84.61,0 140.81,-42.37 140.81,-113.41l0 -1.07c0,-65.26 -49.75,-91.15 -129.86,-108.48 -48.25,-10.9 -60.19,-17.97 -60.19,-33.8l0 -1.07c0,-12.41 11.44,-22.26 34.83,-22.26 30.84,0 65.67,11.77 97.51,34.24l48.25 -68.05c-37.83,-30.38 -84.07,-46.43 -143.29,-46.43 -83.58,0 -134.83,46.86 -134.83,111.47l0 1.07c0,71.68 57.24,92.43 131.36,109.34 47.26,11.12 58.69,19.05 58.69,33.38l0 1.07c0,14.98 -13.91,23.75 -39.8,23.75 -40.28,0 -78.61,-14.34 -112.93,-41.72l-53.73 64.19c42.79,38.3 101.49,57.77 163.17,57.77zm262.69 -5.99l96.52 0 0 -263.83 104.48 0 0 -84.52 -305.46 0 0 84.52 104.46 0 0 263.83zm-1485.06 504.1c63.18,0 114.43,-23.32 151.23,-53.7l0 -156.62 -160.2 0 0 70.61 68.66 0 0 42.37c-14.42,9.42 -32.33,14.33 -55.72,14.33 -55.22,0 -94.53,-40.22 -94.53,-96.5l0 -1.07c0,-53.29 38.79,-95.43 89.05,-95.43 34.32,0 59.2,11.98 84.07,32.74l56.74 -68.04c-36.83,-31.89 -80.11,-50.93 -141.3,-50.93 -107.95,0 -187.57,79.81 -187.57,181.23l0 0.86c0,105.48 81.1,180.15 189.56,180.15zm204.98 -6.84l96.52 0 0 -105.49 42.26 0 70.16 105.49 111.46 0 -83.11 -121.54c43.31,-18.4 71.66,-53.7 71.66,-106.98l0 -0.86c0,-34.44 -10.46,-61.19 -30.86,-81.09 -23.38,-23.97 -60.21,-37.88 -113.45,-37.88l-164.65 0 0 348.34zm96.52 -181.23l0 -83.44 63.16 0c32.35,0 52.27,13.91 52.27,41.29l0 0.86c0,25.46 -18.93,41.29 -51.78,41.29l-63.66 0zm436.3 188.08c107.45,0 188.08,-81.09 188.08,-181.01l0 -1.07c0,-99.92 -79.64,-180.16 -187.07,-180.16 -107.48,0 -188.06,81.1 -188.06,181.23l0 0.86c0,100.13 79.58,180.15 187.06,180.15zm1 -87.08c-52.72,0 -89.05,-43.65 -89.05,-93.94l0 -1.07c0,-50.28 35.32,-93.07 88.05,-93.07 53.25,0 89.56,43.86 89.56,94.14l0 0.86c0,50.28 -35.32,93.08 -88.56,93.08zm394.02 86.66c99,0 163.17,-49.21 163.17,-161.76l0 -193 -98 0 0 196c0,48.78 -25.38,71.68 -64.17,71.68 -38.83,0 -64.16,-23.96 -64.16,-74.03l0 -193.64 -98.06 0 0 195.57c0,108.91 62.22,159.19 161.22,159.19zm220.37 -6.42l96.56 0 0 -99.5 47.76 0c86.55,0 149.74,-43.43 149.74,-125.38l0 -1.07c0,-77.03 -56.73,-122.4 -144.8,-122.4l-149.26 0 0 348.34zm96.56 -175.24l0 -92.01 45.24 0c34.83,0 55.73,15.83 55.73,45.79l0 1.07c0,27.18 -20.9,45.14 -55.2,45.14l-45.77 0z"/>
            <polygon class="fil1" points="0.01,1077.33 1077.22,0 2154.41,1077.33 1881.95,1349.71 1077.22,544.98 272.5,1349.71 "/>
  </g>
        <path class="fil0" d="M-0 2136.39c0,-66 6.77,-119.38 20.31,-159.74 13.67,-40.49 33.85,-71.6 60.67,-93.34 26.69,-21.74 60.41,-32.55 101.02,-32.55 29.95,0 56.24,5.99 79.02,18.1 22.65,12.1 41.4,29.55 55.98,52.33 14.58,22.65 26.04,50.38 34.37,83.06 8.46,32.68 12.63,76.81 12.63,132.14 0,65.61 -6.77,118.73 -20.18,159.09 -13.41,40.49 -33.59,71.6 -60.41,93.47 -26.69,21.87 -60.54,32.8 -101.42,32.8 -53.77,0 -96.08,-19.13 -126.8,-57.54 -36.84,-46.87 -55.2,-122.77 -55.2,-227.83zm70.3 0.26c0,92.04 10.68,153.23 32.16,183.43 21.48,30.33 48.04,45.43 79.54,45.43 31.51,0 58.06,-15.23 79.54,-45.57 21.48,-30.46 32.16,-91.52 32.16,-183.3 0,-92.04 -10.68,-153.23 -32.16,-183.43 -21.35,-30.33 -48.17,-45.43 -80.32,-45.43 -31.5,0 -56.76,13.41 -75.64,40.09 -23.56,33.98 -35.28,96.99 -35.28,188.77zm374.28 146.07l65.61 -5.47c5.6,30.98 16.28,53.37 32.03,67.3 15.75,13.93 35.93,20.96 60.66,20.96 21.09,0 39.58,-4.82 55.59,-14.58 16.01,-9.63 29.03,-22.52 39.05,-38.8 10.03,-16.14 18.49,-38.01 25.39,-65.48 6.9,-27.47 10.29,-55.46 10.29,-83.97 0,-3 -0.13,-7.68 -0.39,-13.8 -13.67,21.87 -32.42,39.71 -56.11,53.25 -23.69,13.67 -49.47,20.44 -77.07,20.44 -46.21,0 -85.27,-16.79 -117.29,-50.38 -31.9,-33.45 -47.91,-77.72 -47.91,-132.66 0,-56.76 16.66,-102.33 50.12,-136.95 33.33,-34.5 75.12,-51.81 125.5,-51.81 36.19,0 69.39,9.76 99.59,29.42 30.08,19.53 52.86,47.39 68.48,83.71 15.62,36.19 23.43,88.66 23.43,157.27 0,71.47 -7.68,128.36 -23.17,170.67 -15.49,42.44 -38.66,74.6 -69.26,96.73 -30.59,22.13 -66.39,33.2 -107.53,33.2 -43.74,0 -79.41,-12.1 -107.14,-36.45 -27.6,-24.34 -44.26,-58.58 -49.86,-102.58zm280.42 -246.7c0,-39.31 -10.41,-70.56 -31.24,-93.6 -20.7,-23.04 -45.96,-34.63 -75.64,-34.63 -30.72,0 -57.28,12.37 -79.67,37.23 -22.52,24.86 -33.72,57.15 -33.72,96.73 0,35.54 10.68,64.44 31.89,86.58 21.35,22.26 47.91,33.33 79.54,33.33 31.77,0 57.8,-11.07 78.24,-33.33 20.44,-22.13 30.59,-52.99 30.59,-92.3zm249.69 73.16c-28.51,-10.41 -49.6,-25.39 -63.4,-44.65 -13.67,-19.4 -20.57,-42.57 -20.57,-69.52 0,-40.75 14.58,-74.85 43.74,-102.58 29.29,-27.73 68.09,-41.66 116.65,-41.66 48.69,0 88.01,14.19 117.68,42.57 29.68,28.38 44.52,62.88 44.52,103.63 0,25.91 -6.77,48.56 -20.31,67.7 -13.54,19.26 -34.11,34.11 -61.84,44.52 34.24,11.2 60.15,29.16 77.98,54.16 17.83,24.86 26.82,54.55 26.82,89.17 0,47.78 -16.92,87.88 -50.64,120.42 -33.85,32.55 -78.24,48.82 -133.31,48.82 -55.07,0 -99.46,-16.27 -133.31,-48.95 -33.72,-32.67 -50.65,-73.42 -50.65,-122.25 0,-36.32 9.25,-66.78 27.73,-91.26 18.49,-24.61 44.78,-41.27 78.89,-50.12zm-13.67 -116.65c0,26.56 8.46,48.17 25.26,64.97 16.92,16.79 39.05,25.25 66.52,25.25 26.69,0 48.3,-8.33 65.1,-24.99 16.79,-16.67 25.13,-37.1 25.13,-61.32 0,-25.26 -8.6,-46.47 -25.91,-63.66 -17.19,-17.18 -38.93,-25.78 -65.1,-25.78 -26.43,0 -48.17,8.46 -65.35,25.26 -17.05,16.79 -25.64,36.84 -25.64,60.28zm-22.65 258.55c0,19.66 4.56,38.54 13.67,56.89 9.11,18.23 22.91,32.42 41.4,42.44 18.35,10.03 38.14,15.1 59.1,15.1 33.07,0 60.15,-10.55 81.37,-31.64 21.22,-21.09 31.77,-47.91 31.77,-80.45 0,-33.07 -10.94,-60.41 -32.68,-82.02 -21.87,-21.61 -49.47,-32.42 -82.67,-32.42 -32.55,0 -59.24,10.68 -80.32,32.03 -21.09,21.35 -31.64,48.04 -31.64,80.06zm592.08 31.64l65.61 -5.47c5.6,30.98 16.28,53.37 32.03,67.3 15.75,13.93 35.93,20.96 60.66,20.96 21.09,0 39.58,-4.82 55.59,-14.58 16.01,-9.63 29.03,-22.52 39.05,-38.8 10.03,-16.14 18.49,-38.01 25.39,-65.48 6.9,-27.47 10.29,-55.46 10.29,-83.97 0,-3 -0.13,-7.68 -0.39,-13.8 -13.67,21.87 -32.42,39.71 -56.11,53.25 -23.69,13.67 -49.47,20.44 -77.07,20.44 -46.21,0 -85.27,-16.79 -117.29,-50.38 -31.9,-33.45 -47.91,-77.72 -47.91,-132.66 0,-56.76 16.66,-102.33 50.12,-136.95 33.33,-34.5 75.12,-51.81 125.5,-51.81 36.19,0 69.39,9.76 99.59,29.42 30.08,19.53 52.86,47.39 68.48,83.71 15.62,36.19 23.43,88.66 23.43,157.27 0,71.47 -7.68,128.36 -23.17,170.67 -15.49,42.44 -38.66,74.6 -69.26,96.73 -30.59,22.13 -66.39,33.2 -107.53,33.2 -43.74,0 -79.41,-12.1 -107.14,-36.45 -27.6,-24.34 -44.26,-58.58 -49.86,-102.58zm280.42 -246.7c0,-39.31 -10.41,-70.56 -31.24,-93.6 -20.7,-23.04 -45.96,-34.63 -75.64,-34.63 -30.72,0 -57.28,12.37 -79.67,37.23 -22.52,24.86 -33.72,57.15 -33.72,96.73 0,35.54 10.68,64.44 31.89,86.58 21.35,22.26 47.91,33.33 79.54,33.33 31.77,0 57.8,-11.07 78.24,-33.33 20.44,-22.13 30.59,-52.99 30.59,-92.3zm143.86 100.37c0,-66 6.77,-119.38 20.31,-159.74 13.67,-40.49 33.85,-71.6 60.67,-93.34 26.69,-21.74 60.41,-32.55 101.02,-32.55 29.95,0 56.24,5.99 79.02,18.1 22.65,12.1 41.4,29.55 55.98,52.33 14.58,22.65 26.04,50.38 34.37,83.06 8.46,32.68 12.63,76.81 12.63,132.14 0,65.61 -6.77,118.73 -20.18,159.09 -13.41,40.49 -33.59,71.6 -60.41,93.47 -26.69,21.87 -60.54,32.8 -101.42,32.8 -53.77,0 -96.08,-19.13 -126.8,-57.54 -36.84,-46.87 -55.2,-122.77 -55.2,-227.83zm70.3 0.26c0,92.04 10.68,153.23 32.16,183.43 21.48,30.33 48.04,45.43 79.54,45.43 31.51,0 58.06,-15.23 79.54,-45.57 21.48,-30.46 32.16,-91.52 32.16,-183.3 0,-92.04 -10.68,-153.23 -32.16,-183.43 -21.35,-30.33 -48.17,-45.43 -80.32,-45.43 -31.5,0 -56.76,13.41 -75.64,40.09 -23.56,33.98 -35.28,96.99 -35.28,188.77zm469.97 -27.47c-28.51,-10.41 -49.6,-25.39 -63.4,-44.65 -13.67,-19.4 -20.57,-42.57 -20.57,-69.52 0,-40.75 14.58,-74.85 43.74,-102.58 29.29,-27.73 68.09,-41.66 116.65,-41.66 48.69,0 88.01,14.19 117.68,42.57 29.68,28.38 44.52,62.88 44.52,103.63 0,25.91 -6.77,48.56 -20.31,67.7 -13.54,19.26 -34.11,34.11 -61.84,44.52 34.24,11.2 60.15,29.16 77.98,54.16 17.83,24.86 26.82,54.55 26.82,89.17 0,47.78 -16.92,87.88 -50.64,120.42 -33.85,32.55 -78.24,48.82 -133.31,48.82 -55.07,0 -99.46,-16.27 -133.31,-48.95 -33.72,-32.67 -50.65,-73.42 -50.65,-122.25 0,-36.32 9.25,-66.78 27.73,-91.26 18.49,-24.61 44.78,-41.27 78.89,-50.12zm-13.67 -116.65c0,26.56 8.46,48.17 25.26,64.97 16.92,16.79 39.05,25.25 66.52,25.25 26.69,0 48.3,-8.33 65.1,-24.99 16.79,-16.67 25.13,-37.1 25.13,-61.32 0,-25.26 -8.6,-46.47 -25.91,-63.66 -17.19,-17.18 -38.93,-25.78 -65.1,-25.78 -26.43,0 -48.17,8.46 -65.35,25.26 -17.05,16.79 -25.64,36.84 -25.64,60.28zm-22.65 258.55c0,19.66 4.56,38.54 13.67,56.89 9.11,18.23 22.91,32.42 41.4,42.44 18.35,10.03 38.14,15.1 59.1,15.1 33.07,0 60.15,-10.55 81.37,-31.64 21.22,-21.09 31.77,-47.91 31.77,-80.45 0,-33.07 -10.94,-60.41 -32.68,-82.02 -21.87,-21.61 -49.47,-32.42 -82.67,-32.42 -32.55,0 -59.24,10.68 -80.32,32.03 -21.09,21.35 -31.64,48.04 -31.64,80.06zm592.08 31.64l65.61 -5.47c5.6,30.98 16.28,53.37 32.03,67.3 15.75,13.93 35.93,20.96 60.66,20.96 21.09,0 39.58,-4.82 55.59,-14.58 16.01,-9.63 29.03,-22.52 39.05,-38.8 10.03,-16.14 18.49,-38.01 25.39,-65.48 6.9,-27.47 10.29,-55.46 10.29,-83.97 0,-3 -0.13,-7.68 -0.39,-13.8 -13.67,21.87 -32.42,39.71 -56.11,53.25 -23.69,13.67 -49.47,20.44 -77.07,20.44 -46.21,0 -85.27,-16.79 -117.29,-50.38 -31.9,-33.45 -47.91,-77.72 -47.91,-132.66 0,-56.76 16.66,-102.33 50.12,-136.95 33.33,-34.5 75.12,-51.81 125.5,-51.81 36.19,0 69.39,9.76 99.59,29.42 30.08,19.53 52.86,47.39 68.48,83.71 15.62,36.19 23.43,88.66 23.43,157.27 0,71.47 -7.68,128.36 -23.17,170.67 -15.49,42.44 -38.66,74.6 -69.26,96.73 -30.59,22.13 -66.39,33.2 -107.53,33.2 -43.74,0 -79.41,-12.1 -107.14,-36.45 -27.6,-24.34 -44.26,-58.58 -49.86,-102.58zm280.42 -246.7c0,-39.31 -10.41,-70.56 -31.24,-93.6 -20.7,-23.04 -45.96,-34.63 -75.64,-34.63 -30.72,0 -57.28,12.37 -79.67,37.23 -22.52,24.86 -33.72,57.15 -33.72,96.73 0,35.54 10.68,64.44 31.89,86.58 21.35,22.26 47.91,33.33 79.54,33.33 31.77,0 57.8,-11.07 78.24,-33.33 20.44,-22.13 30.59,-52.99 30.59,-92.3zm143.86 100.37c0,-66 6.77,-119.38 20.31,-159.74 13.67,-40.49 33.85,-71.6 60.67,-93.34 26.69,-21.74 60.41,-32.55 101.02,-32.55 29.95,0 56.24,5.99 79.02,18.1 22.65,12.1 41.4,29.55 55.98,52.33 14.58,22.65 26.04,50.38 34.37,83.06 8.46,32.68 12.63,76.81 12.63,132.14 0,65.61 -6.77,118.73 -20.18,159.09 -13.41,40.49 -33.59,71.6 -60.41,93.47 -26.69,21.87 -60.54,32.8 -101.42,32.8 -53.77,0 -96.08,-19.13 -126.8,-57.54 -36.84,-46.87 -55.2,-122.77 -55.2,-227.83zm70.3 0.26c0,92.04 10.68,153.23 32.16,183.43 21.48,30.33 48.04,45.43 79.54,45.43 31.51,0 58.06,-15.23 79.54,-45.57 21.48,-30.46 32.16,-91.52 32.16,-183.3 0,-92.04 -10.68,-153.23 -32.16,-183.43 -21.35,-30.33 -48.17,-45.43 -80.32,-45.43 -31.5,0 -56.76,13.41 -75.64,40.09 -23.56,33.98 -35.28,96.99 -35.28,188.77zm469.97 -27.47c-28.51,-10.41 -49.6,-25.39 -63.4,-44.65 -13.67,-19.4 -20.57,-42.57 -20.57,-69.52 0,-40.75 14.58,-74.85 43.74,-102.58 29.29,-27.73 68.09,-41.66 116.65,-41.66 48.69,0 88.01,14.19 117.68,42.57 29.68,28.38 44.52,62.88 44.52,103.63 0,25.91 -6.77,48.56 -20.31,67.7 -13.54,19.26 -34.11,34.11 -61.84,44.52 34.24,11.2 60.15,29.16 77.98,54.16 17.83,24.86 26.82,54.55 26.82,89.17 0,47.78 -16.92,87.88 -50.64,120.42 -33.85,32.55 -78.24,48.82 -133.31,48.82 -55.07,0 -99.46,-16.27 -133.31,-48.95 -33.72,-32.67 -50.65,-73.42 -50.65,-122.25 0,-36.32 9.25,-66.78 27.73,-91.26 18.49,-24.61 44.78,-41.27 78.89,-50.12zm-13.67 -116.65c0,26.56 8.46,48.17 25.26,64.97 16.92,16.79 39.05,25.25 66.52,25.25 26.69,0 48.3,-8.33 65.1,-24.99 16.79,-16.67 25.13,-37.1 25.13,-61.32 0,-25.26 -8.6,-46.47 -25.91,-63.66 -17.19,-17.18 -38.93,-25.78 -65.1,-25.78 -26.43,0 -48.17,8.46 -65.35,25.26 -17.05,16.79 -25.64,36.84 -25.64,60.28zm-22.65 258.55c0,19.66 4.56,38.54 13.67,56.89 9.11,18.23 22.91,32.42 41.4,42.44 18.35,10.03 38.14,15.1 59.1,15.1 33.07,0 60.15,-10.55 81.37,-31.64 21.22,-21.09 31.77,-47.91 31.77,-80.45 0,-33.07 -10.94,-60.41 -32.68,-82.02 -21.87,-21.61 -49.47,-32.42 -82.67,-32.42 -32.55,0 -59.24,10.68 -80.32,32.03 -21.09,21.35 -31.64,48.04 -31.64,80.06z"/>
 </g>
</svg>
