<?xml version="1.0" encoding="UTF-8"?>
<svg xmlns="http://www.w3.org/2000/svg" xmlns:xlink="http://www.w3.org/1999/xlink" width="400px" height="280px" viewBox="0 0 400 280" version="1.1">
<g id="surface1">
<path style=" stroke:none;fill-rule:nonzero;fill:rgb(100%,100%,100%);fill-opacity:0.768627;" d="M 0 140.53125 L 11.667969 96.980469 L 55.214844 108.652344 L 52.265625 119.667969 L 19.734375 110.953125 L 11.015625 143.484375 Z M 0 140.53125 "/>
<path style=" stroke:none;fill-rule:nonzero;fill:rgb(100%,100%,100%);fill-opacity:0.768627;" d="M 95.179688 71.992188 C 93.925781 72.714844 93.359375 73.675781 93.484375 74.871094 L 98.25 83.128906 L 95.550781 84.6875 L 88.582031 72.617188 L 91.167969 71.121094 L 92.023438 72.441406 C 92.046875 71.023438 92.648438 69.96875 93.828125 69.285156 C 94.199219 69.070312 94.550781 68.9375 94.875 68.882812 L 96.324219 71.445312 C 95.898438 71.617188 95.515625 71.796875 95.179688 71.992188 Z M 112.148438 72.371094 C 112.082031 73.28125 111.785156 74.171875 111.261719 75.054688 C 110.738281 75.929688 109.921875 76.691406 108.816406 77.328125 C 107.644531 78.003906 106.484375 78.335938 105.316406 78.332031 C 104.160156 78.332031 103.085938 78.023438 102.105469 77.40625 C 101.125 76.792969 100.316406 75.933594 99.675781 74.824219 L 99.410156 74.363281 C 98.695312 73.125 98.304688 71.894531 98.234375 70.675781 C 98.167969 69.464844 98.398438 68.359375 98.9375 67.371094 C 99.46875 66.375 100.242188 65.582031 101.273438 64.988281 C 102.414062 64.332031 103.515625 64.03125 104.578125 64.085938 C 105.640625 64.144531 106.617188 64.507812 107.515625 65.183594 C 108.40625 65.855469 109.195312 66.785156 109.878906 67.964844 L 110.542969 69.117188 L 102.65625 73.671875 C 103.070312 74.261719 103.546875 74.730469 104.09375 75.070312 C 104.644531 75.410156 105.230469 75.582031 105.855469 75.582031 C 106.484375 75.585938 107.109375 75.410156 107.726562 75.054688 C 108.964844 74.339844 109.6875 73.257812 109.886719 71.816406 Z M 102.53125 67.167969 C 101.800781 67.589844 101.355469 68.191406 101.191406 68.96875 C 101.03125 69.757812 101.152344 70.648438 101.554688 71.65625 L 106.707031 68.679688 L 106.589844 68.480469 C 106.082031 67.707031 105.488281 67.171875 104.804688 66.882812 C 104.121094 66.589844 103.359375 66.6875 102.53125 67.167969 Z M 123.242188 68.699219 L 122.402344 67.519531 C 122.164062 68.96875 121.367188 70.082031 120.003906 70.871094 C 119.058594 71.414062 118.078125 71.628906 117.054688 71.515625 C 116.03125 71.402344 115.054688 70.988281 114.128906 70.285156 C 113.203125 69.582031 112.398438 68.648438 111.722656 67.480469 L 111.589844 67.246094 C 110.882812 66.023438 110.460938 64.839844 110.3125 63.6875 C 110.160156 62.535156 110.292969 61.492188 110.71875 60.566406 C 111.136719 59.640625 111.828125 58.894531 112.796875 58.335938 C 114.070312 57.601562 115.363281 57.449219 116.667969 57.871094 L 113.105469 51.703125 L 115.820312 50.140625 L 125.714844 67.273438 Z M 114.425781 65.921875 C 115.097656 67.082031 115.863281 67.894531 116.730469 68.351562 C 117.601562 68.816406 118.492188 68.785156 119.414062 68.25 C 120.523438 67.609375 121.046875 66.644531 120.984375 65.347656 L 118.015625 60.203125 C 116.957031 59.523438 115.875 59.507812 114.765625 60.148438 C 113.839844 60.683594 113.359375 61.449219 113.324219 62.441406 C 113.296875 63.433594 113.617188 64.519531 114.292969 65.6875 Z M 135.988281 67.679688 C 135.503906 67.957031 134.9375 68.195312 134.289062 68.386719 C 133.640625 68.574219 132.964844 68.671875 132.265625 68.675781 C 131.5625 68.679688 130.914062 68.550781 130.316406 68.292969 L 130.664062 65.933594 C 132.085938 66.433594 133.394531 66.332031 134.601562 65.640625 C 135.507812 65.113281 136.074219 64.453125 136.308594 63.652344 C 136.539062 62.847656 136.382812 61.980469 135.847656 61.054688 L 135.378906 60.238281 C 135.09375 61.566406 134.3125 62.609375 133.015625 63.359375 C 132.054688 63.914062 131.0625 64.132812 130.035156 64.035156 C 129.011719 63.933594 128.039062 63.539062 127.113281 62.851562 C 126.191406 62.164062 125.390625 61.246094 124.710938 60.105469 L 124.523438 59.78125 C 123.816406 58.558594 123.394531 57.371094 123.253906 56.210938 C 123.109375 55.058594 123.25 54.011719 123.691406 53.078125 C 124.121094 52.144531 124.824219 51.390625 125.808594 50.824219 C 127.191406 50.023438 128.546875 49.871094 129.875 50.371094 L 129.300781 49.109375 L 131.75 47.691406 L 138.527344 59.429688 C 139.140625 60.492188 139.441406 61.542969 139.425781 62.570312 C 139.410156 63.601562 139.105469 64.554688 138.511719 65.425781 C 137.914062 66.304688 137.074219 67.054688 135.988281 67.679688 Z M 127.367188 58.445312 C 128.035156 59.601562 128.8125 60.402344 129.699219 60.859375 C 130.585938 61.3125 131.496094 61.277344 132.425781 60.738281 C 133.542969 60.09375 134.078125 59.148438 134.03125 57.90625 L 130.984375 52.628906 C 129.953125 51.992188 128.882812 51.996094 127.777344 52.636719 C 126.839844 53.179688 126.34375 53.953125 126.300781 54.960938 C 126.253906 55.972656 126.5625 57.054688 127.234375 58.214844 Z M 141.125 45.464844 C 139.871094 46.1875 139.308594 47.148438 139.429688 48.34375 L 144.195312 56.601562 L 141.496094 58.160156 L 134.527344 46.089844 L 137.117188 44.59375 L 137.96875 45.914062 C 137.992188 44.496094 138.59375 43.441406 139.773438 42.757812 C 140.148438 42.542969 140.496094 42.410156 140.820312 42.355469 L 142.269531 44.917969 C 141.84375 45.089844 141.460938 45.269531 141.125 45.464844 Z M 145.078125 47.898438 C 144.402344 46.730469 144.019531 45.550781 143.933594 44.355469 C 143.84375 43.164062 144.070312 42.054688 144.605469 41.039062 C 145.144531 40.015625 145.984375 39.175781 147.128906 38.515625 C 148.265625 37.855469 149.40625 37.546875 150.542969 37.582031 C 151.683594 37.609375 152.742188 37.949219 153.722656 38.601562 C 154.703125 39.25 155.535156 40.140625 156.21875 41.273438 L 156.4375 41.648438 C 157.117188 42.828125 157.5 44.007812 157.589844 45.195312 C 157.683594 46.378906 157.457031 47.484375 156.910156 48.503906 C 156.367188 49.519531 155.527344 50.363281 154.382812 51.023438 C 153.226562 51.691406 152.070312 52 150.921875 51.964844 C 149.769531 51.921875 148.699219 51.566406 147.710938 50.898438 C 146.722656 50.230469 145.890625 49.308594 145.210938 48.132812 Z M 147.910156 46.570312 C 148.347656 47.328125 148.839844 47.9375 149.390625 48.414062 C 149.941406 48.886719 150.539062 49.175781 151.179688 49.269531 C 151.824219 49.363281 152.46875 49.222656 153.125 48.84375 C 153.761719 48.476562 154.199219 47.988281 154.433594 47.394531 C 154.667969 46.789062 154.714844 46.132812 154.582031 45.417969 C 154.441406 44.699219 154.160156 43.96875 153.726562 43.214844 L 153.589844 42.984375 C 153.164062 42.246094 152.675781 41.640625 152.117188 41.164062 C 151.5625 40.6875 150.960938 40.394531 150.316406 40.289062 C 149.675781 40.183594 149.035156 40.320312 148.386719 40.691406 C 147.746094 41.0625 147.3125 41.550781 147.085938 42.15625 C 146.855469 42.761719 146.808594 43.429688 146.941406 44.152344 C 147.074219 44.875 147.351562 45.601562 147.777344 46.339844 Z M 169.511719 41.984375 L 168.757812 40.84375 C 168.515625 42.238281 167.65625 43.359375 166.1875 44.207031 C 164.945312 44.921875 163.769531 45.121094 162.644531 44.800781 C 161.519531 44.492188 160.515625 43.574219 159.632812 42.054688 L 155.101562 34.210938 L 157.8125 32.644531 L 162.328125 40.464844 C 162.796875 41.277344 163.304688 41.757812 163.859375 41.894531 C 164.410156 42.039062 164.976562 41.945312 165.550781 41.613281 C 166.835938 40.875 167.449219 39.890625 167.398438 38.683594 L 162.386719 30.003906 L 165.101562 28.4375 L 172.070312 40.507812 Z M 180.84375 35.746094 C 179.523438 36.503906 178.214844 36.679688 176.910156 36.273438 L 180.210938 41.996094 L 177.511719 43.554688 L 167.863281 26.84375 L 170.355469 25.40625 L 171.167969 26.554688 C 171.421875 25.128906 172.230469 24.023438 173.589844 23.234375 C 174.597656 22.65625 175.601562 22.417969 176.597656 22.519531 C 177.601562 22.621094 178.546875 23.03125 179.445312 23.742188 C 180.34375 24.449219 181.152344 25.425781 181.871094 26.671875 L 182 26.890625 C 182.683594 28.078125 183.105469 29.238281 183.273438 30.375 C 183.4375 31.515625 183.320312 32.550781 182.917969 33.492188 C 182.515625 34.421875 181.824219 35.175781 180.84375 35.746094 Z M 174.109375 25.886719 C 172.996094 26.53125 172.460938 27.457031 172.515625 28.664062 L 175.585938 33.984375 C 176.632812 34.644531 177.710938 34.648438 178.828125 34.003906 C 179.742188 33.476562 180.210938 32.710938 180.242188 31.699219 C 180.269531 30.691406 179.949219 29.609375 179.277344 28.449219 L 179.152344 28.226562 C 178.476562 27.058594 177.699219 26.238281 176.824219 25.777344 C 175.941406 25.3125 175.039062 25.351562 174.109375 25.886719 Z M 187.035156 30.058594 C 186.78125 29.617188 186.71875 29.175781 186.832031 28.726562 C 186.953125 28.285156 187.257812 27.917969 187.742188 27.640625 C 188.222656 27.359375 188.691406 27.277344 189.136719 27.394531 C 189.589844 27.519531 189.941406 27.792969 190.195312 28.234375 C 190.441406 28.664062 190.503906 29.105469 190.378906 29.550781 C 190.261719 30 189.957031 30.359375 189.472656 30.640625 C 188.988281 30.917969 188.523438 31.003906 188.082031 30.882812 C 187.636719 30.769531 187.289062 30.496094 187.035156 30.058594 Z M 201.300781 23.632812 C 201.019531 23.441406 200.691406 23.121094 200.332031 22.675781 C 199.988281 24.082031 199.195312 25.152344 197.9375 25.875 C 197.148438 26.332031 196.347656 26.578125 195.542969 26.621094 C 194.734375 26.667969 193.996094 26.515625 193.332031 26.167969 C 192.664062 25.816406 192.136719 25.304688 191.746094 24.625 C 191.007812 23.347656 190.914062 22.089844 191.472656 20.847656 C 192.03125 19.613281 193.183594 18.484375 194.929688 17.476562 L 196.636719 16.492188 L 196.179688 15.699219 C 195.808594 15.058594 195.335938 14.648438 194.761719 14.492188 C 194.1875 14.332031 193.554688 14.449219 192.863281 14.84375 C 192.4375 15.09375 192.113281 15.382812 191.878906 15.710938 C 191.640625 16.039062 191.503906 16.378906 191.472656 16.730469 C 191.441406 17.078125 191.519531 17.410156 191.695312 17.722656 L 188.996094 19.28125 C 188.628906 18.644531 188.484375 17.917969 188.570312 17.109375 C 188.65625 16.304688 188.972656 15.511719 189.53125 14.730469 C 190.085938 13.945312 190.851562 13.269531 191.835938 12.703125 C 192.757812 12.167969 193.660156 11.859375 194.542969 11.765625 C 195.425781 11.675781 196.242188 11.824219 196.996094 12.21875 C 197.746094 12.609375 198.382812 13.257812 198.902344 14.15625 L 201.996094 19.515625 C 202.621094 20.589844 203.273438 21.367188 203.953125 21.847656 L 204.0625 22.039062 Z M 197.1875 23.402344 C 197.78125 23.0625 198.222656 22.617188 198.523438 22.058594 C 198.820312 21.507812 198.960938 20.972656 198.929688 20.460938 L 197.617188 18.1875 L 195.96875 19.140625 C 194.097656 20.28125 193.535156 21.5 194.289062 22.800781 C 194.582031 23.308594 194.984375 23.621094 195.5 23.75 C 196.019531 23.871094 196.582031 23.753906 197.1875 23.402344 Z M 205.652344 7.675781 C 204.5625 8.304688 204.050781 9.195312 204.101562 10.351562 L 209.152344 19.101562 L 206.453125 20.660156 L 199.480469 8.585938 L 202.027344 7.121094 L 202.835938 8.332031 C 203.113281 6.851562 203.996094 5.679688 205.46875 4.832031 C 207.066406 3.90625 208.527344 3.890625 209.835938 4.769531 C 210.011719 3.03125 210.894531 1.699219 212.484375 0.777344 C 215.125 -0.746094 217.296875 -0.03125 219.007812 2.910156 L 223.554688 10.785156 L 220.84375 12.347656 L 216.324219 4.515625 C 215.835938 3.671875 215.3125 3.1875 214.757812 3.066406 C 214.207031 2.957031 213.570312 3.105469 212.847656 3.519531 C 212.246094 3.871094 211.835938 4.316406 211.632812 4.867188 C 211.421875 5.417969 211.40625 6.019531 211.570312 6.667969 L 216.347656 14.945312 L 213.636719 16.511719 L 209.128906 8.703125 C 208.660156 7.890625 208.144531 7.414062 207.570312 7.273438 C 206.996094 7.132812 206.355469 7.269531 205.652344 7.675781 Z M 205.652344 7.675781 "/>
</g>
</svg>
