<?xml version="1.0" encoding="UTF-8"?>
<svg xmlns="http://www.w3.org/2000/svg" xmlns:xlink="http://www.w3.org/1999/xlink" width="100px" height="70px" viewBox="0 0 100 70" version="1.1">
<g id="surface1">
<path style=" stroke:none;fill-rule:nonzero;fill:rgb(100%,100%,100%);fill-opacity:0.768627;" d="M 0 35.132812 L 2.917969 24.246094 L 13.804688 27.164062 L 13.066406 29.917969 L 4.933594 27.738281 L 2.753906 35.871094 Z M 0 35.132812 "/>
<path style=" stroke:none;fill-rule:nonzero;fill:rgb(100%,100%,100%);fill-opacity:0.768627;" d="M 23.796875 17.996094 C 23.480469 18.179688 23.339844 18.417969 23.371094 18.71875 L 24.5625 20.78125 L 23.886719 21.171875 L 22.144531 18.152344 L 22.792969 17.78125 L 23.007812 18.109375 C 23.011719 17.753906 23.160156 17.492188 23.457031 17.320312 C 23.550781 17.269531 23.636719 17.234375 23.71875 17.222656 L 24.082031 17.863281 C 23.972656 17.902344 23.878906 17.949219 23.796875 17.996094 Z M 28.039062 18.09375 C 28.019531 18.320312 27.945312 18.542969 27.816406 18.761719 C 27.683594 18.980469 27.480469 19.171875 27.203125 19.332031 C 26.910156 19.5 26.621094 19.585938 26.328125 19.582031 C 26.039062 19.582031 25.769531 19.503906 25.527344 19.351562 C 25.28125 19.199219 25.078125 18.984375 24.917969 18.707031 L 24.851562 18.589844 C 24.671875 18.28125 24.574219 17.972656 24.558594 17.667969 C 24.542969 17.367188 24.601562 17.089844 24.734375 16.84375 C 24.867188 16.59375 25.0625 16.394531 25.316406 16.246094 C 25.601562 16.082031 25.878906 16.007812 26.144531 16.023438 C 26.410156 16.035156 26.65625 16.128906 26.878906 16.296875 C 27.101562 16.464844 27.300781 16.695312 27.46875 16.992188 L 27.636719 17.277344 L 25.664062 18.417969 C 25.765625 18.566406 25.886719 18.683594 26.023438 18.765625 C 26.160156 18.851562 26.308594 18.894531 26.464844 18.894531 C 26.621094 18.898438 26.777344 18.851562 26.929688 18.765625 C 27.242188 18.585938 27.421875 18.3125 27.472656 17.953125 Z M 25.632812 16.792969 C 25.449219 16.898438 25.339844 17.046875 25.296875 17.242188 C 25.257812 17.4375 25.289062 17.664062 25.386719 17.914062 L 26.675781 17.171875 L 26.648438 17.121094 C 26.519531 16.925781 26.371094 16.792969 26.199219 16.71875 C 26.03125 16.648438 25.839844 16.671875 25.632812 16.792969 Z M 30.8125 17.175781 L 30.601562 16.878906 C 30.542969 17.242188 30.34375 17.519531 30 17.71875 C 29.765625 17.855469 29.519531 17.90625 29.265625 17.878906 C 29.007812 17.851562 28.765625 17.746094 28.53125 17.570312 C 28.300781 17.394531 28.101562 17.164062 27.929688 16.871094 L 27.898438 16.8125 C 27.722656 16.507812 27.613281 16.210938 27.578125 15.921875 C 27.539062 15.632812 27.574219 15.375 27.679688 15.140625 C 27.785156 14.910156 27.957031 14.722656 28.199219 14.582031 C 28.515625 14.398438 28.839844 14.363281 29.167969 14.46875 L 28.277344 12.925781 L 28.953125 12.535156 L 31.429688 16.820312 Z M 28.605469 16.480469 C 28.773438 16.769531 28.964844 16.972656 29.183594 17.089844 C 29.398438 17.203125 29.625 17.195312 29.855469 17.0625 C 30.132812 16.902344 30.261719 16.660156 30.246094 16.335938 L 29.503906 15.050781 C 29.238281 14.882812 28.96875 14.878906 28.691406 15.035156 C 28.460938 15.171875 28.339844 15.363281 28.332031 15.609375 C 28.324219 15.859375 28.402344 16.128906 28.574219 16.421875 Z M 33.996094 16.917969 C 33.875 16.988281 33.734375 17.046875 33.570312 17.097656 C 33.410156 17.144531 33.242188 17.167969 33.066406 17.167969 C 32.890625 17.167969 32.726562 17.136719 32.578125 17.074219 L 32.664062 16.484375 C 33.019531 16.609375 33.347656 16.582031 33.652344 16.410156 C 33.875 16.277344 34.019531 16.113281 34.078125 15.914062 C 34.132812 15.710938 34.097656 15.496094 33.960938 15.261719 L 33.84375 15.058594 C 33.773438 15.390625 33.578125 15.652344 33.253906 15.839844 C 33.015625 15.976562 32.765625 16.035156 32.507812 16.007812 C 32.253906 15.984375 32.007812 15.882812 31.777344 15.714844 C 31.546875 15.539062 31.347656 15.3125 31.179688 15.027344 L 31.132812 14.945312 C 30.953125 14.640625 30.847656 14.34375 30.8125 14.054688 C 30.777344 13.765625 30.8125 13.503906 30.921875 13.269531 C 31.03125 13.035156 31.207031 12.847656 31.453125 12.707031 C 31.796875 12.507812 32.136719 12.46875 32.46875 12.59375 L 32.324219 12.277344 L 32.9375 11.921875 L 34.632812 14.859375 C 34.785156 15.125 34.859375 15.386719 34.855469 15.644531 C 34.851562 15.898438 34.777344 16.136719 34.628906 16.355469 C 34.480469 16.574219 34.269531 16.761719 33.996094 16.917969 Z M 31.84375 14.613281 C 32.007812 14.898438 32.203125 15.101562 32.425781 15.214844 C 32.648438 15.328125 32.875 15.320312 33.105469 15.183594 C 33.386719 15.023438 33.519531 14.789062 33.507812 14.476562 L 32.746094 13.15625 C 32.488281 13 32.222656 13 31.945312 13.160156 C 31.710938 13.292969 31.585938 13.488281 31.574219 13.742188 C 31.5625 13.992188 31.640625 14.261719 31.808594 14.554688 Z M 35.28125 11.367188 C 34.96875 11.546875 34.828125 11.789062 34.859375 12.085938 L 36.050781 14.152344 L 35.375 14.539062 L 33.632812 11.523438 L 34.277344 11.148438 L 34.492188 11.480469 C 34.5 11.125 34.648438 10.859375 34.945312 10.691406 C 35.035156 10.636719 35.125 10.601562 35.207031 10.589844 L 35.566406 11.230469 C 35.460938 11.273438 35.367188 11.316406 35.28125 11.367188 Z M 36.269531 11.972656 C 36.101562 11.683594 36.003906 11.386719 35.984375 11.089844 C 35.960938 10.789062 36.015625 10.515625 36.152344 10.257812 C 36.285156 10.003906 36.496094 9.792969 36.78125 9.628906 C 37.066406 9.464844 37.351562 9.386719 37.636719 9.394531 C 37.921875 9.402344 38.1875 9.488281 38.429688 9.648438 C 38.675781 9.8125 38.882812 10.035156 39.054688 10.316406 L 39.109375 10.414062 C 39.28125 10.707031 39.375 11.003906 39.398438 11.296875 C 39.421875 11.59375 39.363281 11.871094 39.226562 12.125 C 39.089844 12.378906 38.882812 12.589844 38.59375 12.753906 C 38.304688 12.921875 38.019531 13 37.730469 12.992188 C 37.441406 12.980469 37.175781 12.890625 36.929688 12.722656 C 36.679688 12.558594 36.472656 12.328125 36.304688 12.03125 Z M 36.976562 11.644531 C 37.085938 11.832031 37.210938 11.984375 37.347656 12.101562 C 37.484375 12.222656 37.636719 12.292969 37.796875 12.316406 C 37.957031 12.339844 38.117188 12.304688 38.28125 12.210938 C 38.441406 12.117188 38.550781 11.996094 38.609375 11.847656 C 38.667969 11.699219 38.679688 11.53125 38.644531 11.355469 C 38.609375 11.175781 38.539062 10.992188 38.429688 10.804688 L 38.398438 10.746094 C 38.292969 10.5625 38.167969 10.410156 38.03125 10.292969 C 37.890625 10.171875 37.742188 10.097656 37.578125 10.074219 C 37.417969 10.046875 37.257812 10.078125 37.097656 10.171875 C 36.9375 10.265625 36.828125 10.386719 36.769531 10.539062 C 36.714844 10.691406 36.703125 10.859375 36.734375 11.039062 C 36.769531 11.21875 36.839844 11.398438 36.945312 11.585938 Z M 42.378906 10.496094 L 42.191406 10.210938 C 42.128906 10.558594 41.914062 10.839844 41.546875 11.050781 C 41.238281 11.230469 40.941406 11.28125 40.660156 11.199219 C 40.378906 11.125 40.128906 10.894531 39.90625 10.511719 L 38.777344 8.550781 L 39.453125 8.160156 L 40.582031 10.117188 C 40.699219 10.320312 40.828125 10.4375 40.964844 10.472656 C 41.101562 10.507812 41.242188 10.488281 41.386719 10.402344 C 41.707031 10.21875 41.863281 9.972656 41.847656 9.671875 L 40.597656 7.5 L 41.273438 7.109375 L 43.015625 10.128906 Z M 45.210938 8.9375 C 44.882812 9.125 44.554688 9.171875 44.226562 9.066406 L 45.054688 10.5 L 44.378906 10.890625 L 41.964844 6.710938 L 42.589844 6.351562 L 42.792969 6.640625 C 42.855469 6.28125 43.058594 6.003906 43.398438 5.808594 C 43.648438 5.664062 43.898438 5.605469 44.148438 5.628906 C 44.398438 5.65625 44.636719 5.757812 44.863281 5.933594 C 45.085938 6.113281 45.289062 6.355469 45.46875 6.667969 L 45.5 6.722656 C 45.671875 7.019531 45.777344 7.308594 45.816406 7.59375 C 45.859375 7.878906 45.832031 8.136719 45.730469 8.371094 C 45.628906 8.605469 45.457031 8.792969 45.210938 8.9375 Z M 43.527344 6.472656 C 43.25 6.632812 43.117188 6.863281 43.128906 7.167969 L 43.898438 8.496094 C 44.15625 8.660156 44.429688 8.664062 44.707031 8.5 C 44.9375 8.371094 45.054688 8.179688 45.058594 7.925781 C 45.066406 7.671875 44.988281 7.402344 44.820312 7.113281 L 44.789062 7.054688 C 44.621094 6.765625 44.425781 6.558594 44.207031 6.445312 C 43.984375 6.328125 43.757812 6.335938 43.527344 6.472656 Z M 46.757812 7.515625 C 46.695312 7.402344 46.679688 7.292969 46.707031 7.179688 C 46.738281 7.070312 46.8125 6.980469 46.933594 6.910156 C 47.054688 6.839844 47.171875 6.820312 47.285156 6.847656 C 47.398438 6.878906 47.484375 6.949219 47.546875 7.058594 C 47.609375 7.164062 47.625 7.277344 47.59375 7.386719 C 47.566406 7.5 47.488281 7.589844 47.367188 7.660156 C 47.246094 7.730469 47.132812 7.75 47.019531 7.722656 C 46.910156 7.691406 46.820312 7.625 46.757812 7.515625 Z M 50.324219 5.90625 C 50.253906 5.859375 50.171875 5.78125 50.082031 5.667969 C 49.996094 6.019531 49.800781 6.289062 49.484375 6.46875 C 49.289062 6.582031 49.085938 6.644531 48.886719 6.65625 C 48.683594 6.667969 48.5 6.628906 48.332031 6.542969 C 48.164062 6.453125 48.035156 6.324219 47.9375 6.15625 C 47.75 5.835938 47.726562 5.523438 47.867188 5.210938 C 48.007812 4.902344 48.296875 4.621094 48.734375 4.367188 L 49.160156 4.121094 L 49.042969 3.925781 C 48.953125 3.765625 48.832031 3.660156 48.691406 3.621094 C 48.546875 3.582031 48.386719 3.613281 48.214844 3.710938 C 48.109375 3.773438 48.027344 3.84375 47.96875 3.925781 C 47.910156 4.007812 47.875 4.09375 47.867188 4.183594 C 47.859375 4.269531 47.878906 4.351562 47.925781 4.429688 L 47.25 4.820312 C 47.15625 4.660156 47.121094 4.480469 47.144531 4.277344 C 47.164062 4.074219 47.242188 3.878906 47.382812 3.683594 C 47.519531 3.484375 47.714844 3.316406 47.957031 3.175781 C 48.1875 3.042969 48.414062 2.964844 48.636719 2.941406 C 48.855469 2.917969 49.0625 2.957031 49.25 3.054688 C 49.4375 3.152344 49.597656 3.3125 49.726562 3.539062 L 50.5 4.878906 C 50.65625 5.148438 50.816406 5.339844 50.988281 5.460938 L 51.015625 5.507812 Z M 49.296875 5.851562 C 49.445312 5.765625 49.554688 5.65625 49.628906 5.515625 C 49.707031 5.375 49.738281 5.242188 49.730469 5.117188 L 49.40625 4.546875 L 48.992188 4.785156 C 48.523438 5.070312 48.382812 5.375 48.570312 5.699219 C 48.644531 5.828125 48.746094 5.90625 48.875 5.9375 C 49.003906 5.96875 49.144531 5.9375 49.296875 5.851562 Z M 51.414062 1.917969 C 51.140625 2.078125 51.011719 2.300781 51.027344 2.589844 L 52.289062 4.773438 L 51.613281 5.164062 L 49.871094 2.148438 L 50.507812 1.78125 L 50.707031 2.082031 C 50.777344 1.714844 51 1.421875 51.367188 1.207031 C 51.765625 0.976562 52.132812 0.972656 52.457031 1.191406 C 52.503906 0.757812 52.722656 0.425781 53.121094 0.195312 C 53.78125 -0.1875 54.324219 -0.0078125 54.75 0.726562 L 55.886719 2.695312 L 55.210938 3.085938 L 54.082031 1.128906 C 53.957031 0.917969 53.828125 0.796875 53.691406 0.765625 C 53.550781 0.738281 53.390625 0.777344 53.210938 0.878906 C 53.0625 0.96875 52.960938 1.078125 52.910156 1.21875 C 52.855469 1.355469 52.851562 1.503906 52.890625 1.667969 L 54.085938 3.734375 L 53.410156 4.128906 L 52.28125 2.175781 C 52.164062 1.972656 52.035156 1.855469 51.890625 1.820312 C 51.75 1.78125 51.589844 1.816406 51.414062 1.917969 Z M 51.414062 1.917969 "/>
</g>
</svg>
