<?xml version="1.0" encoding="UTF-8"?>
<svg xmlns="http://www.w3.org/2000/svg" xmlns:xlink="http://www.w3.org/1999/xlink" width="200px" height="140px" viewBox="0 0 200 140" version="1.1">
<g id="surface1">
<path style=" stroke:none;fill-rule:nonzero;fill:rgb(100%,100%,100%);fill-opacity:0.768627;" d="M 0 70.265625 L 5.835938 48.492188 L 27.609375 54.328125 L 26.132812 59.835938 L 9.867188 55.476562 L 5.507812 71.742188 Z M 0 70.265625 "/>
<path style=" stroke:none;fill-rule:nonzero;fill:rgb(100%,100%,100%);fill-opacity:0.768627;" d="M 47.589844 35.996094 C 46.960938 36.359375 46.679688 36.835938 46.742188 37.4375 L 49.125 41.5625 L 47.773438 42.34375 L 44.289062 36.308594 L 45.585938 35.5625 L 46.011719 36.21875 C 46.023438 35.511719 46.324219 34.984375 46.914062 34.640625 C 47.101562 34.535156 47.273438 34.46875 47.4375 34.441406 L 48.164062 35.722656 C 47.949219 35.808594 47.757812 35.898438 47.589844 35.996094 Z M 56.074219 36.1875 C 56.039062 36.640625 55.890625 37.085938 55.632812 37.527344 C 55.367188 37.964844 54.960938 38.34375 54.40625 38.664062 C 53.820312 39 53.242188 39.167969 52.65625 39.164062 C 52.078125 39.164062 51.542969 39.011719 51.054688 38.703125 C 50.5625 38.398438 50.15625 37.96875 49.835938 37.414062 L 49.703125 37.179688 C 49.347656 36.5625 49.152344 35.945312 49.117188 35.335938 C 49.085938 34.734375 49.199219 34.179688 49.46875 33.6875 C 49.734375 33.1875 50.121094 32.789062 50.636719 32.492188 C 51.207031 32.164062 51.757812 32.015625 52.289062 32.042969 C 52.820312 32.070312 53.308594 32.253906 53.757812 32.59375 C 54.203125 32.929688 54.597656 33.390625 54.9375 33.984375 L 55.273438 34.558594 L 51.328125 36.835938 C 51.535156 37.132812 51.773438 37.367188 52.046875 37.535156 C 52.320312 37.703125 52.617188 37.789062 52.929688 37.789062 C 53.242188 37.792969 53.554688 37.703125 53.863281 37.527344 C 54.484375 37.171875 54.84375 36.628906 54.945312 35.90625 Z M 51.265625 33.585938 C 50.898438 33.796875 50.679688 34.09375 50.59375 34.484375 C 50.515625 34.878906 50.578125 35.324219 50.777344 35.828125 L 53.351562 34.339844 L 53.296875 34.242188 C 53.039062 33.851562 52.742188 33.585938 52.402344 33.441406 C 52.0625 33.296875 51.679688 33.34375 51.265625 33.585938 Z M 61.621094 34.351562 L 61.203125 33.757812 C 61.082031 34.484375 60.683594 35.039062 60 35.4375 C 59.53125 35.707031 59.039062 35.8125 58.527344 35.757812 C 58.015625 35.703125 57.527344 35.492188 57.0625 35.140625 C 56.601562 34.789062 56.199219 34.324219 55.859375 33.742188 L 55.796875 33.625 C 55.441406 33.011719 55.230469 32.421875 55.15625 31.84375 C 55.078125 31.265625 55.148438 30.746094 55.359375 30.28125 C 55.570312 29.820312 55.914062 29.445312 56.398438 29.167969 C 57.035156 28.800781 57.679688 28.726562 58.335938 28.9375 L 56.554688 25.851562 L 57.910156 25.070312 L 62.859375 33.636719 Z M 57.210938 32.960938 C 57.546875 33.539062 57.929688 33.945312 58.367188 34.175781 C 58.800781 34.40625 59.246094 34.390625 59.707031 34.125 C 60.261719 33.804688 60.523438 33.320312 60.492188 32.671875 L 59.007812 30.101562 C 58.476562 29.761719 57.9375 29.753906 57.382812 30.074219 C 56.921875 30.34375 56.679688 30.726562 56.664062 31.21875 C 56.648438 31.71875 56.808594 32.257812 57.148438 32.84375 Z M 67.992188 33.839844 C 67.75 33.976562 67.46875 34.097656 67.144531 34.195312 C 66.820312 34.289062 66.484375 34.335938 66.132812 34.335938 C 65.78125 34.339844 65.457031 34.273438 65.15625 34.148438 L 65.332031 32.96875 C 66.042969 33.21875 66.695312 33.164062 67.300781 32.820312 C 67.753906 32.554688 68.039062 32.226562 68.15625 31.828125 C 68.269531 31.421875 68.191406 30.992188 67.921875 30.527344 L 67.6875 30.117188 C 67.546875 30.78125 67.15625 31.304688 66.507812 31.679688 C 66.027344 31.957031 65.53125 32.066406 65.015625 32.015625 C 64.507812 31.96875 64.019531 31.769531 63.554688 31.425781 C 63.09375 31.082031 62.695312 30.625 62.355469 30.054688 L 62.261719 29.890625 C 61.90625 29.28125 61.695312 28.6875 61.625 28.105469 C 61.554688 27.53125 61.625 27.007812 61.84375 26.539062 C 62.0625 26.070312 62.414062 25.695312 62.90625 25.414062 C 63.59375 25.011719 64.273438 24.9375 64.9375 25.1875 L 64.648438 24.554688 L 65.875 23.84375 L 69.265625 29.714844 C 69.570312 30.246094 69.71875 30.773438 69.710938 31.285156 C 69.703125 31.800781 69.554688 32.277344 69.257812 32.710938 C 68.957031 33.152344 68.539062 33.527344 67.992188 33.839844 Z M 63.683594 29.222656 C 64.015625 29.800781 64.40625 30.203125 64.851562 30.429688 C 65.292969 30.65625 65.75 30.640625 66.210938 30.367188 C 66.773438 30.046875 67.039062 29.574219 67.015625 28.953125 L 65.492188 26.3125 C 64.976562 25.996094 64.441406 26 63.890625 26.320312 C 63.421875 26.589844 63.171875 26.976562 63.148438 27.480469 C 63.125 27.984375 63.28125 28.527344 63.617188 29.109375 Z M 70.5625 22.734375 C 69.9375 23.09375 69.65625 23.574219 69.714844 24.171875 L 72.097656 28.300781 L 70.75 29.078125 L 67.265625 23.046875 L 68.558594 22.296875 L 68.984375 22.957031 C 68.996094 22.25 69.296875 21.71875 69.886719 21.378906 C 70.074219 21.273438 70.25 21.203125 70.410156 21.179688 L 71.132812 22.460938 C 70.921875 22.546875 70.730469 22.632812 70.5625 22.734375 Z M 72.539062 23.949219 C 72.203125 23.367188 72.007812 22.773438 71.96875 22.179688 C 71.921875 21.582031 72.035156 21.027344 72.304688 20.519531 C 72.570312 20.007812 72.992188 19.585938 73.5625 19.257812 C 74.132812 18.929688 74.703125 18.773438 75.273438 18.789062 C 75.84375 18.804688 76.371094 18.976562 76.859375 19.300781 C 77.351562 19.625 77.765625 20.070312 78.109375 20.636719 L 78.21875 20.824219 C 78.558594 21.414062 78.75 22.003906 78.796875 22.597656 C 78.84375 23.1875 78.726562 23.742188 78.453125 24.25 C 78.183594 24.757812 77.765625 25.179688 77.191406 25.511719 C 76.613281 25.84375 76.035156 26 75.460938 25.984375 C 74.882812 25.960938 74.351562 25.78125 73.855469 25.449219 C 73.359375 25.117188 72.945312 24.65625 72.605469 24.066406 Z M 73.953125 23.285156 C 74.171875 23.664062 74.421875 23.96875 74.695312 24.207031 C 74.96875 24.445312 75.269531 24.585938 75.589844 24.632812 C 75.914062 24.679688 76.234375 24.609375 76.5625 24.421875 C 76.882812 24.238281 77.101562 23.992188 77.21875 23.695312 C 77.335938 23.394531 77.359375 23.066406 77.289062 22.710938 C 77.21875 22.351562 77.078125 21.984375 76.863281 21.609375 L 76.796875 21.492188 C 76.582031 21.125 76.335938 20.820312 76.058594 20.582031 C 75.78125 20.34375 75.480469 20.195312 75.15625 20.144531 C 74.835938 20.09375 74.515625 20.160156 74.195312 20.34375 C 73.875 20.53125 73.65625 20.773438 73.542969 21.078125 C 73.429688 21.382812 73.40625 21.714844 73.46875 22.078125 C 73.539062 22.4375 73.675781 22.800781 73.890625 23.171875 Z M 84.757812 20.992188 L 84.378906 20.421875 C 84.257812 21.117188 83.828125 21.679688 83.09375 22.101562 C 82.472656 22.460938 81.882812 22.5625 81.320312 22.398438 C 80.757812 22.246094 80.257812 21.789062 79.816406 21.027344 L 77.550781 17.105469 L 78.90625 16.320312 L 81.164062 20.234375 C 81.398438 20.640625 81.652344 20.878906 81.929688 20.945312 C 82.203125 21.019531 82.488281 20.972656 82.773438 20.804688 C 83.417969 20.4375 83.726562 19.945312 83.699219 19.34375 L 81.195312 15 L 82.550781 14.21875 L 86.035156 20.253906 Z M 90.421875 17.875 C 89.761719 18.25 89.109375 18.339844 88.453125 18.136719 L 90.105469 21 L 88.757812 21.777344 L 83.929688 13.421875 L 85.179688 12.703125 L 85.585938 13.277344 C 85.710938 12.5625 86.117188 12.011719 86.796875 11.617188 C 87.296875 11.328125 87.800781 11.210938 88.296875 11.257812 C 88.800781 11.3125 89.273438 11.515625 89.722656 11.871094 C 90.171875 12.226562 90.578125 12.710938 90.9375 13.335938 L 91 13.445312 C 91.34375 14.039062 91.554688 14.617188 91.636719 15.1875 C 91.71875 15.757812 91.660156 16.273438 91.460938 16.746094 C 91.257812 17.210938 90.914062 17.585938 90.421875 17.875 Z M 87.054688 12.945312 C 86.5 13.265625 86.230469 13.726562 86.257812 14.332031 L 87.792969 16.992188 C 88.316406 17.320312 88.855469 17.324219 89.414062 17 C 89.871094 16.738281 90.105469 16.355469 90.121094 15.851562 C 90.132812 15.34375 89.976562 14.804688 89.640625 14.226562 L 89.578125 14.113281 C 89.238281 13.53125 88.851562 13.117188 88.414062 12.890625 C 87.96875 12.65625 87.519531 12.675781 87.054688 12.945312 Z M 93.515625 15.03125 C 93.390625 14.808594 93.359375 14.585938 93.414062 14.363281 C 93.476562 14.140625 93.628906 13.960938 93.871094 13.820312 C 94.109375 13.679688 94.34375 13.640625 94.570312 13.695312 C 94.796875 13.757812 94.96875 13.898438 95.097656 14.117188 C 95.21875 14.332031 95.25 14.554688 95.1875 14.773438 C 95.132812 15 94.976562 15.179688 94.734375 15.320312 C 94.492188 15.460938 94.261719 15.5 94.039062 15.441406 C 93.820312 15.382812 93.644531 15.25 93.515625 15.03125 Z M 100.648438 11.816406 C 100.507812 11.71875 100.34375 11.5625 100.164062 11.335938 C 99.992188 12.039062 99.597656 12.578125 98.96875 12.9375 C 98.574219 13.164062 98.171875 13.289062 97.773438 13.3125 C 97.367188 13.335938 97 13.257812 96.664062 13.085938 C 96.332031 12.90625 96.070312 12.652344 95.875 12.3125 C 95.503906 11.671875 95.457031 11.046875 95.734375 10.421875 C 96.015625 9.804688 96.59375 9.242188 97.464844 8.738281 L 98.320312 8.246094 L 98.089844 7.851562 C 97.90625 7.53125 97.667969 7.324219 97.382812 7.246094 C 97.09375 7.164062 96.777344 7.226562 96.429688 7.421875 C 96.21875 7.546875 96.054688 7.691406 95.9375 7.855469 C 95.820312 8.019531 95.75 8.1875 95.734375 8.367188 C 95.71875 8.539062 95.757812 8.703125 95.847656 8.859375 L 94.5 9.640625 C 94.3125 9.320312 94.242188 8.960938 94.285156 8.554688 C 94.328125 8.152344 94.484375 7.757812 94.765625 7.367188 C 95.042969 6.972656 95.425781 6.632812 95.917969 6.351562 C 96.378906 6.085938 96.828125 5.929688 97.273438 5.882812 C 97.710938 5.835938 98.121094 5.914062 98.5 6.109375 C 98.875 6.304688 99.191406 6.628906 99.453125 7.078125 L 101 9.757812 C 101.3125 10.296875 101.636719 10.683594 101.976562 10.921875 L 102.03125 11.019531 Z M 98.59375 11.703125 C 98.890625 11.53125 99.109375 11.308594 99.261719 11.03125 C 99.410156 10.753906 99.480469 10.484375 99.464844 10.230469 L 98.808594 9.09375 L 97.984375 9.570312 C 97.046875 10.140625 96.765625 10.75 97.144531 11.398438 C 97.289062 11.65625 97.492188 11.8125 97.75 11.875 C 98.007812 11.9375 98.289062 11.875 98.59375 11.703125 Z M 102.828125 3.835938 C 102.28125 4.152344 102.023438 4.597656 102.050781 5.175781 L 104.578125 9.550781 L 103.226562 10.328125 L 99.742188 4.292969 L 101.015625 3.5625 L 101.417969 4.164062 C 101.554688 3.425781 102 2.839844 102.734375 2.414062 C 103.53125 1.953125 104.265625 1.945312 104.917969 2.382812 C 105.007812 1.515625 105.445312 0.851562 106.242188 0.390625 C 107.5625 -0.375 108.648438 -0.015625 109.503906 1.453125 L 111.777344 5.390625 L 110.421875 6.171875 L 108.164062 2.257812 C 107.917969 1.835938 107.65625 1.59375 107.378906 1.53125 C 107.101562 1.476562 106.785156 1.554688 106.421875 1.757812 C 106.125 1.9375 105.917969 2.15625 105.816406 2.433594 C 105.710938 2.710938 105.703125 3.007812 105.785156 3.335938 L 108.171875 7.472656 L 106.820312 8.257812 L 104.5625 4.351562 C 104.328125 3.945312 104.070312 3.707031 103.785156 3.636719 C 103.5 3.566406 103.179688 3.632812 102.828125 3.835938 Z M 102.828125 3.835938 "/>
</g>
</svg>
