<?xml version="1.0" encoding="UTF-8"?>
<svg xmlns="http://www.w3.org/2000/svg" xmlns:xlink="http://www.w3.org/1999/xlink" width="800px" height="560px" viewBox="0 0 800 560" version="1.1">
<g id="surface1">
<path style=" stroke:none;fill-rule:nonzero;fill:rgb(100%,100%,100%);fill-opacity:0.768627;" d="M 0 281.0625 L 23.335938 193.960938 L 110.429688 217.304688 L 104.53125 239.335938 L 39.46875 221.90625 L 22.03125 286.96875 Z M 0 281.0625 "/>
<path style=" stroke:none;fill-rule:nonzero;fill:rgb(100%,100%,100%);fill-opacity:0.768627;" d="M 190.359375 143.984375 C 187.851562 145.429688 186.71875 147.351562 186.96875 149.742188 L 196.5 166.257812 L 191.101562 169.375 L 177.164062 145.234375 L 182.335938 142.242188 L 184.046875 144.882812 C 184.09375 142.046875 185.296875 139.9375 187.65625 138.570312 C 188.398438 138.140625 189.101562 137.875 189.75 137.765625 L 192.648438 142.890625 C 191.796875 143.234375 191.03125 143.59375 190.359375 143.984375 Z M 224.296875 144.742188 C 224.164062 146.5625 223.570312 148.34375 222.523438 150.109375 C 221.476562 151.859375 219.84375 153.382812 217.632812 154.65625 C 215.289062 156.007812 212.96875 156.671875 210.632812 156.664062 C 208.320312 156.664062 206.171875 156.046875 204.210938 154.8125 C 202.25 153.585938 200.632812 151.867188 199.351562 149.648438 L 198.820312 148.726562 C 197.390625 146.25 196.609375 143.789062 196.46875 141.351562 C 196.335938 138.929688 196.796875 136.71875 197.875 134.742188 C 198.9375 132.75 200.484375 131.164062 202.546875 129.976562 C 204.828125 128.664062 207.03125 128.0625 209.15625 128.171875 C 211.28125 128.289062 213.234375 129.015625 215.03125 130.367188 C 216.8125 131.710938 218.390625 133.570312 219.757812 135.929688 L 221.085938 138.234375 L 205.3125 147.34375 C 206.140625 148.523438 207.09375 149.460938 208.1875 150.140625 C 209.289062 150.820312 210.460938 151.164062 211.710938 151.164062 C 212.96875 151.171875 214.21875 150.820312 215.453125 150.109375 C 217.929688 148.679688 219.375 146.515625 219.773438 143.632812 Z M 205.0625 134.335938 C 203.601562 135.179688 202.710938 136.382812 202.382812 137.9375 C 202.0625 139.515625 202.304688 141.296875 203.109375 143.3125 L 213.414062 137.359375 L 213.179688 136.960938 C 212.164062 135.414062 210.976562 134.34375 209.609375 133.765625 C 208.242188 133.179688 206.71875 133.375 205.0625 134.335938 Z M 246.484375 137.398438 L 244.804688 135.039062 C 244.328125 137.9375 242.734375 140.164062 240.007812 141.742188 C 238.117188 142.828125 236.15625 143.257812 234.109375 143.03125 C 232.0625 142.804688 230.109375 141.976562 228.257812 140.570312 C 226.40625 139.164062 224.796875 137.296875 223.445312 134.960938 L 223.179688 134.492188 C 221.765625 132.046875 220.921875 129.679688 220.625 127.375 C 220.320312 125.070312 220.585938 122.984375 221.4375 121.132812 C 222.273438 119.28125 223.65625 117.789062 225.59375 116.671875 C 228.140625 115.203125 230.726562 114.898438 233.335938 115.742188 L 226.210938 103.40625 L 231.640625 100.28125 L 251.429688 134.546875 Z M 228.851562 131.84375 C 230.195312 134.164062 231.726562 135.789062 233.460938 136.703125 C 235.203125 137.632812 236.984375 137.570312 238.828125 136.5 C 241.046875 135.21875 242.09375 133.289062 241.96875 130.695312 L 236.03125 120.40625 C 233.914062 119.046875 231.75 119.015625 229.53125 120.296875 C 227.679688 121.367188 226.71875 122.898438 226.648438 124.882812 C 226.59375 126.867188 227.234375 129.039062 228.585938 131.375 Z M 271.976562 135.359375 C 271.007812 135.914062 269.875 136.390625 268.578125 136.773438 C 267.28125 137.148438 265.929688 137.34375 264.53125 137.351562 C 263.125 137.359375 261.828125 137.101562 260.632812 136.585938 L 261.328125 131.867188 C 264.171875 132.867188 266.789062 132.664062 269.203125 131.28125 C 271.015625 130.226562 272.148438 128.90625 272.617188 127.304688 C 273.078125 125.695312 272.765625 123.960938 271.695312 122.109375 L 270.757812 120.476562 C 270.1875 123.132812 268.625 125.21875 266.03125 126.71875 C 264.109375 127.828125 262.125 128.265625 260.070312 128.070312 C 258.023438 127.867188 256.078125 127.078125 254.226562 125.703125 C 252.382812 124.328125 250.78125 122.492188 249.421875 120.210938 L 249.046875 119.5625 C 247.632812 117.117188 246.789062 114.742188 246.507812 112.421875 C 246.21875 110.117188 246.5 108.023438 247.382812 106.15625 C 248.242188 104.289062 249.648438 102.78125 251.617188 101.648438 C 254.382812 100.046875 257.09375 99.742188 259.75 100.742188 L 258.601562 98.21875 L 263.5 95.382812 L 277.054688 118.859375 C 278.28125 120.984375 278.882812 123.085938 278.851562 125.140625 C 278.820312 127.203125 278.210938 129.109375 277.023438 130.851562 C 275.828125 132.609375 274.148438 134.109375 271.976562 135.359375 Z M 254.734375 116.890625 C 256.070312 119.203125 257.625 120.804688 259.398438 121.71875 C 261.171875 122.625 262.992188 122.554688 264.851562 121.476562 C 267.085938 120.1875 268.15625 118.296875 268.0625 115.8125 L 261.96875 105.257812 C 259.90625 103.984375 257.765625 103.992188 255.554688 105.273438 C 253.679688 106.359375 252.6875 107.90625 252.601562 109.921875 C 252.507812 111.945312 253.125 114.109375 254.46875 116.429688 Z M 282.25 90.929688 C 279.742188 92.375 278.617188 94.296875 278.859375 96.6875 L 288.390625 113.203125 L 282.992188 116.320312 L 269.054688 92.179688 L 274.234375 89.1875 L 275.9375 91.828125 C 275.984375 88.992188 277.1875 86.882812 279.546875 85.515625 C 280.296875 85.085938 280.992188 84.820312 281.640625 84.710938 L 284.539062 89.835938 C 283.6875 90.179688 282.921875 90.539062 282.25 90.929688 Z M 290.15625 95.796875 C 288.804688 93.460938 288.039062 91.101562 287.867188 88.710938 C 287.6875 86.328125 288.140625 84.109375 289.210938 82.078125 C 290.289062 80.03125 291.96875 78.351562 294.257812 77.03125 C 296.53125 75.710938 298.8125 75.09375 301.085938 75.164062 C 303.367188 75.21875 305.484375 75.898438 307.445312 77.203125 C 309.40625 78.5 311.070312 80.28125 312.4375 82.546875 L 312.875 83.296875 C 314.234375 85.65625 315 88.015625 315.179688 90.390625 C 315.367188 92.757812 314.914062 94.96875 313.820312 97.007812 C 312.734375 99.039062 311.054688 100.726562 308.765625 102.046875 C 306.453125 103.382812 304.140625 104 301.84375 103.929688 C 299.539062 103.84375 297.398438 103.132812 295.421875 101.796875 C 293.445312 100.460938 291.78125 98.617188 290.421875 96.265625 Z M 295.820312 93.140625 C 296.695312 94.65625 297.679688 95.875 298.78125 96.828125 C 299.882812 97.773438 301.078125 98.351562 302.359375 98.539062 C 303.648438 98.726562 304.9375 98.445312 306.25 97.6875 C 307.523438 96.953125 308.398438 95.976562 308.867188 94.789062 C 309.335938 93.578125 309.429688 92.265625 309.164062 90.835938 C 308.882812 89.398438 308.320312 87.9375 307.453125 86.429688 L 307.179688 85.96875 C 306.328125 84.492188 305.351562 83.28125 304.234375 82.328125 C 303.125 81.375 301.921875 80.789062 300.632812 80.578125 C 299.351562 80.367188 298.070312 80.640625 296.773438 81.382812 C 295.492188 82.125 294.625 83.101562 294.171875 84.3125 C 293.710938 85.523438 293.617188 86.859375 293.882812 88.304688 C 294.148438 89.75 294.703125 91.203125 295.554688 92.679688 Z M 339.023438 83.96875 L 337.515625 81.6875 C 337.03125 84.476562 335.3125 86.71875 332.375 88.414062 C 329.890625 89.84375 327.539062 90.242188 325.289062 89.601562 C 323.039062 88.984375 321.03125 87.148438 319.265625 84.109375 L 310.203125 68.421875 L 315.625 65.289062 L 324.65625 80.929688 C 325.59375 82.554688 326.609375 83.515625 327.71875 83.789062 C 328.820312 84.078125 329.953125 83.890625 331.101562 83.226562 C 333.671875 81.75 334.898438 79.78125 334.796875 77.367188 L 324.773438 60.007812 L 330.203125 56.875 L 344.140625 81.015625 Z M 361.6875 71.492188 C 359.046875 73.007812 356.429688 73.359375 353.820312 72.546875 L 360.421875 83.992188 L 355.023438 87.109375 L 335.726562 53.6875 L 340.710938 50.8125 L 342.335938 53.109375 C 342.84375 50.257812 344.460938 48.046875 347.179688 46.46875 C 349.195312 45.3125 351.203125 44.835938 353.195312 45.039062 C 355.203125 45.242188 357.09375 46.0625 358.890625 47.484375 C 360.6875 48.898438 362.304688 50.851562 363.742188 53.34375 L 364 53.78125 C 365.367188 56.15625 366.210938 58.476562 366.546875 60.75 C 366.875 63.03125 366.640625 65.101562 365.835938 66.984375 C 365.03125 68.84375 363.648438 70.351562 361.6875 71.492188 Z M 348.21875 51.773438 C 345.992188 53.0625 344.921875 54.914062 345.03125 57.328125 L 351.171875 67.96875 C 353.265625 69.289062 355.421875 69.296875 357.65625 68.007812 C 359.484375 66.953125 360.421875 65.421875 360.484375 63.398438 C 360.539062 61.382812 359.898438 59.21875 358.554688 56.898438 L 358.304688 56.453125 C 356.953125 54.117188 355.398438 52.476562 353.648438 51.554688 C 351.882812 50.625 350.078125 50.703125 348.21875 51.773438 Z M 374.070312 60.117188 C 373.5625 59.234375 373.4375 58.351562 373.664062 57.453125 C 373.90625 56.570312 374.515625 55.835938 375.484375 55.28125 C 376.445312 54.71875 377.382812 54.554688 378.273438 54.789062 C 379.179688 55.039062 379.882812 55.585938 380.390625 56.46875 C 380.882812 57.328125 381.007812 58.210938 380.757812 59.101562 C 380.523438 60 379.914062 60.71875 378.945312 61.28125 C 377.976562 61.835938 377.046875 62.007812 376.164062 61.765625 C 375.273438 61.539062 374.578125 60.992188 374.070312 60.117188 Z M 402.601562 47.265625 C 402.039062 46.882812 401.382812 46.242188 400.664062 45.351562 C 399.976562 48.164062 398.390625 50.304688 395.875 51.75 C 394.296875 52.664062 392.695312 53.15625 391.085938 53.242188 C 389.46875 53.335938 387.992188 53.03125 386.664062 52.335938 C 385.328125 51.632812 384.273438 50.609375 383.492188 49.25 C 382.015625 46.695312 381.828125 44.179688 382.945312 41.695312 C 384.0625 39.226562 386.367188 36.96875 389.859375 34.953125 L 393.273438 32.984375 L 392.359375 31.398438 C 391.617188 30.117188 390.671875 29.296875 389.523438 28.984375 C 388.375 28.664062 387.109375 28.898438 385.726562 29.6875 C 384.875 30.1875 384.226562 30.765625 383.757812 31.421875 C 383.28125 32.078125 383.007812 32.757812 382.945312 33.460938 C 382.882812 34.15625 383.039062 34.820312 383.390625 35.445312 L 377.992188 38.5625 C 377.257812 37.289062 376.96875 35.835938 377.140625 34.21875 C 377.3125 32.609375 377.945312 31.023438 379.0625 29.460938 C 380.171875 27.890625 381.703125 26.539062 383.671875 25.40625 C 385.515625 24.335938 387.320312 23.71875 389.085938 23.53125 C 390.851562 23.351562 392.484375 23.648438 393.992188 24.4375 C 395.492188 25.21875 396.765625 26.515625 397.804688 28.3125 L 403.992188 39.03125 C 405.242188 41.179688 406.546875 42.734375 407.90625 43.695312 L 408.125 44.078125 Z M 394.375 46.804688 C 395.5625 46.125 396.445312 45.234375 397.046875 44.117188 C 397.640625 43.015625 397.921875 41.945312 397.859375 40.921875 L 395.234375 36.375 L 391.9375 38.28125 C 388.195312 40.5625 387.070312 43 388.578125 45.601562 C 389.164062 46.617188 389.96875 47.242188 391 47.5 C 392.039062 47.742188 393.164062 47.507812 394.375 46.804688 Z M 411.304688 15.351562 C 409.125 16.609375 408.101562 18.390625 408.203125 20.703125 L 418.304688 38.203125 L 412.90625 41.320312 L 398.960938 17.171875 L 404.054688 14.242188 L 405.671875 16.664062 C 406.226562 13.703125 407.992188 11.359375 410.9375 9.664062 C 414.132812 7.8125 417.054688 7.78125 419.671875 9.539062 C 420.023438 6.0625 421.789062 3.398438 424.96875 1.554688 C 430.25 -1.492188 434.59375 -0.0625 438.015625 5.820312 L 447.109375 21.570312 L 441.6875 24.695312 L 432.648438 9.03125 C 431.671875 7.34375 430.625 6.375 429.515625 6.132812 C 428.414062 5.914062 427.140625 6.210938 425.695312 7.039062 C 424.492188 7.742188 423.671875 8.632812 423.265625 9.734375 C 422.84375 10.835938 422.8125 12.039062 423.140625 13.335938 L 432.695312 29.890625 L 427.273438 33.023438 L 418.257812 17.40625 C 417.320312 15.78125 416.289062 14.828125 415.140625 14.546875 C 413.992188 14.265625 412.710938 14.539062 411.304688 15.351562 Z M 411.304688 15.351562 "/>
</g>
</svg>
