<?xml version="1.0" encoding="UTF-8"?>
<!DOCTYPE svg PUBLIC "-//W3C//DTD SVG 1.1//EN" "http://www.w3.org/Graphics/SVG/1.1/DTD/svg11.dtd" >
<svg viewBox="9469.393 9523.971 200 140" width="200" height="140" xmlns="http://www.w3.org/2000/svg" xml:space="preserve"

 xmlns:xlink="http://www.w3.org/1999/xlink"
 xmlns:xodm="http://www.corel.com/coreldraw/odm/2003">
  <defs>
    <style type="text/css">

    .str0 {stroke:black;stroke-width:17.64;stroke-miterlimit:22.9256}
    .str1 {stroke:white;stroke-width:17.64;stroke-miterlimit:22.9256}
    .fil1 {fill:none}
    .fil0 {fill:black}
    .fil3 {fill:white;fill-opacity:0.768627}
    .fil2 {fill:white;fill-opacity:0.768627}

  </style>
  </defs>
   <g id="Layer_x0020_1" style="" transform="matrix(0.103947, 0, 0, 0.103947, 8485.078125, 8598.267578)">
    <g>
      <polygon class="fil2" points="9469.39,9581.5 9525.52,9372.02 9734.99,9428.17 9720.8,9481.15 9564.31,9439.23 9522.38,9595.71 "></polygon>
      <path class="fil3" d="M9927.22 9251.82c-6.04,3.49 -8.75,8.11 -8.16,13.86l22.93 39.72 -12.99 7.5 -33.52 -58.07 12.45 -7.19 4.11 6.35c0.11,-6.83 3,-11.9 8.68,-15.18 1.79,-1.03 3.47,-1.68 5.03,-1.94l6.97 12.33c-2.05,0.82 -3.89,1.69 -5.5,2.62zm81.63 1.82c-0.32,4.38 -1.75,8.67 -4.27,12.91 -2.52,4.21 -6.44,7.88 -11.77,10.95 -5.63,3.25 -11.22,4.84 -16.83,4.83 -5.57,0 -10.73,-1.5 -15.44,-4.46 -4.72,-2.95 -8.62,-7.09 -11.7,-12.43l-1.27 -2.2c-3.44,-5.97 -5.32,-11.89 -5.65,-17.74 -0.32,-5.84 0.79,-11.15 3.37,-15.91 2.56,-4.78 6.29,-8.6 11.24,-11.45 5.48,-3.17 10.78,-4.61 15.89,-4.34 5.11,0.27 9.82,2.03 14.13,5.27 4.29,3.24 8.09,7.7 11.38,13.39l3.19 5.53 -37.94 21.91c1.99,2.85 4.28,5.1 6.91,6.73 2.65,1.63 5.47,2.46 8.49,2.47 3.02,0.02 6.02,-0.83 8.99,-2.54 5.96,-3.45 9.44,-8.65 10.39,-15.58l10.89 2.66zm-46.27 -25.02c-3.52,2.03 -5.65,4.93 -6.45,8.67 -0.77,3.78 -0.19,8.08 1.75,12.92l24.78 -14.31 -0.56 -0.97c-2.43,-3.72 -5.29,-6.29 -8.59,-7.69 -3.28,-1.4 -6.94,-0.93 -10.93,1.38zm99.63 7.37l-4.05 -5.68c-1.14,6.97 -4.97,12.33 -11.53,16.12 -4.54,2.62 -9.27,3.64 -14.18,3.11 -4.94,-0.55 -9.62,-2.54 -14.08,-5.92 -4.45,-3.38 -8.32,-7.87 -11.57,-13.5l-0.64 -1.12c-3.4,-5.88 -5.44,-11.58 -6.15,-17.13 -0.74,-5.53 -0.09,-10.55 1.96,-15 2.01,-4.46 5.34,-8.05 9.99,-10.74 6.12,-3.53 12.35,-4.26 18.62,-2.22l-17.13 -29.67 13.05 -7.53 47.59 82.42 -11.88 6.86zm-42.42 -13.37c3.23,5.59 6.92,9.49 11.1,11.7 4.18,2.23 8.47,2.07 12.91,-0.49 5.33,-3.08 7.84,-7.73 7.54,-13.97l-14.28 -24.74c-5.08,-3.27 -10.29,-3.34 -15.62,-0.27 -4.47,2.58 -6.78,6.27 -6.94,11.04 -0.14,4.77 1.4,9.99 4.65,15.61l0.64 1.12zm103.72 8.46c-2.32,1.34 -5.05,2.48 -8.17,3.4 -3.11,0.91 -6.36,1.38 -9.74,1.4 -3.38,0.01 -6.5,-0.6 -9.37,-1.85l1.67 -11.35c6.84,2.41 13.13,1.92 18.95,-1.41 4.35,-2.54 7.08,-5.7 8.2,-9.56 1.11,-3.88 0.37,-8.04 -2.21,-12.5l-2.26 -3.93c-1.36,6.4 -5.13,11.42 -11.37,15.02 -4.61,2.66 -9.39,3.73 -14.33,3.26 -4.93,-0.5 -9.61,-2.4 -14.06,-5.7 -4.43,-3.31 -8.29,-7.72 -11.55,-13.22l-0.9 -1.56c-3.4,-5.88 -5.43,-11.59 -6.1,-17.16 -0.7,-5.55 -0.02,-10.59 2.09,-15.07 2.07,-4.5 5.46,-8.12 10.19,-10.85 6.65,-3.84 13.17,-4.58 19.55,-2.18l-2.76 -6.07 11.79 -6.81 32.6 56.46c2.95,5.11 4.4,10.16 4.32,15.11 -0.07,4.95 -1.54,9.54 -4.4,13.73 -2.87,4.22 -6.92,7.83 -12.14,10.84zm-41.46 -44.41c3.21,5.55 6.95,9.41 11.22,11.61 4.26,2.18 8.63,2 13.11,-0.59 5.37,-3.1 7.94,-7.64 7.72,-13.62l-14.65 -25.39c-4.96,-3.05 -10.11,-3.03 -15.44,0.05 -4.5,2.6 -6.88,6.32 -7.1,11.18 -0.22,4.85 1.27,10.06 4.5,15.64l0.64 1.12zm66.18 -62.45c-6.04,3.49 -8.75,8.11 -8.16,13.86l22.93 39.72 -12.99 7.5 -33.52 -58.07 12.45 -7.19 4.11 6.35c0.11,-6.83 3,-11.9 8.68,-15.18 1.79,-1.03 3.47,-1.68 5.03,-1.94l6.97 12.33c-2.05,0.82 -3.89,1.69 -5.5,2.62zm19.01 11.71c-3.25,-5.62 -5.09,-11.3 -5.5,-17.04 -0.43,-5.74 0.65,-11.06 3.22,-15.96 2.59,-4.91 6.63,-8.96 12.14,-12.14 5.48,-3.16 10.96,-4.66 16.43,-4.49 5.49,0.14 10.58,1.78 15.29,4.91 4.72,3.12 8.72,7.4 12.01,12.85l1.05 1.81c3.27,5.67 5.11,11.35 5.55,17.05 0.44,5.71 -0.65,11.02 -3.27,15.93 -2.62,4.88 -6.66,8.93 -12.17,12.11 -5.56,3.21 -11.11,4.7 -16.64,4.53 -5.55,-0.2 -10.7,-1.91 -15.44,-5.13 -4.76,-3.21 -8.76,-7.65 -12.03,-13.31l-0.64 -1.12zm13.63 -6.38c2.1,3.63 4.47,6.56 7.11,8.86 2.66,2.28 5.53,3.66 8.61,4.12 3.09,0.44 6.19,-0.23 9.35,-2.05 3.07,-1.77 5.17,-4.11 6.3,-6.98 1.13,-2.9 1.36,-6.07 0.71,-9.5 -0.67,-3.45 -2.02,-6.97 -4.12,-10.6l-0.64 -1.11c-2.05,-3.55 -4.41,-6.46 -7.09,-8.75 -2.68,-2.3 -5.56,-3.71 -8.67,-4.21 -3.07,-0.5 -6.16,0.14 -9.28,1.94 -3.08,1.78 -5.16,4.13 -6.26,7.04 -1.1,2.92 -1.33,6.13 -0.69,9.61 0.64,3.46 1.98,6.96 4.03,10.51l0.64 1.12zm103.9 -22.06l-3.62 -5.5c-1.17,6.71 -5.31,12.11 -12.38,16.19 -5.96,3.44 -11.63,4.39 -17.03,2.86 -5.41,-1.49 -10.24,-5.91 -14.5,-13.22l-21.78 -37.73 13.04 -7.53 21.72 37.62c2.25,3.91 4.7,6.21 7.36,6.87 2.65,0.69 5.37,0.25 8.13,-1.35 6.18,-3.56 9.14,-8.29 8.89,-14.1l-24.1 -41.74 13.05 -7.53 33.52 58.06 -12.3 7.1zm54.5 -30.02c-6.34,3.66 -12.64,4.5 -18.92,2.54l15.89 27.53 -12.99 7.5 -46.41 -80.39 11.98 -6.91 3.91 5.53c1.23,-6.86 5.12,-12.19 11.66,-15.97 4.84,-2.79 9.67,-3.94 14.47,-3.45 4.82,0.5 9.37,2.46 13.69,5.88 4.33,3.41 8.21,8.11 11.66,14.09l0.62 1.07c3.29,5.7 5.32,11.29 6.13,16.76 0.79,5.48 0.23,10.46 -1.7,14.98 -1.94,4.48 -5.26,8.11 -9.99,10.84zm-32.39 -47.42c-5.36,3.1 -7.92,7.56 -7.66,13.37l14.77 25.59c5.03,3.16 10.22,3.19 15.59,0.09 4.4,-2.54 6.66,-6.22 6.8,-11.09 0.14,-4.84 -1.4,-10.06 -4.63,-15.64l-0.61 -1.07c-3.25,-5.62 -6.98,-9.55 -11.2,-11.78 -4.25,-2.23 -8.59,-2.05 -13.06,0.53zm62.18 20.07c-1.23,-2.13 -1.53,-4.25 -0.97,-6.41 0.57,-2.13 2.03,-3.89 4.36,-5.23 2.32,-1.34 4.57,-1.73 6.72,-1.17 2.17,0.59 3.86,1.91 5.08,4.03 1.2,2.07 1.5,4.19 0.9,6.34 -0.58,2.15 -2.04,3.89 -4.36,5.23 -2.33,1.35 -4.57,1.76 -6.7,1.18 -2.13,-0.55 -3.82,-1.87 -5.03,-3.97zm68.62 -30.91c-1.35,-0.93 -2.93,-2.46 -4.67,-4.6 -1.64,6.76 -5.46,11.9 -11.51,15.39 -3.79,2.19 -7.64,3.38 -11.52,3.59 -3.88,0.22 -7.44,-0.51 -10.64,-2.18 -3.21,-1.7 -5.75,-4.16 -7.63,-7.42 -3.55,-6.15 -4,-12.2 -1.31,-18.17 2.69,-5.95 8.23,-11.37 16.64,-16.23l8.2 -4.73 -2.2 -3.81c-1.78,-3.09 -4.06,-5.06 -6.81,-5.81 -2.77,-0.77 -5.82,-0.21 -9.13,1.7 -2.06,1.19 -3.62,2.58 -4.75,4.16 -1.14,1.58 -1.8,3.21 -1.94,4.91 -0.15,1.67 0.21,3.27 1.07,4.77l-12.99 7.5c-1.77,-3.07 -2.46,-6.56 -2.04,-10.44 0.4,-3.88 1.93,-7.69 4.62,-11.46 2.66,-3.77 6.35,-7.02 11.08,-9.75 4.43,-2.56 8.77,-4.05 13.02,-4.51 4.25,-0.42 8.18,0.29 11.81,2.18 3.6,1.89 6.67,5 9.17,9.33l14.88 25.77c2.99,5.18 6.13,8.91 9.41,11.22l0.53 0.92 -13.29 7.67zm-19.78 -1.11c2.84,-1.64 4.98,-3.77 6.41,-6.46 1.44,-2.66 2.11,-5.22 1.96,-7.68l-6.31 -10.94 -7.93 4.58c-9,5.48 -11.7,11.35 -8.08,17.61 1.41,2.44 3.35,3.95 5.83,4.56 2.49,0.58 5.2,0.02 8.12,-1.67zm40.71 -75.65c-5.24,3.03 -7.71,7.32 -7.46,12.88l24.3 42.08 -12.99 7.5 -33.53 -58.07 12.24 -7.06 3.89 5.83c1.34,-7.12 5.58,-12.75 12.66,-16.84 7.69,-4.44 14.71,-4.53 21.01,-0.3 0.84,-8.35 5.1,-14.77 12.75,-19.19 12.7,-7.33 23.15,-3.9 31.37,10.25l21.87 37.88 -13.03 7.52 -21.75 -37.68c-2.35,-4.06 -4.86,-6.39 -7.53,-6.96 -2.66,-0.54 -5.72,0.18 -9.19,2.18 -2.9,1.68 -4.86,3.83 -5.84,6.48 -1.01,2.65 -1.1,5.54 -0.31,8.65l22.99 39.82 -13.04 7.53 -21.69 -37.56c-2.26,-3.91 -4.74,-6.19 -7.5,-6.87 -2.76,-0.68 -5.83,-0.02 -9.22,1.93z"></path>
    </g>
  </g>
</svg>
