<?xml version="1.0" encoding="UTF-8"?>
<svg xmlns="http://www.w3.org/2000/svg" xmlns:xlink="http://www.w3.org/1999/xlink" width="50px" height="35px" viewBox="0 0 50 35" version="1.1">
<g id="surface1">
<path style=" stroke:none;fill-rule:nonzero;fill:rgb(100%,100%,100%);fill-opacity:0.768627;" d="M 0 17.566406 L 1.457031 12.121094 L 6.902344 13.582031 L 6.535156 14.957031 L 2.464844 13.867188 L 1.378906 17.933594 Z M 0 17.566406 "/>
<path style=" stroke:none;fill-rule:nonzero;fill:rgb(100%,100%,100%);fill-opacity:0.768627;" d="M 11.898438 9 C 11.742188 9.089844 11.671875 9.210938 11.683594 9.359375 L 12.28125 10.390625 L 11.945312 10.585938 L 11.074219 9.078125 L 11.394531 8.890625 L 11.503906 9.054688 C 11.503906 8.878906 11.582031 8.746094 11.730469 8.660156 C 11.773438 8.632812 11.820312 8.617188 11.859375 8.609375 L 12.039062 8.929688 C 11.988281 8.953125 11.9375 8.976562 11.898438 9 Z M 14.019531 9.046875 C 14.011719 9.160156 13.972656 9.269531 13.90625 9.382812 C 13.84375 9.492188 13.742188 9.585938 13.601562 9.667969 C 13.457031 9.75 13.308594 9.792969 13.164062 9.792969 C 13.019531 9.792969 12.886719 9.753906 12.761719 9.675781 C 12.640625 9.597656 12.539062 9.492188 12.460938 9.351562 L 12.425781 9.296875 C 12.335938 9.140625 12.289062 8.988281 12.28125 8.835938 C 12.269531 8.683594 12.300781 8.542969 12.367188 8.421875 C 12.433594 8.296875 12.53125 8.199219 12.660156 8.125 C 12.800781 8.042969 12.9375 8.003906 13.070312 8.011719 C 13.203125 8.019531 13.328125 8.0625 13.4375 8.148438 C 13.550781 8.230469 13.648438 8.347656 13.734375 8.496094 L 13.816406 8.640625 L 12.832031 9.207031 C 12.882812 9.28125 12.941406 9.339844 13.011719 9.382812 C 13.082031 9.425781 13.152344 9.449219 13.230469 9.449219 C 13.3125 9.449219 13.386719 9.425781 13.464844 9.382812 C 13.621094 9.292969 13.710938 9.15625 13.734375 8.976562 Z M 12.816406 8.394531 C 12.726562 8.449219 12.667969 8.523438 12.648438 8.621094 C 12.628906 8.71875 12.644531 8.832031 12.695312 8.957031 L 13.339844 8.585938 L 13.324219 8.558594 C 13.261719 8.464844 13.1875 8.398438 13.101562 8.359375 C 13.015625 8.324219 12.921875 8.335938 12.816406 8.394531 Z M 15.40625 8.585938 L 15.300781 8.441406 C 15.269531 8.621094 15.171875 8.761719 15 8.859375 C 14.882812 8.925781 14.757812 8.953125 14.632812 8.941406 C 14.503906 8.925781 14.382812 8.875 14.265625 8.785156 C 14.152344 8.699219 14.050781 8.582031 13.964844 8.433594 L 13.949219 8.40625 C 13.859375 8.253906 13.808594 8.105469 13.789062 7.960938 C 13.769531 7.816406 13.785156 7.6875 13.839844 7.570312 C 13.890625 7.453125 13.980469 7.363281 14.097656 7.292969 C 14.257812 7.199219 14.421875 7.179688 14.582031 7.234375 L 14.136719 6.464844 L 14.476562 6.265625 L 15.714844 8.410156 Z M 14.304688 8.238281 C 14.386719 8.386719 14.484375 8.488281 14.589844 8.542969 C 14.699219 8.601562 14.8125 8.597656 14.925781 8.53125 C 15.066406 8.453125 15.128906 8.332031 15.121094 8.167969 L 14.75 7.527344 C 14.621094 7.441406 14.484375 7.4375 14.347656 7.519531 C 14.230469 7.585938 14.167969 7.679688 14.164062 7.804688 C 14.160156 7.929688 14.203125 8.066406 14.285156 8.210938 Z M 17 8.460938 C 16.9375 8.496094 16.867188 8.523438 16.785156 8.546875 C 16.707031 8.570312 16.621094 8.585938 16.53125 8.585938 C 16.445312 8.585938 16.363281 8.570312 16.289062 8.535156 L 16.332031 8.242188 C 16.511719 8.304688 16.675781 8.292969 16.824219 8.203125 C 16.9375 8.140625 17.007812 8.058594 17.039062 7.957031 C 17.066406 7.855469 17.046875 7.746094 16.980469 7.632812 L 16.921875 7.53125 C 16.886719 7.695312 16.789062 7.828125 16.625 7.917969 C 16.507812 7.988281 16.382812 8.015625 16.253906 8.003906 C 16.125 7.992188 16.003906 7.941406 15.890625 7.855469 C 15.773438 7.769531 15.671875 7.65625 15.589844 7.511719 L 15.566406 7.472656 C 15.476562 7.320312 15.425781 7.171875 15.40625 7.027344 C 15.390625 6.882812 15.40625 6.75 15.460938 6.636719 C 15.515625 6.519531 15.601562 6.425781 15.726562 6.351562 C 15.898438 6.253906 16.066406 6.234375 16.234375 6.296875 L 16.164062 6.136719 L 16.46875 5.960938 L 17.316406 7.429688 C 17.394531 7.5625 17.429688 7.691406 17.429688 7.820312 C 17.425781 7.949219 17.386719 8.070312 17.3125 8.179688 C 17.238281 8.289062 17.132812 8.382812 17 8.460938 Z M 15.921875 7.304688 C 16.003906 7.449219 16.101562 7.550781 16.210938 7.609375 C 16.324219 7.664062 16.4375 7.660156 16.554688 7.59375 C 16.691406 7.511719 16.757812 7.394531 16.753906 7.238281 L 16.375 6.578125 C 16.246094 6.5 16.109375 6.5 15.972656 6.578125 C 15.855469 6.648438 15.792969 6.742188 15.789062 6.871094 C 15.78125 6.996094 15.820312 7.132812 15.90625 7.277344 Z M 17.640625 5.683594 C 17.484375 5.773438 17.414062 5.894531 17.429688 6.042969 L 18.023438 7.074219 L 17.6875 7.269531 L 16.816406 5.761719 L 17.140625 5.574219 L 17.246094 5.738281 C 17.25 5.5625 17.324219 5.429688 17.472656 5.34375 C 17.519531 5.316406 17.5625 5.300781 17.601562 5.292969 L 17.785156 5.613281 C 17.730469 5.636719 17.683594 5.660156 17.640625 5.683594 Z M 18.136719 5.988281 C 18.050781 5.839844 18.003906 5.695312 17.992188 5.542969 C 17.980469 5.394531 18.007812 5.257812 18.074219 5.128906 C 18.144531 5.003906 18.246094 4.898438 18.390625 4.8125 C 18.535156 4.730469 18.675781 4.691406 18.816406 4.699219 C 18.960938 4.703125 19.09375 4.742188 19.214844 4.824219 C 19.339844 4.90625 19.441406 5.015625 19.527344 5.160156 L 19.554688 5.207031 C 19.640625 5.351562 19.6875 5.5 19.699219 5.648438 C 19.710938 5.796875 19.683594 5.9375 19.613281 6.0625 C 19.546875 6.191406 19.441406 6.296875 19.296875 6.378906 C 19.152344 6.460938 19.007812 6.5 18.867188 6.496094 C 18.722656 6.492188 18.585938 6.445312 18.464844 6.363281 C 18.339844 6.277344 18.238281 6.164062 18.152344 6.015625 Z M 18.488281 5.820312 C 18.542969 5.914062 18.605469 5.992188 18.671875 6.050781 C 18.742188 6.109375 18.816406 6.148438 18.898438 6.160156 C 18.976562 6.171875 19.058594 6.152344 19.140625 6.105469 C 19.21875 6.058594 19.273438 6 19.304688 5.925781 C 19.332031 5.847656 19.339844 5.765625 19.324219 5.675781 C 19.304688 5.585938 19.269531 5.496094 19.214844 5.402344 L 19.199219 5.371094 C 19.144531 5.28125 19.085938 5.203125 19.015625 5.144531 C 18.945312 5.085938 18.871094 5.050781 18.789062 5.035156 C 18.710938 5.023438 18.628906 5.039062 18.546875 5.085938 C 18.46875 5.132812 18.414062 5.195312 18.386719 5.269531 C 18.355469 5.34375 18.351562 5.429688 18.367188 5.519531 C 18.382812 5.609375 18.417969 5.699219 18.472656 5.792969 Z M 21.1875 5.25 L 21.09375 5.105469 C 21.066406 5.28125 20.957031 5.421875 20.773438 5.527344 C 20.617188 5.617188 20.472656 5.640625 20.332031 5.601562 C 20.191406 5.5625 20.066406 5.445312 19.953125 5.257812 L 19.386719 4.277344 L 19.726562 4.082031 L 20.292969 5.058594 C 20.351562 5.160156 20.414062 5.21875 20.484375 5.238281 C 20.550781 5.253906 20.621094 5.242188 20.695312 5.203125 C 20.855469 5.109375 20.929688 4.984375 20.925781 4.835938 L 20.296875 3.75 L 20.636719 3.554688 L 21.507812 5.0625 Z M 22.605469 4.46875 C 22.441406 4.5625 22.277344 4.585938 22.113281 4.535156 L 22.527344 5.25 L 22.1875 5.445312 L 20.984375 3.355469 L 21.292969 3.175781 L 21.394531 3.320312 C 21.429688 3.140625 21.527344 3.003906 21.699219 2.90625 C 21.824219 2.832031 21.949219 2.800781 22.074219 2.816406 C 22.199219 2.828125 22.320312 2.878906 22.429688 2.96875 C 22.542969 3.054688 22.644531 3.179688 22.734375 3.332031 L 22.75 3.363281 C 22.835938 3.507812 22.886719 3.65625 22.910156 3.796875 C 22.929688 3.941406 22.914062 4.070312 22.863281 4.1875 C 22.816406 4.304688 22.726562 4.398438 22.605469 4.46875 Z M 21.761719 3.234375 C 21.625 3.316406 21.558594 3.433594 21.566406 3.582031 L 21.949219 4.25 C 22.078125 4.332031 22.214844 4.332031 22.351562 4.25 C 22.46875 4.183594 22.527344 4.089844 22.53125 3.960938 C 22.535156 3.835938 22.492188 3.699219 22.410156 3.554688 L 22.394531 3.527344 C 22.308594 3.382812 22.210938 3.28125 22.101562 3.222656 C 21.992188 3.164062 21.878906 3.167969 21.761719 3.234375 Z M 23.378906 3.757812 C 23.347656 3.703125 23.339844 3.648438 23.355469 3.589844 C 23.367188 3.535156 23.40625 3.488281 23.46875 3.453125 C 23.527344 3.421875 23.585938 3.410156 23.640625 3.425781 C 23.699219 3.441406 23.742188 3.472656 23.773438 3.527344 C 23.804688 3.582031 23.8125 3.636719 23.796875 3.695312 C 23.78125 3.75 23.746094 3.796875 23.683594 3.828125 C 23.625 3.863281 23.566406 3.875 23.511719 3.859375 C 23.453125 3.847656 23.410156 3.8125 23.378906 3.757812 Z M 25.164062 2.953125 C 25.128906 2.929688 25.085938 2.890625 25.042969 2.835938 C 25 3.011719 24.898438 3.144531 24.742188 3.234375 C 24.644531 3.292969 24.542969 3.324219 24.441406 3.328125 C 24.34375 3.332031 24.25 3.316406 24.167969 3.269531 C 24.082031 3.226562 24.015625 3.164062 23.96875 3.078125 C 23.875 2.917969 23.863281 2.761719 23.933594 2.605469 C 24.003906 2.453125 24.148438 2.3125 24.367188 2.183594 L 24.578125 2.0625 L 24.523438 1.960938 C 24.476562 1.882812 24.417969 1.832031 24.34375 1.8125 C 24.273438 1.792969 24.195312 1.804688 24.109375 1.855469 C 24.054688 1.886719 24.015625 1.921875 23.984375 1.964844 C 23.953125 2.003906 23.9375 2.046875 23.933594 2.089844 C 23.929688 2.132812 23.941406 2.175781 23.960938 2.214844 L 23.625 2.410156 C 23.578125 2.332031 23.5625 2.238281 23.570312 2.140625 C 23.582031 2.039062 23.621094 1.9375 23.691406 1.839844 C 23.761719 1.742188 23.855469 1.660156 23.980469 1.585938 C 24.09375 1.519531 24.207031 1.484375 24.316406 1.46875 C 24.429688 1.460938 24.53125 1.476562 24.625 1.527344 C 24.71875 1.578125 24.796875 1.65625 24.863281 1.769531 L 25.25 2.4375 C 25.328125 2.574219 25.410156 2.671875 25.496094 2.730469 L 25.507812 2.753906 Z M 24.648438 2.925781 C 24.722656 2.882812 24.777344 2.828125 24.816406 2.757812 C 24.851562 2.6875 24.871094 2.621094 24.867188 2.558594 L 24.703125 2.273438 L 24.496094 2.390625 C 24.261719 2.535156 24.191406 2.6875 24.285156 2.851562 C 24.324219 2.914062 24.375 2.953125 24.4375 2.96875 C 24.503906 2.984375 24.574219 2.96875 24.648438 2.925781 Z M 25.707031 0.960938 C 25.570312 1.039062 25.507812 1.148438 25.511719 1.292969 L 26.144531 2.386719 L 25.804688 2.582031 L 24.933594 1.074219 L 25.253906 0.890625 L 25.355469 1.042969 C 25.390625 0.855469 25.5 0.710938 25.683594 0.605469 C 25.882812 0.488281 26.066406 0.484375 26.230469 0.597656 C 26.25 0.378906 26.363281 0.210938 26.5625 0.0976562 C 26.890625 -0.09375 27.164062 -0.00390625 27.375 0.363281 L 27.945312 1.347656 L 27.605469 1.542969 L 27.039062 0.5625 C 26.980469 0.457031 26.914062 0.398438 26.84375 0.382812 C 26.777344 0.371094 26.695312 0.386719 26.605469 0.441406 C 26.53125 0.484375 26.480469 0.539062 26.453125 0.609375 C 26.429688 0.675781 26.425781 0.753906 26.445312 0.832031 L 27.042969 1.867188 L 26.703125 2.0625 L 26.140625 1.085938 C 26.082031 0.984375 26.019531 0.925781 25.945312 0.910156 C 25.875 0.890625 25.792969 0.910156 25.707031 0.960938 Z M 25.707031 0.960938 "/>
</g>
</svg>
