<svg width="1239" height="205" viewBox="0 0 1239 205" fill="none" xmlns="http://www.w3.org/2000/svg">
    <g clip-path="url(#clip0_1042_701)">
        <path d="M1153.44 195.67C1149.28 190.291 1145.86 184.382 1143.27 178.1C1141.95 175.03 1140.7 171.83 1139.5 168.69C1138.94 167.18 1138.31 165.69 1137.87 164.23C1137.43 162.77 1137.18 161.84 1137.93 160.34C1137.93 159.27 1138.37 158.83 1139.19 158.95C1139.88 158.77 1140.32 159.08 1140.57 159.9C1141.2 159.83 1141.83 159.71 1142.39 159.65C1138.62 148.303 1136.18 136.558 1135.11 124.65C1134.61 118.848 1134.42 113.023 1134.54 107.2C1134.61 104.5 1134.73 101.8 1134.98 99.0401C1135.04 97.9701 1134.92 94.9601 1135.55 94.0401C1136.24 93.8501 1136.87 93.6601 1137.55 93.5401C1138.68 92.5401 1139.55 92.5401 1140.12 93.6001C1140.77 94.2801 1141.3 95.0643 1141.69 95.9201C1159.66 126.347 1168.42 161.327 1166.93 196.63C1166.87 197.82 1168.75 197.82 1168.81 196.63C1169.83 171.135 1165.6 145.702 1156.38 121.91C1154.06 116.01 1151.47 110.237 1148.6 104.59C1147.28 101.95 1145.83 99.3701 1144.39 96.8601C1143.2 94.7901 1142 92.2801 1139.99 90.8601C1136.1 88.2201 1133.84 91.9901 1133.4 95.4401C1132.65 102.005 1132.4 108.617 1132.65 115.22C1133.08 130.442 1135.73 145.52 1140.5 159.98C1140.56 160.192 1140.7 160.374 1140.89 160.494C1141.07 160.613 1141.3 160.662 1141.52 160.632C1141.73 160.602 1141.94 160.495 1142.08 160.329C1142.23 160.164 1142.31 159.951 1142.32 159.73C1142.32 157.22 1139.49 156.15 1137.32 157.22C1133.55 159.04 1135.69 164.22 1136.69 167.02C1140.58 177.56 1144.79 188.02 1151.88 196.84C1151.95 196.968 1152.05 197.078 1152.17 197.164C1152.29 197.249 1152.43 197.307 1152.57 197.333C1152.71 197.36 1152.86 197.354 1153 197.317C1153.15 197.28 1153.28 197.212 1153.39 197.118C1153.5 197.024 1153.59 196.906 1153.66 196.773C1153.72 196.64 1153.75 196.495 1153.75 196.348C1153.75 196.202 1153.72 196.057 1153.66 195.924C1153.59 195.791 1153.5 195.674 1153.39 195.58L1153.44 195.67Z" fill="#E8E8E8"/>
        <path d="M1164.49 148.71C1164.96 140.347 1166.1 132.034 1167.88 123.85C1168.76 120.02 1169.7 116.19 1170.88 112.42C1171.45 110.54 1172.08 108.65 1172.71 106.83C1173.02 105.89 1173.33 104.95 1173.71 104.07C1173.83 103.684 1173.98 103.306 1174.15 102.94C1174.26 102.322 1174.57 101.758 1175.04 101.337C1175.5 100.917 1176.09 100.664 1176.72 100.62C1176.6 101.69 1178.29 101.87 1178.54 100.87C1179.8 96.73 1189.97 70.04 1196.19 74.63C1198.01 75.94 1198.51 79.02 1198.82 81.09C1199.33 83.98 1199.82 86.93 1200.08 89.82C1200.64 94.82 1201.02 99.74 1201.15 104.76C1202.11 137.093 1193.93 169.042 1177.54 196.93C1177.42 197.146 1177.38 197.403 1177.45 197.644C1177.51 197.885 1177.67 198.09 1177.89 198.215C1178.1 198.34 1178.36 198.373 1178.6 198.309C1178.84 198.244 1179.05 198.086 1179.17 197.87C1197.02 167.319 1205.21 132.081 1202.65 96.79C1202.25 91.1917 1201.56 85.6177 1200.58 80.09C1200.02 77.09 1198.64 72.62 1195.06 72.09C1190.35 71.34 1186.71 79.09 1184.82 82.26C1181.42 87.9583 1178.73 94.0543 1176.82 100.41C1177.44 100.47 1178.07 100.6 1178.64 100.66C1179.01 97.66 1175.25 97.46 1173.74 99.4C1172.61 100.85 1172.11 102.98 1171.54 104.68C1170.47 107.68 1169.54 110.68 1168.65 113.68C1165.35 125.085 1163.33 136.825 1162.65 148.68C1162.52 149.93 1164.41 149.93 1164.47 148.74L1164.49 148.71Z" fill="#E8E8E8"/>
        <path d="M1134.98 93.4001C1148.68 125.365 1157.26 159.287 1160.41 193.92C1160.54 195.11 1162.41 195.11 1162.29 193.92C1159.09 158.943 1150.42 124.684 1136.61 92.39C1136.11 91.33 1134.48 92.33 1134.98 93.39V93.4001Z" fill="#E8E8E8"/>
        <path d="M1193.12 76.1C1189.04 112.58 1184.58 150.25 1166.81 183.02C1166.25 184.09 1167.88 185.02 1168.45 183.96C1186.45 150.88 1190.86 112.96 1195 76.1C1195.13 74.91 1193.25 74.91 1193.12 76.1Z" fill="#E8E8E8"/>
        <path d="M27.1785 195.51C24.0907 192.361 21.2678 188.963 18.7385 185.35C17.5793 183.577 16.5756 181.706 15.7385 179.76C15.2885 178.66 13.1285 172.76 16.1085 173.99C16.8385 174.27 17.1085 173.31 16.7985 172.85C13.908 168.927 11.6226 164.592 10.0185 159.99C8.36847 155.68 6.76848 151.34 5.25848 146.99C3.51042 142.257 2.29623 137.343 1.63847 132.34C1.22847 128.4 0.818475 123 3.63847 119.75C7.79847 115.03 12.0185 122.82 13.9785 125.75C16.6385 129.68 19.2485 133.75 21.7685 137.75C26.8822 145.9 31.1925 154.527 34.6385 163.51C38.5684 173.817 40.4041 184.805 40.0385 195.83C40.0385 196.7 41.3685 196.7 41.4085 195.83C42.4085 173.49 32.8485 152.66 21.1785 134.17C18.2985 129.64 15.4085 125.06 12.2485 120.71C10.4685 118.28 7.62848 115.77 4.42848 117.37C1.49848 118.79 0.428474 122.59 0.118474 125.56C-0.381526 130.96 0.668474 136.46 2.11847 141.63C3.76847 147.49 6.00847 153.17 8.11847 158.84C10.1185 164.15 12.2785 169.33 15.8085 173.84C16.0285 173.48 16.2585 173.06 16.4885 172.7C15.9601 172.469 15.3791 172.385 14.807 172.458C14.235 172.53 13.693 172.755 13.2385 173.11C13.1393 173.173 13.0579 173.26 13.0019 173.364C12.9459 173.467 12.9172 173.583 12.9185 173.7C13.9185 182.95 20.1985 190.05 26.2385 196.55C26.7885 197.19 27.7485 196.23 27.1585 195.55L27.1785 195.51Z" fill="#E8E8E8"/>
        <path d="M30.9314 151.98C29.5295 139.187 31.245 126.246 35.9314 114.26C35.542 114.343 35.1579 114.45 34.7814 114.58C36.1714 115.795 37.1876 117.38 37.7114 119.15C37.7517 119.296 37.8385 119.424 37.9586 119.515C38.0787 119.607 38.2255 119.656 38.3764 119.656C38.5273 119.656 38.6741 119.607 38.7942 119.515C38.9143 119.424 39.0012 119.296 39.0414 119.15C42.135 108.349 46.7084 98.0276 52.6314 88.4801C52.2182 88.4446 51.8075 88.3845 51.4014 88.3001C54.9935 97.4268 57.1979 107.04 57.9414 116.82C58.5914 125.61 58.8114 135.73 53.4614 143.19C53.4042 143.279 53.3693 143.381 53.3597 143.487C53.3501 143.592 53.3661 143.699 53.4063 143.797C53.4466 143.895 53.5098 143.982 53.5908 144.05C53.6717 144.119 53.768 144.167 53.8714 144.19C57.9914 145.19 56.7514 151.66 56.3914 154.59C55.8177 159.467 54.9899 164.31 53.9114 169.1C51.8849 178.31 48.9886 187.307 45.2614 195.97C44.8914 196.8 46.0814 197.48 46.4514 196.66C50.8046 186.59 54.0439 176.074 56.1114 165.3C57.0214 160.36 58.1114 155.14 58.1714 150.1C58.1714 147.22 57.4814 143.6 54.2314 142.87C54.3714 143.19 54.5114 143.56 54.6414 143.87C60.0014 136.41 59.9114 126.43 59.3614 117.64C58.7127 107.44 56.4793 97.4029 52.7414 87.89C52.706 87.7633 52.6346 87.6495 52.5358 87.5626C52.437 87.4756 52.3152 87.4192 52.1849 87.4001C52.0547 87.3811 51.9218 87.4002 51.8022 87.4552C51.6827 87.5102 51.5816 87.5988 51.5114 87.71C45.517 97.3571 40.8833 107.786 37.7414 118.7H39.0714C38.4712 116.702 37.329 114.909 35.7714 113.52C35.6848 113.438 35.5784 113.38 35.4626 113.351C35.3468 113.323 35.2256 113.325 35.1107 113.357C34.9959 113.389 34.8914 113.451 34.8074 113.535C34.7234 113.62 34.6627 113.725 34.6314 113.84C29.9214 125.949 28.206 139.016 29.6314 151.93C29.6314 152.85 31.0014 152.85 30.9114 151.93L30.9314 151.98Z" fill="#E8E8E8"/>
        <path d="M4.1481 119.52C10.5181 132.11 17.0181 144.65 23.1481 157.38C29.1481 169.92 34.3681 182.88 37.2081 196.52C37.3881 197.39 38.7181 197.02 38.5281 196.15C35.6981 182.65 30.5281 169.87 24.6581 157.42C18.5281 144.42 11.8481 131.65 5.3481 118.79C4.9781 118.06 3.78809 118.74 4.19809 119.52H4.1481Z" fill="#E8E8E8"/>
        <path d="M51.6192 90.22C50.6192 103.82 46.4492 116.82 43.3392 130C40.2238 143.194 38.0648 156.595 36.8792 170.1C36.7892 170.97 38.1592 170.97 38.2592 170.1C39.492 156.142 41.7718 142.296 45.0792 128.68C48.1892 115.95 52.0792 103.36 52.9992 90.22C52.9992 89.31 51.6692 89.31 51.6192 90.22Z" fill="#E8E8E8"/>
        <path d="M39.2594 173.1C44.2094 166.59 49.2594 160.1 56.5194 155.97C57.2994 155.56 56.6094 154.37 55.8294 154.78C48.4194 159 43.1494 165.73 38.0694 172.41C37.5694 173.1 38.7594 173.78 39.2594 173.1Z" fill="#E8E8E8"/>
        <path d="M1077.85 199.1H1236.32C1236.82 199.1 1237.3 198.902 1237.65 198.549C1238 198.197 1238.2 197.719 1238.2 197.22C1238.2 196.721 1238 196.243 1237.65 195.891C1237.3 195.538 1236.82 195.34 1236.32 195.34H1077.85C1077.35 195.34 1076.87 195.538 1076.52 195.891C1076.17 196.243 1075.97 196.721 1075.97 197.22C1075.97 197.719 1076.17 198.197 1076.52 198.549C1076.87 198.902 1077.35 199.1 1077.85 199.1Z" fill="black"/>
        <path d="M97.1683 194.91H6.52826C6.18383 194.939 5.86298 195.097 5.62917 195.352C5.39536 195.606 5.26562 195.939 5.26562 196.285C5.26562 196.631 5.39536 196.964 5.62917 197.218C5.86298 197.473 6.18383 197.631 6.52826 197.66H97.1683C97.5127 197.631 97.8335 197.473 98.0673 197.218C98.3012 196.964 98.4309 196.631 98.4309 196.285C98.4309 195.939 98.3012 195.606 98.0673 195.352C97.8335 195.097 97.5127 194.939 97.1683 194.91Z" fill="black"/>
        <path d="M746.011 204.36H1011.09C1014.03 204.36 1014.03 199.84 1011.09 199.84H746.011C743.141 199.84 743.071 204.36 746.011 204.36Z" fill="black"/>
        <path d="M180.491 136.03C207.531 137.243 234.577 137.83 261.631 137.79C261.834 137.768 262.022 137.671 262.158 137.519C262.294 137.367 262.37 137.169 262.37 136.965C262.37 136.761 262.294 136.563 262.158 136.411C262.022 136.259 261.834 136.162 261.631 136.14C234.577 136.193 207.531 135.607 180.491 134.38C179.441 134.32 179.441 135.97 180.491 136.03Z" fill="#E8E8E8"/>
        <path d="M263.28 95.1C267.507 110.993 271.447 126.973 275.1 143.04C275.32 144.04 276.91 143.65 276.69 142.6C273.01 126.6 269.11 110.6 264.87 94.6599C264.794 94.4704 264.651 94.3155 264.468 94.2249C264.285 94.1343 264.075 94.1143 263.878 94.1687C263.681 94.2232 263.512 94.3483 263.401 94.5201C263.291 94.6919 263.248 94.8983 263.28 95.1Z" fill="#E8E8E8"/>
        <path d="M336.95 96.3301C335.41 111.45 333.87 126.63 332.38 141.74C332.27 142.79 333.92 142.79 334.03 141.74C335.57 126.63 337.11 111.45 338.6 96.3301C338.65 95.3301 337 95.3301 336.95 96.3301Z" fill="#E8E8E8"/>
        <path d="M275.54 144.55C285.154 146.267 294.917 147.004 304.68 146.75C314.02 146.47 324.25 145.75 333.15 142.75C334.15 142.42 333.7 140.82 332.71 141.15C323.86 144.07 313.91 144.78 304.71 145.06C295.095 145.307 285.48 144.586 276.01 142.91C274.96 142.69 274.52 144.29 275.57 144.51L275.54 144.55Z" fill="#E8E8E8"/>
        <path d="M263.941 95.6701C275.321 98.8601 287.691 98.9201 299.451 98.9701C312.09 99.0747 324.723 98.4068 337.281 96.9701C338.281 96.8601 338.281 95.21 337.281 95.32C325.089 96.7302 312.823 97.3981 300.551 97.32C288.621 97.27 275.981 97.27 264.381 94.08C264.17 94.0217 263.945 94.0495 263.754 94.1574C263.564 94.2652 263.424 94.4442 263.366 94.6551C263.307 94.8659 263.335 95.0913 263.443 95.2816C263.551 95.472 263.73 95.6117 263.941 95.6701Z" fill="#E8E8E8"/>
        <path d="M259.208 90.0101C259.318 91.0601 259.428 92.1601 259.538 93.2001C259.542 93.9094 259.653 94.6142 259.868 95.2901C260.528 96.7201 262.728 96.2201 263.988 96.2201C264.192 96.1977 264.379 96.1011 264.516 95.9489C264.652 95.7967 264.727 95.5994 264.727 95.3951C264.727 95.1907 264.652 94.9935 264.516 94.8413C264.379 94.6891 264.192 94.5925 263.988 94.5701H262.118C261.298 94.5701 261.298 94.4101 261.238 93.5701C261.128 92.3601 261.018 91.2001 260.908 89.9901C260.748 88.9901 259.098 88.8901 259.208 89.9901V90.0101Z" fill="#E8E8E8"/>
        <path d="M260.308 90.8901C274.053 92.4621 287.873 93.29 301.708 93.3701C308.518 93.4201 315.338 93.3101 322.208 93.0901C325.618 92.9801 329.028 92.8201 332.438 92.6501C334.028 92.6501 336.228 92.0501 337.828 92.3801C339.748 92.7101 339.638 94.3801 339.828 96.0601C339.988 95.7301 340.208 95.4001 340.378 95.0601H338.238C337.238 94.8401 336.748 96.4301 337.798 96.6501C338.785 96.8762 339.811 96.8762 340.798 96.6501C340.903 96.6267 341.002 96.5811 341.089 96.5163C341.175 96.4515 341.247 96.3691 341.299 96.2745C341.351 96.1799 341.382 96.0752 341.391 95.9675C341.399 95.8599 341.384 95.7517 341.348 95.6501C341.078 93.7301 341.298 91.3101 338.988 90.8201C337.618 90.4901 335.908 90.8201 334.478 90.9301C332.668 91.0401 330.908 91.0901 329.088 91.2001C321.398 91.5301 313.648 91.7501 305.898 91.7501C290.631 91.8182 275.374 90.9733 260.208 89.2201C259.278 89.1101 259.278 90.7601 260.318 90.8701L260.308 90.8901Z" fill="#E8E8E8"/>
        <path d="M272.238 130.86C276.624 136.587 281.807 141.659 287.628 145.92C288.508 146.53 289.338 145.1 288.458 144.49C282.841 140.386 277.84 135.5 273.608 129.98C273.008 129.15 271.608 129.98 272.238 130.86Z" fill="#E8E8E8"/>
        <path d="M268.56 114.1C277.125 126.456 287.718 137.276 299.89 146.1C300.77 146.71 301.6 145.28 300.72 144.67C288.796 135.976 278.41 125.35 269.99 113.23C269.38 112.35 267.99 113.17 268.56 114.05V114.1Z" fill="#E8E8E8"/>
        <path d="M265.201 99.3601C280.051 116.95 296.541 133.36 316.201 145.59C317.081 146.14 317.961 144.71 317.031 144.16C297.451 132.07 281.031 115.74 266.341 98.1601C265.681 97.3401 264.521 98.55 265.181 99.32L265.201 99.3601Z" fill="#E8E8E8"/>
        <path d="M280.981 98.4201C295.111 114.86 310.781 130.42 328.261 143.34C329.141 143.94 329.961 142.51 329.081 141.91C311.711 129.15 296.151 113.54 282.141 97.2701C281.421 96.4401 280.271 97.6001 280.981 98.4201Z" fill="#E8E8E8"/>
        <path d="M299.01 99.5801C308.565 111.288 319.562 121.741 331.74 130.69C332.62 131.3 333.44 129.87 332.56 129.26C320.481 120.403 309.582 110.039 300.13 98.4201C299.47 97.6001 298.31 98.7501 298.97 99.5801H299.01Z" fill="#E8E8E8"/>
        <path d="M313.739 98.9701C319.88 105.868 326.947 111.882 334.739 116.84C335.619 117.39 336.439 115.96 335.559 115.41C327.895 110.521 320.94 104.603 314.889 97.82C314.179 96.99 313.019 98.1501 313.739 98.9701Z" fill="#E8E8E8"/>
        <path d="M237.658 8.37009C241.203 15.8895 243.684 23.8661 245.028 32.07C245.066 32.2445 245.163 32.4003 245.304 32.51C245.445 32.6197 245.62 32.6764 245.798 32.6701C246.128 32.6701 247.888 32.6201 247.998 33.1701C248.048 33.3901 246.948 34.6501 246.838 34.9301C246.508 35.8342 246.508 36.826 246.838 37.7301C247.049 38.2219 247.359 38.6654 247.747 39.0334C248.136 39.4013 248.596 39.6861 249.098 39.8701C249.444 40.0216 249.812 40.1161 250.188 40.1501C250.52 40.201 250.857 40.201 251.188 40.1501C251.628 40.0901 251.578 40.1501 251.078 40.3701C250.528 41.1901 249.758 41.3 249.538 42.51C249.507 43.6495 249.795 44.7749 250.368 45.76C252.178 49.6 253.228 53.6701 254.708 57.6901C259.828 71.3201 269.608 82.5901 280.708 91.8801C281.538 92.5401 282.708 91.3901 281.868 90.7301C270.488 81.1601 260.368 69.4501 255.588 55.1001C254.978 53.2301 254.428 51.3601 253.768 49.5501C253.218 47.9601 252.178 46.3101 251.678 44.7101C251.407 44.2717 251.282 43.7583 251.321 43.2442C251.361 42.73 251.563 42.2418 251.898 41.8501L252.558 41.3601C252.728 41.0801 253.058 40.9201 253.218 40.5901C253.324 40.3163 253.345 40.0167 253.277 39.731C253.209 39.4453 253.056 39.1869 252.838 38.9901C252.118 38.2801 251.018 38.66 250.088 38.39C246.518 37.39 249.428 34.9301 249.698 33.1701C250.088 30.8601 247.228 31.17 245.698 31.0201C245.966 31.2086 246.223 31.4123 246.468 31.6301C245.103 23.2894 242.568 15.1829 238.938 7.55008C238.718 6.55008 237.288 7.38009 237.728 8.37009H237.658Z" fill="#E8E8E8"/>
        <path d="M238.257 7.99002C256.127 12.77 271.797 24.92 283.177 39.32C295.267 54.61 302.808 72.97 306.868 91.94C307.088 92.94 308.688 92.54 308.468 91.5C304.348 72.25 296.647 53.67 284.387 38.17C272.837 23.6 256.897 11.29 238.737 6.44999C238.635 6.41309 238.527 6.39716 238.418 6.40305C238.31 6.40894 238.204 6.43655 238.106 6.48429C238.009 6.53202 237.922 6.59887 237.851 6.68088C237.779 6.7629 237.725 6.85841 237.692 6.9617C237.658 7.06499 237.646 7.17395 237.655 7.28214C237.665 7.39033 237.696 7.49553 237.747 7.59147C237.798 7.6874 237.867 7.77215 237.952 7.84061C238.036 7.90908 238.133 7.95988 238.237 7.99002H238.257Z" fill="#E8E8E8"/>
        <path d="M244.739 14.81C266.673 36.1439 283.479 62.1778 293.889 90.95C294.279 91.95 295.889 91.5 295.479 90.51C284.964 61.4772 268.014 35.2008 245.899 13.65C245.179 12.88 243.969 14.04 244.739 14.81Z" fill="#E8E8E8"/>
        <path d="M254.477 49.38C259.078 49.8492 263.592 50.9425 267.897 52.63C272.067 54.28 276.637 56.37 279.277 60.16C279.877 61.04 281.277 60.22 280.707 59.34C278.067 55.54 273.937 53.4 269.767 51.64C264.88 49.5728 259.708 48.2579 254.427 47.74C253.427 47.63 253.427 49.27 254.477 49.38Z" fill="#E8E8E8"/>
        <path d="M262.669 19.26C262.618 25.5583 263.633 31.8199 265.669 37.78C265.999 38.78 267.589 38.33 267.259 37.35C265.272 31.5258 264.259 25.4139 264.259 19.26C264.237 19.0569 264.14 18.8692 263.988 18.7328C263.836 18.5964 263.639 18.521 263.434 18.521C263.23 18.521 263.033 18.5964 262.881 18.7328C262.728 18.8692 262.632 19.0569 262.609 19.26H262.669Z" fill="#E8E8E8"/>
        <path d="M292.858 49.16C295.548 39.1 304.508 33.16 312.148 26.95C320.288 20.41 328.148 13.43 335.628 6.17002L334.248 5.35002C331.778 12 331.248 18.98 331.388 26.02C331.528 33.06 333.098 41.14 330.838 47.96C331.106 47.7715 331.363 47.5678 331.608 47.35C329.848 47.46 328.098 47.63 326.338 47.74C325.788 47.79 325.238 48.45 325.618 49C326.888 50.7 328.368 51.25 328.318 53.78C328.274 55.6426 327.919 57.4847 327.268 59.23C326.668 60.93 325.068 62.08 324.518 63.68C324.078 65.11 325.178 66.32 325.178 67.75C325.238 70.11 323.528 72.09 322.318 73.96C321.169 75.7105 320.124 77.527 319.188 79.4C317.328 83.056 315.837 86.8883 314.738 90.84C314.705 91.0416 314.748 91.2481 314.859 91.4199C314.969 91.5917 315.139 91.7168 315.336 91.7712C315.533 91.8257 315.742 91.8057 315.925 91.7151C316.108 91.6244 316.252 91.4695 316.328 91.28C317.694 86.3761 319.691 81.6702 322.268 77.28C324.028 74.28 327.328 70.85 326.938 67.11C326.778 65.62 326.008 65.18 326.668 63.48C326.718 63.42 327.668 62.1 327.768 61.99C328.736 60.2756 329.367 58.3917 329.628 56.44C329.992 54.9285 330.14 53.373 330.068 51.82C329.738 49.82 328.208 49.62 327.068 48.09C326.848 48.53 326.578 48.91 326.358 49.35C328.118 49.24 329.868 49.08 331.628 48.97C331.805 48.9651 331.975 48.903 332.114 48.7931C332.253 48.6831 332.352 48.5312 332.398 48.36C334.488 41.98 333.228 34.56 333.008 27.96C332.788 20.43 333.058 12.85 335.758 5.69999C336.088 4.86999 334.928 4.38004 334.378 4.87004C326.403 12.6592 318.035 20.0355 309.308 26.97C301.838 32.91 293.758 38.97 291.168 48.64C291.008 49.79 292.598 50.23 292.878 49.18L292.858 49.16Z" fill="#E8E8E8"/>
        <path d="M329.521 13.32C324.141 22.72 318.641 32.0101 313.521 41.5201C308.681 50.3201 304.401 59.4501 302.361 69.2901C302.141 70.2901 303.741 70.7701 303.961 69.7301C306.041 59.6701 310.501 50.4301 315.451 41.4701C320.451 32.2901 325.841 23.2701 331.001 14.1501C331.501 13.2701 330.071 12.39 329.571 13.32H329.521Z" fill="#E8E8E8"/>
        <path d="M313.31 28.6C314.027 31.6999 314.339 34.8797 314.24 38.06C314.19 39.06 315.84 39.06 315.89 38.06C315.996 34.7303 315.659 31.4012 314.89 28.1599C314.814 27.9704 314.67 27.8155 314.487 27.7249C314.304 27.6343 314.094 27.6143 313.898 27.6687C313.701 27.7232 313.531 27.8483 313.421 28.0201C313.31 28.1919 313.267 28.3983 313.3 28.6H313.31Z" fill="#E8E8E8"/>
        <path d="M322.268 18.1C322.842 20.3868 322.991 22.7594 322.708 25.1C322.598 26.15 324.248 26.15 324.358 25.1C324.688 22.5981 324.518 20.0558 323.858 17.62C323.782 17.4305 323.639 17.2756 323.456 17.185C323.273 17.0944 323.063 17.0744 322.866 17.1288C322.67 17.1833 322.5 17.3083 322.389 17.4801C322.279 17.6519 322.236 17.8584 322.268 18.06V18.1Z" fill="#E8E8E8"/>
        <path d="M322.648 29.04C325.888 27.1198 329.259 25.4322 332.738 23.99C333.738 23.6 333.288 21.99 332.298 22.39C328.685 23.8917 325.177 25.6357 321.798 27.61C321.616 27.7304 321.489 27.9166 321.442 28.1294C321.395 28.3423 321.432 28.565 321.546 28.7507C321.661 28.9363 321.843 29.0703 322.054 29.1243C322.265 29.1782 322.489 29.148 322.678 29.04H322.648Z" fill="#E8E8E8"/>
        <path d="M308.469 56.6401C310.559 54.8801 312.649 53.1801 314.789 51.5301C316.929 49.8801 319.519 47.4101 322.269 46.3101C323.269 45.9201 322.819 44.3101 321.829 44.7101C319.349 45.6501 317.319 47.4601 315.229 49.1101C312.539 51.2001 309.899 53.2901 307.309 55.4901C306.489 56.1501 307.639 57.3001 308.469 56.6401Z" fill="#E8E8E8"/>
        <path d="M244.811 25.8001C248.661 26.1901 252.501 26.57 256.351 26.9C257.401 27.01 257.401 25.3601 256.351 25.2501C252.501 24.8701 248.661 24.48 244.811 24.15C243.761 24.04 243.761 25.6901 244.811 25.8001Z" fill="#E8E8E8"/>
        <path d="M345.739 135.48H610.509C610.712 135.458 610.9 135.361 611.036 135.209C611.173 135.057 611.248 134.859 611.248 134.655C611.248 134.451 611.173 134.254 611.036 134.101C610.9 133.949 610.712 133.852 610.509 133.83H345.739C345.536 133.852 345.348 133.949 345.212 134.101C345.075 134.254 345 134.451 345 134.655C345 134.859 345.075 135.057 345.212 135.209C345.348 135.361 345.536 135.458 345.739 135.48Z" fill="#E8E8E8"/>
        <path d="M527.661 151.42H662.741C662.944 151.398 663.132 151.301 663.268 151.149C663.405 150.997 663.48 150.799 663.48 150.595C663.48 150.391 663.405 150.193 663.268 150.041C663.132 149.889 662.944 149.792 662.741 149.77H527.661C527.458 149.792 527.27 149.889 527.134 150.041C526.997 150.193 526.922 150.391 526.922 150.595C526.922 150.799 526.997 150.997 527.134 151.149C527.27 151.301 527.458 151.398 527.661 151.42Z" fill="#E8E8E8"/>
        <path d="M713.86 137.18H883.79C883.993 137.158 884.181 137.061 884.317 136.909C884.454 136.757 884.529 136.559 884.529 136.355C884.529 136.151 884.454 135.953 884.317 135.801C884.181 135.649 883.993 135.552 883.79 135.53H713.86C713.657 135.552 713.469 135.649 713.333 135.801C713.196 135.953 713.121 136.151 713.121 136.355C713.121 136.559 713.196 136.757 713.333 136.909C713.469 137.061 713.657 137.158 713.86 137.18Z" fill="#E8E8E8"/>
        <path d="M165.809 165.33H301.739C301.942 165.308 302.13 165.211 302.267 165.059C302.403 164.907 302.478 164.709 302.478 164.505C302.478 164.301 302.403 164.103 302.267 163.951C302.13 163.799 301.942 163.702 301.739 163.68H165.809C165.606 163.702 165.418 163.799 165.282 163.951C165.146 164.103 165.07 164.301 165.07 164.505C165.07 164.709 165.146 164.907 165.282 165.059C165.418 165.211 165.606 165.308 165.809 165.33Z" fill="#E8E8E8"/>
        <path d="M257.18 181.82H368.18C368.384 181.798 368.571 181.701 368.708 181.549C368.844 181.397 368.92 181.199 368.92 180.995C368.92 180.791 368.844 180.593 368.708 180.441C368.571 180.289 368.384 180.192 368.18 180.17H257.18C256.962 180.17 256.752 180.257 256.597 180.412C256.442 180.566 256.355 180.776 256.355 180.995C256.355 181.214 256.442 181.424 256.597 181.578C256.752 181.733 256.962 181.82 257.18 181.82Z" fill="#E8E8E8"/>
    </g>
    <defs>
        <clipPath id="clip0_1042_701">
            <rect width="1238.16" height="204.36" fill="white"/>
        </clipPath>
    </defs>
</svg>
